<?xml version="1.0" encoding="utf-8"?>
<!-- Generator: Adobe Illustrator 26.0.1, SVG Export Plug-In . SVG Version: 6.00 Build 0)  -->
<svg version="1.1" id="Layer_1" xmlns="http://www.w3.org/2000/svg" xmlns:xlink="http://www.w3.org/1999/xlink" x="0px" y="0px"
	 viewBox="0 0 600 600" style="enable-background:new 0 0 600 600;" xml:space="preserve">
<style type="text/css">
	.st0{fill:#FFFFFF;fill-opacity:0;}
	.st1{fill:#700000;}
	.st2{fill:#231F20;}
	.st3{fill:#1D1D1B;}
</style>
<rect class="st0" width="600" height="600"/>
<path d="M33.7,290.9V289c0,0,0-2.9,1.5-4.6c1.1-1.3,2-2.2,5.7-2.2h3.9v4.8h-2.4c0,0-1.8,0.2-1.8,2.4v1.3H45v5h-4.6v14.7H34v-14.6h-4
	v-5h3.7V290.9z"/>
<path d="M75.6,284.7c3.8,0,4.2,0,5.7,0.1c1.4,0.1,2.1,0.3,2.6,0.5c0.7,0.3,1.1,0.6,1.6,1.1s0.8,1,1.1,1.6c0.2,0.5,0.4,1.2,0.5,2.6
	c0.1,1.5,0.1,1.9,0.1,5.7s0,4.2-0.1,5.7c-0.1,1.4-0.3,2.1-0.5,2.6c-0.3,0.7-0.6,1.1-1.1,1.6s-1,0.8-1.6,1.1
	c-0.5,0.2-1.2,0.4-2.6,0.5c-1.5,0.1-1.9,0.1-5.7,0.1c-3.8,0-4.2,0-5.7-0.1c-1.4-0.1-2.1-0.3-2.6-0.5c-0.7-0.3-1.1-0.6-1.6-1.1
	s-0.8-1-1.1-1.6c-0.2-0.5-0.4-1.2-0.5-2.6c-0.1-1.5-0.1-1.9-0.1-5.7s0-4.2,0.1-5.7c0.1-1.4,0.3-2.1,0.5-2.6c0.3-0.7,0.6-1.1,1.1-1.6
	s1-0.8,1.6-1.1c0.5-0.2,1.2-0.4,2.6-0.5C71.3,284.8,71.8,284.7,75.6,284.7 M75.6,282.2c-3.8,0-4.3,0-5.8,0.1s-2.5,0.3-3.4,0.7
	c-0.9,0.4-1.7,0.8-2.5,1.6c-0.8,0.8-1.3,1.6-1.6,2.5s-0.6,1.9-0.7,3.4c-0.1,1.5-0.1,2-0.1,5.8s0,4.3,0.1,5.8s0.3,2.5,0.7,3.4
	s0.8,1.7,1.6,2.5c0.8,0.8,1.6,1.3,2.5,1.6c0.9,0.3,1.9,0.6,3.4,0.7s2,0.1,5.8,0.1s4.3,0,5.8-0.1s2.5-0.3,3.4-0.7
	c0.9-0.4,1.7-0.8,2.5-1.6c0.8-0.8,1.3-1.6,1.6-2.5c0.3-0.9,0.6-1.9,0.7-3.4s0.1-2,0.1-5.8s0-4.3-0.1-5.8s-0.3-2.5-0.7-3.4
	c-0.4-0.9-0.8-1.7-1.6-2.5c-0.8-0.8-1.6-1.3-2.5-1.6c-0.9-0.3-1.9-0.6-3.4-0.7S79.4,282.2,75.6,282.2"/>
<path d="M75.6,289.1c-4,0-7.2,3.2-7.2,7.2s3.2,7.2,7.2,7.2s7.2-3.2,7.2-7.2C82.8,292.3,79.6,289.1,75.6,289.1 M75.6,301
	c-2.6,0-4.7-2.1-4.7-4.7s2.1-4.7,4.7-4.7s4.7,2.1,4.7,4.7C80.3,298.9,78.2,301,75.6,301"/>
<path d="M84.8,288.8c0,0.9-0.8,1.7-1.7,1.7c-0.9,0-1.7-0.8-1.7-1.7s0.8-1.7,1.7-1.7C84,287.1,84.8,287.8,84.8,288.8"/>
<path d="M158.5,295.3c-0.1-0.1-0.2-0.1-0.4-0.2c-0.2-4-2.4-6.3-6.1-6.3l0,0c-2.2,0-4,0.9-5.2,2.6l2,1.4c0.8-1.3,2.2-1.5,3.1-1.5l0,0
	c1.2,0,2.1,0.4,2.7,1c0.4,0.5,0.7,1.2,0.9,2.1c-1.1-0.2-2.2-0.2-3.5-0.2c-3.5,0.2-5.7,2.2-5.6,5.1c0.1,1.4,0.8,2.7,2,3.5
	c1,0.7,2.4,1,3.8,0.9c1.8-0.1,3.3-0.8,4.3-2.1c0.8-1,1.2-2.2,1.5-3.8c0.9,0.5,1.5,1.2,1.9,2.1c0.6,1.4,0.6,3.7-1.3,5.6
	c-1.7,1.7-3.7,2.4-6.7,2.4c-3.3,0-5.9-1.1-7.5-3.2c-1.5-2-2.3-4.8-2.4-8.4c0-3.6,0.8-6.5,2.4-8.4c1.6-2.1,4.2-3.2,7.5-3.2
	c3.4,0,5.9,1.1,7.7,3.2c0.8,1,1.5,2.3,1.9,3.8l2.4-0.6c-0.5-1.9-1.3-3.5-2.4-4.8c-2.2-2.7-5.4-4.1-9.5-4.1l0,0
	c-4.1,0-7.3,1.4-9.4,4.1c-1.9,2.4-2.9,5.8-2.9,10l0,0l0,0c0,4.2,1,7.6,2.9,10c2.1,2.7,5.3,4.1,9.4,4.1l0,0c3.7,0,6.2-1,8.4-3.1
	c2.8-2.8,2.7-6.3,1.8-8.4C161.5,297.3,160.2,296.1,158.5,295.3 M152.2,301.2c-1.5,0.1-3.1-0.6-3.2-2.1c-0.1-1.1,0.8-2.3,3.3-2.5
	c0.3,0,0.6,0,0.9,0c0.9,0,1.8,0.1,2.5,0.3C155.4,300.5,153.7,301.1,152.2,301.2"/>
<g>
	<path class="st1" d="M36.3,55.8l1-7.7h-3l-1,7.7h-2.4l1-7.7H30v-2.2h2.1l0.8-5.8h-1.8V38h2.1l1-7.7h2.4l-1,7.7h3l1-7.7H42L41,38h2
		v2.2h-2.1L40,45.9h1.8v2.2h-2.1l-1,7.7C38.7,55.8,36.3,55.8,36.3,55.8z M37.6,45.9l0.8-5.8h-3l-0.8,5.8H37.6z"/>
	<path class="st1" d="M45.8,55.8V30.2h3.7v22h7.3v3.7h-11V55.8z"/>
	<path class="st1" d="M58.3,55.8L64,30.2h3.1l5.7,25.6h-3.7L68,50.3h-5l-1,5.5H58.3z M67.4,46.9l-1.8-9.3h-0.1l-1.8,9.3H67.4z"/>
	<path class="st1" d="M75.4,55.8V30.2h3.5l5.5,15.4h0.1V30.2h3.7v25.6h-3.5l-5.6-15.4H79v15.4C79,55.8,75.4,55.8,75.4,55.8z"/>
	<path class="st1" d="M92.4,55.8V30.2h5.4c2.1,0,3.7,0.6,4.8,1.7c1.1,1.2,1.6,2.8,1.6,4.9v12c0,2.4-0.6,4.2-1.7,5.3
		c-1.2,1.1-2.8,1.7-5,1.7C97.5,55.8,92.4,55.8,92.4,55.8z M96.1,33.7v18.7h1.7c1,0,1.8-0.3,2.2-0.8c0.4-0.5,0.6-1.3,0.6-2.4V36.8
		c0-1-0.2-1.8-0.6-2.3c-0.4-0.6-1.2-0.8-2.2-0.8H96.1z"/>
	<path class="st1" d="M120.5,37.6h-3.7v-0.8c0-0.8-0.2-1.6-0.6-2.2c-0.4-0.6-1.1-0.9-2-0.9c-0.5,0-0.9,0.1-1.2,0.3
		c-0.3,0.2-0.6,0.4-0.8,0.7c-0.2,0.3-0.3,0.7-0.4,1.1c-0.1,0.4-0.1,0.8-0.1,1.2c0,0.5,0,0.9,0.1,1.3c0,0.3,0.1,0.6,0.3,0.9
		c0.1,0.3,0.4,0.5,0.6,0.7c0.3,0.2,0.7,0.4,1.1,0.6l2.8,1.1c0.8,0.3,1.5,0.7,2,1.1c0.5,0.4,0.9,0.9,1.2,1.5c0.3,0.6,0.4,1.2,0.5,2
		c0.1,0.7,0.1,1.6,0.1,2.5c0,1.1-0.1,2.1-0.3,3c-0.2,0.9-0.6,1.7-1,2.4c-0.5,0.7-1.2,1.2-2,1.6c-0.8,0.4-1.8,0.6-3,0.6
		c-0.9,0-1.7-0.2-2.5-0.5s-1.4-0.7-2-1.3s-1-1.2-1.3-1.9s-0.5-1.5-0.5-2.4v-1.4h3.7V50c0,0.7,0.2,1.3,0.6,1.8s1.1,0.8,2,0.8
		c0.6,0,1.1-0.1,1.5-0.3c0.3-0.2,0.6-0.4,0.8-0.8c0.2-0.3,0.3-0.7,0.3-1.2s0.1-1,0.1-1.6c0-0.7,0-1.2-0.1-1.7c0-0.4-0.1-0.8-0.3-1
		c-0.2-0.3-0.4-0.5-0.7-0.6c-0.3-0.2-0.6-0.3-1.1-0.5l-2.6-1.1c-1.6-0.6-2.6-1.5-3.2-2.6c-0.5-1.1-0.8-2.4-0.8-4
		c0-1,0.1-1.9,0.4-2.7c0.3-0.9,0.7-1.6,1.2-2.2c0.5-0.6,1.1-1.1,1.9-1.5s1.7-0.6,2.8-0.6c0.9,0,1.7,0.2,2.5,0.5s1.4,0.8,2,1.3
		c1.1,1.2,1.7,2.5,1.7,4V37.6z"/>
	<path class="st1" d="M135.8,48.5v1.6c0,0.8-0.2,1.5-0.5,2.2s-0.7,1.3-1.2,1.9c-0.5,0.6-1.1,1-1.9,1.3c-0.7,0.3-1.5,0.5-2.3,0.5
		c-0.7,0-1.4-0.1-2.1-0.3c-0.7-0.2-1.4-0.5-1.9-1c-0.6-0.5-1.1-1.1-1.4-1.9c-0.4-0.8-0.6-1.7-0.6-2.9v-14c0-0.8,0.1-1.6,0.4-2.3
		s0.7-1.3,1.2-1.9c0.5-0.5,1.2-0.9,1.9-1.2c0.7-0.3,1.5-0.4,2.4-0.4c1.7,0,3.1,0.6,4.2,1.7c0.5,0.6,0.9,1.2,1.2,2s0.5,1.6,0.5,2.5
		v1.4H132v-1.2c0-0.7-0.2-1.3-0.6-1.9c-0.4-0.5-1-0.8-1.7-0.8c-0.9,0-1.5,0.3-1.8,0.8c-0.3,0.6-0.4,1.3-0.4,2.1v13.1
		c0,0.7,0.2,1.4,0.5,1.9c0.3,0.5,0.9,0.8,1.7,0.8c0.2,0,0.5,0,0.8-0.1s0.5-0.2,0.8-0.4c0.2-0.2,0.4-0.5,0.5-0.8s0.2-0.8,0.2-1.3
		v-1.3h3.8V48.5z"/>
	<path class="st1" d="M138,55.8l5.7-25.6h3.1l5.7,25.6h-3.7l-1.1-5.5h-5l-1.1,5.5H138z M147.1,46.9l-1.8-9.3h-0.1l-1.8,9.3H147.1z"
		/>
	<path class="st1" d="M155.2,55.8V30.2h5.5c1,0,1.9,0.1,2.7,0.4s1.5,0.7,2.1,1.4c0.6,0.7,1.1,1.5,1.3,2.4s0.4,2.1,0.4,3.7
		c0,1.2-0.1,2.1-0.2,2.9c-0.1,0.8-0.4,1.5-0.8,2.2c-0.5,0.8-1.2,1.5-2,2s-1.9,0.7-3.3,0.7H159v10h-3.8V55.8z M158.9,33.7v8.7h1.8
		c0.7,0,1.3-0.1,1.7-0.3s0.7-0.5,0.9-0.9s0.3-0.8,0.3-1.3s0.1-1.1,0.1-1.8c0-0.6,0-1.2,0-1.7s-0.1-1-0.3-1.4s-0.5-0.7-0.9-0.9
		s-0.9-0.3-1.7-0.3L158.9,33.7L158.9,33.7z"/>
	<path class="st1" d="M170.8,55.8V30.2h10.9v3.5h-7.3v7.5h6.3v3.5h-6.3v7.5h7.3v3.7h-10.9V55.8z"/>
	<path class="st1" d="M184.9,55.8V30.2h3.5l4.7,13.6h0.1l4.7-13.6h3.6v25.6h-3.7V40.3h-0.1l-3.6,11h-1.8l-3.6-11h-0.1v15.6h-3.7
		V55.8z"/>
	<path class="st1" d="M205.6,36.3c0-1,0.2-1.9,0.5-2.7s0.8-1.5,1.4-2c0.6-0.5,1.2-0.9,2-1.2c0.7-0.3,1.5-0.4,2.2-0.4
		s1.5,0.1,2.2,0.4s1.4,0.6,2,1.2c0.6,0.5,1,1.2,1.4,2s0.5,1.7,0.5,2.7v13.5c0,1.1-0.2,2-0.5,2.8c-0.4,0.8-0.8,1.4-1.4,1.9
		c-0.6,0.5-1.3,0.9-2,1.2s-1.5,0.4-2.2,0.4s-1.5-0.1-2.2-0.4c-0.7-0.3-1.4-0.7-2-1.2s-1.1-1.1-1.4-1.9c-0.4-0.8-0.5-1.7-0.5-2.8
		V36.3z M209.3,49.8c0,0.9,0.2,1.5,0.7,2c0.5,0.4,1.1,0.6,1.7,0.6c0.7,0,1.3-0.2,1.7-0.6c0.5-0.4,0.7-1.1,0.7-2V36.3
		c0-0.9-0.2-1.5-0.7-2c-0.5-0.4-1.1-0.6-1.7-0.6c-0.7,0-1.3,0.2-1.7,0.6c-0.5,0.4-0.7,1.1-0.7,2V49.8z"/>
	<path class="st1" d="M233.9,30.2l-5.3,25.6h-3.2l-5.2-25.6h3.9l2.9,17.9h0.1l3-17.9C230.1,30.2,233.9,30.2,233.9,30.2z"/>
	<path class="st1" d="M237,55.8V30.2h3.7v25.6C240.7,55.8,237,55.8,237,55.8z"/>
	<path class="st1" d="M245.2,55.8V30.2h10.9v3.5h-7.3v7.5h6.3v3.5h-6.3v7.5h7.3v3.7h-10.9V55.8z"/>
</g>
<g>
	<path class="st2" d="M150.3,547.4c1.4,0,2.6,1.2,2.6,2.6c0,1.5-1.1,2.6-2.6,2.6c-1.4,0-2.6-1.2-2.6-2.6
		C147.7,548.6,148.9,547.4,150.3,547.4L150.3,547.4z M150.3,547.8c-1.1,0-2.1,1-2.1,2.2s0.9,2.2,2.1,2.2c1.2,0,2.1-1,2.1-2.2
		C152.4,548.8,151.5,547.8,150.3,547.8L150.3,547.8z M149.8,551.5h-0.5v-2.9c0.2,0,0.5-0.1,0.8-0.1c0.4,0,0.7,0.1,0.9,0.2
		c0.2,0.1,0.3,0.3,0.3,0.6c0,0.4-0.3,0.6-0.6,0.7l0,0c0.3,0,0.4,0.3,0.5,0.7c0.1,0.5,0.1,0.6,0.2,0.7H151c-0.1-0.1-0.1-0.4-0.2-0.7
		c-0.1-0.4-0.3-0.5-0.6-0.5h-0.3L149.8,551.5L149.8,551.5z M149.8,549.9h0.3c0.4,0,0.7-0.1,0.7-0.5c0-0.3-0.2-0.5-0.7-0.5
		c-0.2,0-0.3,0-0.3,0V549.9z"/>
	<path class="st2" d="M139.5,546.3c-2.9,0-5.3,1.1-5.3,2.4c0,1.3,2.4,2.4,5.3,2.4c2.9,0,5.3-1.1,5.3-2.4
		C144.8,547.3,142.5,546.3,139.5,546.3 M144.5,548.5h-1c-0.1-0.6-0.5-1.1-1.1-1.5C143.6,547.4,144.3,547.9,144.5,548.5 M143.1,548.5
		h-1.2c0-0.7-0.4-1.3-0.9-1.7C142.2,547.1,143,547.7,143.1,548.5 M139.5,550.7c-1.1,0-2-0.9-2-2s0.9-2,2-2s2,0.9,2,2
		C141.6,549.8,140.7,550.7,139.5,550.7 M137.2,548.5H136c0.1-0.7,0.9-1.4,2.1-1.7C137.5,547.2,137.2,547.8,137.2,548.5 M136.7,547
		c-0.6,0.4-1,0.9-1.1,1.5h-1C134.7,547.9,135.5,547.4,136.7,547 M134.6,548.8h1c0.1,0.6,0.5,1.1,1.1,1.5
		C135.5,550,134.8,549.4,134.6,548.8 M135.9,548.8h1.2c0.1,0.7,0.4,1.3,0.9,1.7C136.9,550.2,136.1,549.6,135.9,548.8 M141.9,548.8
		h1.2c-0.1,0.7-0.9,1.4-2.1,1.7C141.5,550.1,141.9,549.5,141.9,548.8 M142.4,550.3c0.6-0.4,1-0.9,1.1-1.5h1
		C144.3,549.4,143.6,550,142.4,550.3"/>
	<path class="st2" d="M139.3,548.7c0-0.2,0.1-0.3,0.3-0.3s0.3,0.1,0.3,0.3s-0.1,0.3-0.3,0.3S139.3,548.8,139.3,548.7"/>
	<path class="st2" d="M139.5,547.4l0.4-0.4c-0.2-0.2-0.5-0.2-0.7,0L139.5,547.4z"/>
	<path class="st2" d="M139.8,547.9c0-0.3,0.2-0.5,0.5-0.5s0.5,0.2,0.5,0.5s-0.2,0.5-0.5,0.5C140.1,548.4,139.8,548.2,139.8,547.9"/>
	<path class="st2" d="M138.2,547.9c0-0.3,0.2-0.5,0.5-0.5s0.5,0.2,0.5,0.5s-0.2,0.5-0.5,0.5S138.2,548.2,138.2,547.9"/>
	<path class="st2" d="M138.2,549.5c0-0.3,0.2-0.5,0.5-0.5s0.5,0.2,0.5,0.5s-0.2,0.5-0.5,0.5C138.5,550,138.2,549.8,138.2,549.5"/>
	<path class="st2" d="M139.8,549.5c0-0.3,0.2-0.5,0.5-0.5s0.5,0.2,0.5,0.5s-0.2,0.5-0.5,0.5S139.8,549.8,139.8,549.5"/>
	<path class="st2" d="M139.5,549.9l-0.4,0.4c0.2,0.2,0.5,0.2,0.8,0L139.5,549.9z"/>
	<path class="st2" d="M140.7,548.7l0.4,0.4c0.2-0.2,0.2-0.5,0-0.8L140.7,548.7z"/>
	<path class="st2" d="M138.3,548.7l-0.4,0.4c-0.2-0.2-0.2-0.5,0-0.8L138.3,548.7z"/>
	<path class="st2" d="M30,553.1h116.7V503H30V553.1z M30.9,510.7h37.5v33.2H30.9V510.7z M132.6,552.1H30.9v-7.4h101.6v7.4H132.6z
		 M145.7,552.1h-12.2v-7.4h12.2V552.1z M145.7,543.8H69.4V504h76.3L145.7,543.8L145.7,543.8z M34.5,505c0.5,0,0.9,0,1.3,0.3
		c0.3,0.2,0.3,0.6,0.3,0.9c0,0.7-0.4,0.9-0.7,1.1l0.9,1.8h-1.1l-0.6-1.6H34v1.6h-1v-4L34.5,505L34.5,505z M34,505.6v1.1h0.5
		c0.5,0,0.6-0.2,0.6-0.6c0-0.6-0.5-0.6-0.7-0.6H34V505.6z M39.8,505v0.7H38v0.9h1.4v0.7H38v1h1.9v0.7H37v-4L39.8,505L39.8,505z
		 M42.4,506.2c-0.1-0.1-0.2-0.5-0.7-0.5c-0.4,0-0.5,0.2-0.5,0.4c0,0.3,0.3,0.4,0.8,0.5c0.5,0.2,1.3,0.4,1.3,1.2
		c0,0.7-0.6,1.3-1.7,1.3c-0.3,0-0.9-0.1-1.2-0.4S40,508.2,40,508l0.9-0.2c0.1,0.2,0.2,0.6,0.8,0.6c0.4,0,0.6-0.2,0.6-0.4
		c0-0.3-0.3-0.4-0.7-0.5c-0.7-0.2-1.4-0.4-1.4-1.3c0-0.6,0.5-1.2,1.5-1.2c1.2,0,1.4,0.7,1.5,0.9L42.4,506.2z M46.5,505v0.8h-1v3.3
		h-1v-3.3h-1V505H46.5z M48.4,505c0.5,0,0.9,0,1.3,0.3c0.2,0.2,0.3,0.6,0.3,0.9c0,0.7-0.4,0.9-0.7,1.1l0.9,1.8h-1.1l-0.6-1.6H48v1.6
		h-1v-4L48.4,505L48.4,505z M47.9,505.6v1.1h0.5c0.5,0,0.6-0.2,0.6-0.6c0-0.6-0.5-0.6-0.7-0.6h-0.4V505.6z M51.9,509h-1v-4h1V509z
		 M56.1,507.6c-0.1,0.8-0.6,1.5-1.7,1.5c-1.5,0-1.8-1.2-1.8-2.1c0-0.7,0.2-2.1,1.8-2.1c0.7,0,1.1,0.3,1.3,0.5c0.3,0.4,0.3,0.8,0.3,1
		l-1,0.1c0-0.3-0.1-0.9-0.7-0.9c-0.6,0-0.7,0.6-0.7,1.4c0,0.7,0.1,1.3,0.7,1.3c0.6,0,0.6-0.6,0.7-0.8L56.1,507.6z M59.2,505v0.8h-1
		v3.3h-1v-3.3h-1V505H59.2z M62.5,505v0.7h-1.9v0.9H62v0.7h-1.4v1h1.9v0.7h-2.9v-4L62.5,505L62.5,505z M63,505h1.1
		c0.7,0,2.2,0,2.2,2c0,0.8-0.3,1.4-0.8,1.8c-0.4,0.3-0.9,0.3-1.3,0.3H63V505z M64.1,508.3h0.2c0.4,0,1,0,1-1.4c0-1.2-0.6-1.3-1-1.3
		h-0.2V508.3z"/>
	<path class="st2" d="M33.1,546.4v2.2c0,0.6,0,1,0.4,1c0.2,0,0.3-0.1,0.3-0.3c0.1-0.2,0.1-0.3,0.1-0.8v-2.2h0.5v2.2
		c0,0.7,0,1.2-0.4,1.5c-0.1,0.1-0.3,0.2-0.6,0.2c-1,0-1-0.9-1-1.7v-2.2L33.1,546.4L33.1,546.4z"/>
	<path class="st2" d="M35.5,547.4v0.4c0.1-0.2,0.2-0.4,0.5-0.4c0.1,0,0.3,0,0.5,0.3c0.1,0.2,0.1,0.5,0.1,0.7v1.9H36v-1.9
		c0-0.3,0-0.4-0.2-0.4c-0.3,0-0.3,0.3-0.3,0.6v1.7h-0.6v-2.8L35.5,547.4L35.5,547.4z"/>
	<path class="st2" d="M38.7,546.4v3.8h-0.5v-0.5c-0.1,0.2-0.2,0.5-0.5,0.5c-0.6,0-0.7-0.9-0.7-1.4c0-0.2,0-1.5,0.7-1.5
		c0.3,0,0.4,0.2,0.4,0.3v-1.3h0.6V546.4z M38.1,548.6c0-0.3,0-0.7-0.3-0.7c-0.2,0-0.3,0.4-0.3,0.8c0,0.6,0,1,0.3,1s0.3-0.4,0.3-0.6
		V548.6z"/>
	<path class="st2" d="M39.6,548.9c0,0.4,0,0.8,0.3,0.8s0.3-0.3,0.3-0.5h0.5c0,0.3-0.2,1-0.8,1c-0.7,0-0.9-0.7-0.9-1.4
		c0-0.2,0-0.6,0.2-1s0.4-0.5,0.7-0.5c0.4,0,0.6,0.3,0.7,0.5c0.2,0.4,0.2,0.8,0.2,1.1L39.6,548.9L39.6,548.9z M40.2,548.5
		c0-0.2,0-0.6-0.3-0.6s-0.3,0.4-0.3,0.6H40.2z"/>
	<path class="st2" d="M41.6,547.4v0.7c0.1-0.2,0.2-0.7,0.5-0.7h0.1v0.8c-0.1,0-0.1,0-0.1,0c-0.4,0-0.4,0.7-0.4,0.9v1.2h-0.6v-2.8
		h0.5V547.4z"/>
	<path class="st2" d="M44.9,549.6h0.5v0.6h-1.6v-0.6h0.5v-2.3c-0.1,0.2-0.2,0.3-0.5,0.5V547c0.3-0.2,0.5-0.5,0.6-0.7h0.5V549.6z"/>
	<path class="st2" d="M45.9,546.4h1.7v0.6c-0.3,0.5-0.7,1.3-0.7,3.2h-0.7c0-0.3,0-0.9,0.2-1.7s0.5-1.2,0.6-1.4h-1.2L45.9,546.4z"/>
	<path class="st2" d="M50.1,546.4c0.3,0,0.6,0,0.8,0.3c0.2,0.2,0.2,0.5,0.2,0.8c0,0.7-0.3,0.9-0.4,1l0.5,1.7h-0.7l-0.4-1.5h-0.3v1.5
		h-0.6v-3.8H50.1z M49.8,547v1.1h0.3c0.3,0,0.4-0.2,0.4-0.6c0-0.5-0.3-0.5-0.4-0.5H49.8z"/>
	<path class="st2" d="M52,548.9c0,0.4,0,0.8,0.3,0.8s0.3-0.3,0.3-0.5h0.5c0,0.3-0.2,1-0.8,1c-0.7,0-0.9-0.7-0.9-1.4
		c0-0.2,0-0.6,0.2-1s0.4-0.5,0.7-0.5c0.4,0,0.6,0.3,0.7,0.5c0.2,0.4,0.2,0.8,0.2,1.1L52,548.9L52,548.9z M52.6,548.5
		c0-0.2,0-0.6-0.3-0.6s-0.3,0.4-0.3,0.6H52.6z"/>
	<path class="st2" d="M55.1,547.4c0,0.2,0,0.4,0,0.7v3.1h-0.6v-1.3c-0.1,0.1-0.2,0.3-0.4,0.3c-0.4,0-0.7-0.5-0.7-1.4
		c0-0.4,0-1.5,0.7-1.5c0.3,0,0.4,0.3,0.5,0.4c0.1-0.1,0.1-0.2,0.2-0.4h0.3V547.4z M54.5,548.5c0-0.5-0.1-0.6-0.3-0.6
		s-0.3,0.2-0.3,0.9c0,0.6,0,1,0.3,1c0.2,0,0.3-0.4,0.3-0.8V548.5z"/>
	<path class="st2" d="M56.2,547.4v1.8c0,0.3,0,0.5,0.2,0.5c0.3,0,0.3-0.2,0.3-0.8v-1.5h0.6v2.8h-0.6v-0.4c-0.1,0.2-0.2,0.4-0.6,0.4
		c-0.5,0-0.5-0.5-0.5-1.1v-1.9h0.6V547.4z"/>
	<path class="st2" d="M57.7,546.4h0.6v0.8h-0.6V546.4z M58.3,550.2h-0.6v-2.8h0.6V550.2z"/>
	<path class="st2" d="M59.2,547.4v0.7c0.1-0.2,0.2-0.7,0.5-0.7h0.1v0.8c-0.1,0-0.1,0-0.1,0c-0.4,0-0.4,0.7-0.4,0.9v1.2h-0.6v-2.8
		h0.5V547.4z"/>
	<path class="st2" d="M60.6,548.9c0,0.4,0,0.8,0.3,0.8s0.3-0.3,0.3-0.5h0.5c0,0.3-0.2,1-0.8,1c-0.7,0-0.9-0.7-0.9-1.4
		c0-0.2,0-0.6,0.2-1s0.4-0.5,0.7-0.5c0.4,0,0.6,0.3,0.7,0.5c0.2,0.4,0.2,0.8,0.2,1.1L60.6,548.9L60.6,548.9z M61.1,548.5
		c0-0.2,0-0.6-0.3-0.6s-0.3,0.4-0.3,0.6H61.1z"/>
	<path class="st2" d="M63.1,548.2c0-0.1-0.1-0.4-0.3-0.4c-0.1,0-0.2,0.1-0.2,0.2c0,0.2,0.1,0.3,0.4,0.4c0.3,0.1,0.6,0.3,0.6,0.9
		c0,0.4-0.2,0.9-0.8,0.9c-0.7,0-0.8-0.6-0.8-0.8l0.5-0.1c0,0.1,0.1,0.4,0.3,0.4c0.1,0,0.2,0,0.2-0.3c0-0.2-0.1-0.3-0.3-0.4
		c-0.2-0.1-0.6-0.3-0.6-0.9s0.4-0.9,0.8-0.9c0.4,0,0.6,0.3,0.7,0.7L63.1,548.2z"/>
	<path class="st2" d="M66,546.4l0.8,3.8h-0.6l-0.1-0.8h-0.8l-0.1,0.8h-0.6l0.9-3.8H66z M65.9,548.8l-0.3-1.6l-0.3,1.6H65.9z"/>
	<path class="st2" d="M68,548.5c0-0.4-0.1-0.5-0.2-0.5c-0.2,0-0.3,0.2-0.3,0.8c0,0.4,0,0.9,0.3,0.9c0.2,0,0.2-0.2,0.2-0.5h0.6
		c0,0.3-0.1,1.1-0.8,1.1c-0.7,0-0.8-0.9-0.8-1.5c0-0.8,0.2-1.5,0.9-1.5c0.2,0,0.4,0.1,0.6,0.3c0.2,0.3,0.2,0.6,0.2,0.8L68,548.5z"/>
	<path class="st2" d="M70,548.5c0-0.4-0.1-0.5-0.2-0.5c-0.2,0-0.3,0.2-0.3,0.8c0,0.4,0,0.9,0.3,0.9c0.2,0,0.2-0.2,0.2-0.5h0.6
		c0,0.3-0.1,1.1-0.8,1.1c-0.7,0-0.8-0.9-0.8-1.5c0-0.8,0.2-1.5,0.9-1.5c0.2,0,0.4,0.1,0.6,0.3c0.2,0.3,0.2,0.6,0.2,0.8L70,548.5z"/>
	<path class="st2" d="M72.5,548.8c0,0.9-0.2,1.5-0.9,1.5c-0.6,0-0.9-0.6-0.9-1.5s0.2-1.5,0.9-1.5S72.5,547.9,72.5,548.8 M71.6,547.9
		c-0.2,0-0.3,0.2-0.3,0.9c0,0.8,0.1,0.9,0.3,0.9c0.2,0,0.3-0.2,0.3-0.9C71.9,548.1,71.8,547.9,71.6,547.9L71.6,547.9z"/>
	<path class="st2" d="M72.9,547.4h0.6v0.4c0.1-0.2,0.2-0.4,0.5-0.4c0.4,0,0.4,0.3,0.5,0.4c0.1-0.2,0.2-0.4,0.5-0.4
		c0.5,0,0.5,0.5,0.5,1v1.9h-0.6v-1.8c0-0.3,0-0.5-0.2-0.5s-0.2,0.2-0.2,0.6v1.7h-0.6v-1.8c0-0.3,0-0.5-0.2-0.5s-0.2,0.2-0.2,0.6v1.7
		h-0.6L72.9,547.4L72.9,547.4z"/>
	<path class="st2" d="M76.5,547.4v0.4c0.1-0.2,0.2-0.5,0.5-0.5c0.1,0,0.3,0.1,0.4,0.2c0.2,0.3,0.3,0.7,0.3,1.2c0,0.4,0,1.5-0.7,1.5
		c-0.2,0-0.3-0.2-0.4-0.2v1.2H76v-3.8L76.5,547.4L76.5,547.4z M76.5,549.1c0,0.4,0,0.7,0.2,0.7s0.3-0.4,0.3-1c0-0.5,0-0.9-0.2-0.9
		c-0.3,0-0.3,0.4-0.3,0.7V549.1z"/>
	<path class="st2" d="M78,548.2c0-0.2,0.1-0.5,0.4-0.7c0.2-0.1,0.3-0.2,0.5-0.2s0.5,0.1,0.6,0.3s0.1,0.5,0.1,0.8v1.1
		c0,0.5,0,0.5,0,0.6h-0.5c0-0.1,0-0.2,0-0.4c-0.1,0.2-0.2,0.5-0.6,0.5c-0.3,0-0.6-0.2-0.6-0.8c0-0.8,0.5-1,1.1-1v-0.1
		c0-0.2,0-0.5-0.2-0.5s-0.2,0.2-0.3,0.4L78,548.2z M79,548.9c-0.3,0.1-0.5,0.2-0.5,0.5c0,0.2,0.1,0.4,0.2,0.4s0.1,0,0.2-0.2
		s0.1-0.3,0.1-0.6C79,549,79,548.9,79,548.9z"/>
	<path class="st2" d="M80.6,547.4v0.4c0.1-0.2,0.2-0.4,0.5-0.4c0.1,0,0.3,0,0.5,0.3c0.1,0.2,0.1,0.5,0.1,0.7v1.9h-0.6v-1.9
		c0-0.3,0-0.4-0.2-0.4c-0.3,0-0.3,0.3-0.3,0.6v1.7H80v-2.8L80.6,547.4L80.6,547.4z"/>
	<path class="st2" d="M82.4,547.4l0.3,1.7l0.3-1.7h0.5l-0.6,2.9c-0.1,0.5-0.2,1-0.7,1c-0.1,0-0.2,0-0.3,0v-0.6c0.1,0,0.1,0,0.2,0
		c0.2,0,0.3-0.1,0.4-0.4l-0.6-2.8h0.5V547.4z"/>
	<path class="st2" d="M83.6,546.4h0.6v0.8h-0.6V546.4z M84.2,550.2h-0.6v-2.8h0.6V550.2z"/>
	<path class="st2" d="M85.3,547.4v0.4c0.1-0.2,0.2-0.4,0.5-0.4c0.1,0,0.3,0,0.5,0.3c0.1,0.2,0.1,0.5,0.1,0.7v1.9h-0.6v-1.9
		c0-0.3,0-0.4-0.2-0.4c-0.3,0-0.3,0.3-0.3,0.6v1.7h-0.6v-2.8L85.3,547.4L85.3,547.4z"/>
	<path class="st2" d="M88.6,547.4L88.6,547.4c-0.2,0-0.3,0-0.3,0.3c0.2,0.2,0.2,0.5,0.2,0.6c0,0.6-0.4,0.9-0.8,0.9
		c-0.1,0-0.2,0-0.3-0.1c-0.1,0.1-0.1,0.2-0.1,0.2c0,0.2,0.1,0.2,0.4,0.2c0.5,0,0.6,0,0.8,0.2c0.2,0.1,0.2,0.4,0.2,0.6
		c0,0.9-0.7,0.9-1,0.9c-0.2,0-0.9,0-0.9-0.7c0-0.4,0.2-0.5,0.3-0.5c-0.1,0-0.3-0.2-0.3-0.5s0.2-0.5,0.4-0.6
		c-0.1-0.1-0.3-0.2-0.3-0.7c0-0.7,0.4-0.9,0.8-0.9c0.2,0,0.4,0.1,0.5,0.1c0-0.3,0.1-0.6,0.4-0.6c0.1,0,0.1,0,0.2,0v0.6H88.6z
		 M87.1,550.5c0,0.2,0.2,0.3,0.5,0.3s0.4-0.1,0.4-0.3s-0.1-0.3-0.2-0.3s-0.4,0-0.5-0.1C87.2,550.2,87.1,550.2,87.1,550.5
		 M87.4,548.2c0,0.2,0,0.4,0.2,0.4s0.2-0.2,0.2-0.5c0-0.4-0.1-0.5-0.2-0.5C87.4,547.7,87.4,547.9,87.4,548.2"/>
	<path class="st2" d="M90.8,546.4c0.3,0,0.6,0,0.8,0.3c0.2,0.3,0.2,0.6,0.2,0.9c0,0.4-0.1,0.8-0.3,1c-0.2,0.2-0.6,0.2-0.7,0.2h-0.2
		v1.4H90v-3.8L90.8,546.4L90.8,546.4z M90.6,547v1.1h0.2c0.2,0,0.4-0.1,0.4-0.6c0-0.6-0.3-0.6-0.4-0.6L90.6,547L90.6,547z"/>
	<path class="st2" d="M92,548.2c0-0.2,0.1-0.5,0.4-0.7c0.2-0.1,0.3-0.2,0.5-0.2s0.5,0.1,0.6,0.3s0.1,0.5,0.1,0.8v1.1
		c0,0.5,0,0.5,0,0.6h-0.5c0-0.1,0-0.2,0-0.4c-0.1,0.2-0.2,0.5-0.6,0.5c-0.3,0-0.6-0.2-0.6-0.8c0-0.8,0.5-1,1.1-1v-0.1
		c0-0.2,0-0.5-0.2-0.5s-0.2,0.2-0.3,0.4L92,548.2z M93,548.9c-0.3,0.1-0.5,0.2-0.5,0.5c0,0.2,0.1,0.4,0.2,0.4s0.1,0,0.2-0.2
		s0.1-0.3,0.1-0.6C93,549,93,548.9,93,548.9z"/>
	<path class="st2" d="M94.6,547.4v0.7c0.1-0.2,0.2-0.7,0.5-0.7h0.1v0.8c-0.1,0-0.1,0-0.1,0c-0.4,0-0.4,0.7-0.4,0.9v1.2h-0.6v-2.8
		h0.5V547.4z"/>
	<path class="st2" d="M95.9,548.9c0,0.4,0,0.8,0.3,0.8s0.3-0.3,0.3-0.5H97c0,0.3-0.2,1-0.8,1c-0.7,0-0.9-0.7-0.9-1.4
		c0-0.2,0-0.6,0.2-1s0.4-0.5,0.7-0.5c0.4,0,0.6,0.3,0.7,0.5c0.2,0.4,0.2,0.8,0.2,1.1L95.9,548.9L95.9,548.9z M96.5,548.5
		c0-0.2,0-0.6-0.3-0.6s-0.3,0.4-0.3,0.6H96.5z"/>
	<path class="st2" d="M98,547.4v0.4c0.1-0.2,0.2-0.4,0.5-0.4c0.1,0,0.3,0,0.5,0.3c0.1,0.2,0.1,0.5,0.1,0.7v1.9h-0.6v-1.9
		c0-0.3,0-0.4-0.2-0.4c-0.3,0-0.3,0.3-0.3,0.6v1.7h-0.6v-2.8L98,547.4L98,547.4z"/>
	<path class="st2" d="M100.2,546.5v0.9h0.4v0.6h-0.4v1c0,0.5,0,0.6,0.4,0.6v0.6c-0.1,0-0.2,0.1-0.4,0.1c-0.2,0-0.4-0.1-0.5-0.3
		s-0.1-0.5-0.1-0.9V548h-0.2v-0.6h0.3v-0.8L100.2,546.5z"/>
	<path class="st2" d="M103.6,548.8c0,0.9-0.2,1.5-0.9,1.5c-0.6,0-0.9-0.6-0.9-1.5s0.2-1.5,0.9-1.5S103.6,547.9,103.6,548.8
		 M102.7,547.9c-0.2,0-0.3,0.2-0.3,0.9c0,0.8,0.1,0.9,0.3,0.9c0.2,0,0.3-0.2,0.3-0.9C103,548.1,102.9,547.9,102.7,547.9L102.7,547.9
		z"/>
	<path class="st2" d="M104.5,547.4v0.7c0.1-0.2,0.2-0.7,0.5-0.7h0.1v0.8c-0.1,0-0.1,0-0.1,0c-0.4,0-0.4,0.7-0.4,0.9v1.2H104v-2.8
		h0.5V547.4z"/>
	<path class="st2" d="M107.4,546.4l0.8,3.8h-0.6l-0.1-0.8h-0.8l-0.1,0.8H106l0.9-3.8H107.4z M107.3,548.8l-0.3-1.6l-0.3,1.6H107.3z"
		/>
	<path class="st2" d="M110.1,546.4v3.8h-0.6v-0.5c-0.1,0.2-0.2,0.5-0.5,0.5c-0.6,0-0.7-0.9-0.7-1.4c0-0.2,0-1.5,0.7-1.5
		c0.3,0,0.4,0.2,0.4,0.3v-1.3h0.7V546.4z M109.5,548.6c0-0.3,0-0.7-0.3-0.7c-0.2,0-0.3,0.4-0.3,0.8c0,0.6,0,1,0.3,1s0.3-0.4,0.3-0.6
		V548.6z"/>
	<path class="st2" d="M111.1,547.4v1.8c0,0.3,0,0.5,0.2,0.5c0.3,0,0.3-0.2,0.3-0.8v-1.5h0.6v2.8h-0.6v-0.4c-0.1,0.2-0.2,0.4-0.6,0.4
		c-0.5,0-0.5-0.5-0.5-1.1v-1.9h0.6V547.4z"/>
	<rect x="112.6" y="546.4" class="st2" width="0.6" height="3.8"/>
	<path class="st2" d="M114.3,546.5v0.9h0.4v0.6h-0.4v1c0,0.5,0,0.6,0.4,0.6v0.6c-0.1,0-0.2,0.1-0.4,0.1c-0.2,0-0.4-0.1-0.5-0.3
		s-0.1-0.5-0.1-0.9V548h-0.2v-0.6h0.3v-0.8L114.3,546.5z"/>
	<path class="st2" d="M118.2,548.2v2.1h-0.3l-0.1-0.4c-0.1,0.1-0.2,0.5-0.7,0.5c-0.7,0-1.1-0.9-1.1-1.9c0-0.6,0.1-2,1.1-2
		c0.8,0,0.9,0.8,1,1.3l-0.6,0.1c0-0.3-0.1-0.8-0.4-0.8c-0.4,0-0.5,0.5-0.5,1.3c0,0.7,0.1,1.3,0.5,1.3s0.4-0.5,0.4-0.8h-0.4v-0.7
		L118.2,548.2L118.2,548.2z"/>
	<path class="st2" d="M119.2,547.4v1.8c0,0.3,0,0.5,0.2,0.5c0.3,0,0.3-0.2,0.3-0.8v-1.5h0.6v2.8h-0.6v-0.4c-0.1,0.2-0.2,0.4-0.6,0.4
		c-0.5,0-0.5-0.5-0.5-1.1v-1.9h0.6V547.4z"/>
	<path class="st2" d="M120.8,548.2c0-0.2,0.1-0.5,0.4-0.7c0.2-0.1,0.3-0.2,0.5-0.2s0.5,0.1,0.6,0.3s0.1,0.5,0.1,0.8v1.1
		c0,0.5,0,0.5,0,0.6h-0.5c0-0.1,0-0.2,0-0.4c-0.1,0.2-0.2,0.5-0.6,0.5c-0.3,0-0.6-0.2-0.6-0.8c0-0.8,0.5-1,1.1-1v-0.1
		c0-0.2,0-0.5-0.2-0.5s-0.2,0.2-0.3,0.4L120.8,548.2z M121.8,548.9c-0.3,0.1-0.5,0.2-0.5,0.5c0,0.2,0.1,0.4,0.2,0.4s0.1,0,0.2-0.2
		s0.1-0.3,0.1-0.6C121.8,549,121.8,548.9,121.8,548.9z"/>
	<path class="st2" d="M123.4,547.4v0.7c0.1-0.2,0.2-0.7,0.5-0.7h0.1v0.8c-0.1,0-0.1,0-0.1,0c-0.4,0-0.4,0.7-0.4,0.9v1.2h-0.6v-2.8
		h0.5V547.4z"/>
	<path class="st2" d="M125.8,546.4v3.8h-0.6v-0.5c-0.1,0.2-0.2,0.5-0.5,0.5c-0.6,0-0.7-0.9-0.7-1.4c0-0.2,0-1.5,0.7-1.5
		c0.3,0,0.4,0.2,0.4,0.3v-1.3h0.7V546.4z M125.2,548.6c0-0.3,0-0.7-0.3-0.7c-0.2,0-0.3,0.4-0.3,0.8c0,0.6,0,1,0.3,1s0.3-0.4,0.3-0.6
		V548.6z"/>
	<path class="st2" d="M126.3,546.4h0.6v0.8h-0.6V546.4z M126.8,550.2h-0.6v-2.8h0.6V550.2z"/>
	<path class="st2" d="M127.3,548.2c0-0.2,0.1-0.5,0.4-0.7c0.2-0.1,0.3-0.2,0.5-0.2c0.2,0,0.5,0.1,0.6,0.3s0.1,0.5,0.1,0.8v1.1
		c0,0.5,0,0.5,0,0.6h-0.5c0-0.1,0-0.2,0-0.4c-0.1,0.2-0.2,0.5-0.6,0.5c-0.3,0-0.6-0.2-0.6-0.8c0-0.8,0.5-1,1.1-1v-0.1
		c0-0.2,0-0.5-0.2-0.5s-0.2,0.2-0.3,0.4L127.3,548.2z M128.3,548.9c-0.3,0.1-0.5,0.2-0.5,0.5c0,0.2,0.1,0.4,0.2,0.4
		c0.1,0,0.1,0,0.2-0.2c0.1-0.2,0.1-0.3,0.1-0.6V548.9z"/>
	<path class="st2" d="M129.9,547.4v0.4c0.1-0.2,0.2-0.4,0.5-0.4c0.1,0,0.3,0,0.5,0.3c0.1,0.2,0.1,0.5,0.1,0.7v1.9h-0.6v-1.9
		c0-0.3,0-0.4-0.2-0.4c-0.3,0-0.3,0.3-0.3,0.6v1.7h-0.6v-2.8L129.9,547.4L129.9,547.4z"/>
	<path class="st2" d="M49.1,530.2c0.6,0.8,1,1.4,1,1.4c0.8,1.1,4.6,7.4,6.3,7.6h8.5c1.4,0,1.7-1.9,0.1-2.3c-0.7-0.2-2.8-0.4-5.6-3.9
		c-1.6-2-3.1-3.9-3.8-4.8c3.9,0,5.3-1.2,5.3-5.6c0-7.7-3-6.4-11.5-6.6c0,0-13.2,0-13.5-0.1c-2.9-0.1-3.7,2.3,0.2,2.5
		c2,0.1,3.1,1.2,3.2,4.2v10.5c-0.1,3-0.2,3.7-3.8,4c-2,0-2.2,2.1,0.5,2.1c0.4,0,13.1,0,13.1,0c2.9,0.1,2.6-2,0.7-2.1
		c-2.5-0.2-3.7,0.2-3.8-3c0-0.3-0.1-2.3-0.1-2.9C46,528.5,48.1,528.7,49.1,530.2 M53.8,522.6c-0.1,3.9-0.8,3.6-4.4,3.7
		c-0.4,0-2.5,0-3.3,0c0-1.2,0-6.3,0-6.3c0-0.8,0.5-1.4,1.4-1.5C53.7,518.3,53.9,519,53.8,522.6"/>
	<polygon class="st2" points="72.1,522.5 72.1,515 73.6,515 73.6,521.3 75.4,521.3 75.4,522.5 	"/>
	<path class="st2" d="M75.7,522.5l1.1-7.5h1.9l1,7.5h-1.3l-0.2-1.6H77l-0.2,1.6H75.7z M77.2,519.7H78l-0.4-3.3L77.2,519.7z"/>
	<path class="st2" d="M80.2,522.5V515h1.3l0.9,2.7c0.1,0.3,0.2,0.6,0.3,0.8c0.1,0.2,0.1,0.4,0.1,0.6V515H84v7.5h-1.1l-1-2.9
		c-0.1-0.3-0.2-0.6-0.3-0.9c-0.1-0.2-0.1-0.5-0.2-0.7v4.4h-1.2V522.5z"/>
	<path class="st2" d="M87.9,522.1c-0.2,0.2-0.4,0.4-0.6,0.5s-0.4,0.2-0.7,0.2c-0.6,0-1.1-0.3-1.4-0.9c-0.3-0.6-0.5-1.5-0.5-2.7
		c0-1.4,0.2-2.5,0.5-3.2s0.9-1,1.6-1c0.6,0,1.1,0.2,1.4,0.6c0.3,0.4,0.4,1.1,0.4,1.9c0,0,0,0.1,0,0.2c0,0.1,0,0.1,0,0.2h-1.4
		c0,0,0-0.1,0-0.2c0-0.1,0-0.1,0-0.2c0-0.5,0-0.8-0.1-1s-0.2-0.3-0.4-0.3c-0.2,0-0.4,0.2-0.4,0.5c-0.1,0.3-0.1,1.2-0.1,2.5
		c0,1,0,1.6,0.1,1.9c0.1,0.3,0.2,0.5,0.5,0.5c0.2,0,0.4-0.1,0.5-0.3s0.1-0.5,0.1-0.9h-0.5v-1.3h1.8v3.6h-0.6L87.9,522.1z"/>
	<path class="st2" d="M89.5,520.8V515H91v5.8c0,0.2,0,0.4,0.1,0.5s0.2,0.2,0.4,0.2c0.2,0,0.3,0,0.3-0.1c0.1-0.1,0.1-0.2,0.1-0.5V515
		h1.3v5.9c0,0.6-0.1,1.1-0.4,1.4c-0.3,0.3-0.7,0.5-1.3,0.5c-0.6,0-1.1-0.1-1.4-0.4S89.5,521.5,89.5,520.8"/>
	<path class="st2" d="M93.6,522.5l1.1-7.5h1.9l1,7.5h-1.3l-0.2-1.6H95l-0.2,1.6H93.6z M95.1,519.7h0.8l-0.4-3.3L95.1,519.7z"/>
	<path class="st2" d="M101,522.1c-0.2,0.2-0.4,0.4-0.6,0.5s-0.4,0.2-0.7,0.2c-0.6,0-1.1-0.3-1.4-0.9c-0.3-0.6-0.5-1.5-0.5-2.7
		c0-1.4,0.2-2.5,0.5-3.2s0.9-1,1.6-1c0.6,0,1.1,0.2,1.4,0.6c0.3,0.4,0.4,1.1,0.4,1.9c0,0,0,0.1,0,0.2c0,0.1,0,0.1,0,0.2h-1.4
		c0,0,0-0.1,0-0.2c0-0.1,0-0.1,0-0.2c0-0.5,0-0.8-0.1-1s-0.2-0.3-0.4-0.3c-0.2,0-0.4,0.2-0.4,0.5c-0.1,0.3-0.1,1.2-0.1,2.5
		c0,1,0,1.6,0.1,1.9c0.1,0.3,0.2,0.5,0.5,0.5c0.2,0,0.4-0.1,0.5-0.3s0.1-0.5,0.1-0.9H100v-1.3h1.8v3.6h-0.6L101,522.1z"/>
	<polygon class="st2" points="102.7,522.5 102.7,515 105.9,515 105.9,516.2 104.1,516.2 104.1,518 105.5,518 105.5,519.2 
		104.1,519.2 104.1,521.3 106,521.3 106,522.5 	"/>
	<path class="st2" d="M108.3,522.5l1.1-7.5h1.9l1,7.5H111l-0.2-1.6h-1.1l-0.2,1.6H108.3z M109.8,519.7h0.8l-0.4-3.3L109.8,519.7z"/>
	<path class="st2" d="M112.8,522.5V515h1.3l0.9,2.7c0.1,0.3,0.2,0.6,0.3,0.8c0.1,0.2,0.1,0.4,0.1,0.6V515h1.2v7.5h-1.1l-1-2.9
		c-0.1-0.3-0.2-0.6-0.3-0.9c-0.1-0.2-0.1-0.5-0.2-0.7v4.4h-1.2V522.5z"/>
	<path class="st2" d="M117.5,522.5V515h1.6c0.9,0,1.5,0.3,1.8,0.8c0.4,0.6,0.5,1.5,0.5,2.9s-0.2,2.4-0.5,2.9s-1,0.8-1.8,0.8
		L117.5,522.5L117.5,522.5z M119,516.2v5c0,0,0,0,0.1,0h0.1c0.3,0,0.5-0.1,0.6-0.4c0.1-0.3,0.2-0.9,0.2-1.9c0-0.8,0-1.4,0-1.7
		s-0.1-0.5-0.1-0.6c-0.1-0.1-0.2-0.2-0.3-0.2C119.4,516.3,119.2,516.2,119,516.2L119,516.2z"/>
	<path class="st2" d="M124.4,522.5V515h1.8c0.7,0,1.2,0.1,1.5,0.4c0.3,0.3,0.5,0.7,0.5,1.3c0,0.4-0.1,0.8-0.3,1.1s-0.5,0.5-0.9,0.6
		c0.4,0.1,0.8,0.3,1,0.6c0.2,0.3,0.3,0.7,0.3,1.2c0,0.7-0.2,1.3-0.5,1.7s-0.9,0.6-1.6,0.6L124.4,522.5L124.4,522.5z M125.7,517.9
		L125.7,517.9c0.4,0,0.5-0.1,0.7-0.2c0.1-0.1,0.2-0.3,0.2-0.6s-0.1-0.5-0.2-0.7c-0.1-0.1-0.3-0.2-0.5-0.2h-0.1c0,0,0,0-0.1,0V517.9z
		 M125.7,521.3C125.8,521.3,125.8,521.3,125.7,521.3C125.8,521.3,125.8,521.3,125.7,521.3c0.4,0,0.6-0.1,0.7-0.3s0.2-0.4,0.2-0.8
		c0-0.4-0.1-0.7-0.2-0.9s-0.3-0.3-0.6-0.3h-0.1h-0.1L125.7,521.3L125.7,521.3z"/>
	<path class="st2" d="M128.9,522.5V515h1.8c0.7,0,1.3,0.2,1.6,0.5s0.5,0.9,0.5,1.6c0,0.4-0.1,0.8-0.2,1.1c-0.1,0.3-0.3,0.6-0.6,0.8
		l0.8,3.6h-1.4l-0.7-3.3h-0.4v3.3L128.9,522.5L128.9,522.5z M130.7,516.1h-0.3v2.1h0.1c0.3,0,0.5-0.1,0.7-0.3
		c0.1-0.2,0.2-0.4,0.2-0.8c0-0.4-0.1-0.6-0.2-0.8C131.1,516.2,130.9,516.1,130.7,516.1"/>
	<rect x="133.6" y="515" class="st2" width="1.5" height="7.5"/>
	<polygon class="st2" points="136,522.5 136,515 139.2,515 139.2,516.2 137.4,516.2 137.4,518 138.8,518 138.8,519.2 137.4,519.2 
		137.4,521.3 139.3,521.3 139.3,522.5 	"/>
	<polygon class="st2" points="139.9,522.5 139.9,515 143.1,515 143.1,516.2 141.3,516.2 141.3,518 142.7,518 142.7,519.2 
		141.3,519.2 141.3,522.5 	"/>
	<polygon class="st2" points="72.8,532.5 71.7,525 73.1,525 73.7,530.1 74.4,525 75.6,525 74.5,532.5 	"/>
	<rect x="76.1" y="525" class="st2" width="1.5" height="7.5"/>
	<path class="st2" d="M78.4,528.7c0-1.4,0.2-2.4,0.5-3s0.9-0.9,1.6-0.9s1.2,0.3,1.6,0.9c0.3,0.6,0.5,1.6,0.5,3s-0.2,2.4-0.5,3
		s-0.8,0.9-1.6,0.9c-0.7,0-1.3-0.3-1.6-0.9C78.5,531.1,78.4,530.1,78.4,528.7 M80.5,531.4c0.2,0,0.3-0.2,0.4-0.5s0.1-1,0.1-1.9
		c0-1.3,0-2.1-0.1-2.4c-0.1-0.4-0.2-0.5-0.4-0.5c-0.2,0-0.4,0.2-0.4,0.5c-0.1,0.3-0.1,1.1-0.1,2.3c0,1.1,0,1.8,0.1,2.1
		C80.1,531.2,80.2,531.4,80.5,531.4"/>
	<polygon class="st2" points="83.3,532.5 83.3,525 84.7,525 84.7,531.3 86.6,531.3 86.6,532.5 	"/>
	<polygon class="st2" points="87,532.5 87,525 90.3,525 90.3,526.2 88.5,526.2 88.5,528 89.8,528 89.8,529.2 88.5,529.2 88.5,531.3 
		90.3,531.3 90.3,532.5 	"/>
	<path class="st2" d="M91,532.5V525h1.3l0.9,2.6c0.1,0.3,0.2,0.6,0.3,0.8c0.1,0.2,0.1,0.4,0.1,0.6v-4h1.2v7.5h-1.1l-1-2.9
		c-0.1-0.3-0.2-0.6-0.3-0.9c-0.1-0.2-0.1-0.5-0.2-0.7v4.4H91V532.5z"/>
	<polygon class="st2" points="95.3,526.2 95.3,525 99.1,525 99.1,526.2 98,526.2 98,532.5 96.5,532.5 96.5,526.2 	"/>
	<path class="st2" d="M105.5,529.6c0,1-0.2,1.8-0.5,2.3s-0.8,0.8-1.4,0.8c-0.7,0-1.2-0.3-1.5-0.9c-0.3-0.6-0.5-1.5-0.5-2.8
		c0-1.4,0.2-2.4,0.5-3.1c0.3-0.7,0.9-1,1.6-1c0.6,0,1.1,0.2,1.4,0.7s0.5,1.1,0.5,2v0.2h-1.4v-0.3c0-0.5,0-0.9-0.1-1
		s-0.2-0.3-0.3-0.3c-0.2,0-0.4,0.2-0.4,0.6c-0.1,0.4-0.1,1.2-0.1,2.5c0,0.9,0,1.6,0.1,1.9c0.1,0.3,0.2,0.5,0.5,0.5
		c0.2,0,0.3-0.1,0.4-0.4c0.1-0.3,0.1-0.7,0.1-1.2V530h1.1V529.6z"/>
	<path class="st2" d="M106.1,528.7c0-1.4,0.2-2.4,0.5-3s0.9-0.9,1.6-0.9s1.2,0.3,1.6,0.9c0.3,0.6,0.5,1.6,0.5,3s-0.2,2.4-0.5,3
		s-0.8,0.9-1.6,0.9c-0.7,0-1.3-0.3-1.6-0.9S106.1,530.1,106.1,528.7 M108.2,531.4c0.2,0,0.3-0.2,0.4-0.5s0.1-1,0.1-1.9
		c0-1.3,0-2.1-0.1-2.4c-0.1-0.4-0.2-0.5-0.4-0.5c-0.2,0-0.4,0.2-0.4,0.5c-0.1,0.3-0.1,1.1-0.1,2.3c0,1.1,0,1.8,0.1,2.1
		C107.8,531.2,108,531.4,108.2,531.4"/>
	<path class="st2" d="M111,532.5V525h1.3l0.9,2.6c0.1,0.3,0.2,0.6,0.3,0.8c0.1,0.2,0.1,0.4,0.1,0.6v-4h1.2v7.5h-1.1l-1-2.9
		c-0.1-0.3-0.2-0.6-0.3-0.9c-0.1-0.2-0.1-0.5-0.2-0.7v4.4H111V532.5z"/>
	<polygon class="st2" points="115.4,526.2 115.4,525 119.2,525 119.2,526.2 118,526.2 118,532.5 116.6,532.5 116.6,526.2 	"/>
	<polygon class="st2" points="119.7,532.5 119.7,525 123,525 123,526.2 121.2,526.2 121.2,528 122.5,528 122.5,529.2 121.2,529.2 
		121.2,531.3 123,531.3 123,532.5 	"/>
	<path class="st2" d="M123.7,532.5V525h1.3l0.9,2.6c0.1,0.3,0.2,0.6,0.3,0.8c0.1,0.2,0.1,0.4,0.1,0.6v-4h1.2v7.5h-1.1l-1-2.9
		c-0.1-0.3-0.2-0.6-0.3-0.9c-0.1-0.2-0.1-0.5-0.2-0.7v4.4h-1.2V532.5z"/>
	<polygon class="st2" points="128,526.2 128,525 131.8,525 131.8,526.2 130.6,526.2 130.6,532.5 129.2,532.5 129.2,526.2 	"/>
</g>
<g>
	<g>
		<path d="M102.9,441l-7.9,7.9h-5.1c-1.9,0-3.4,1.5-3.4,3.4v6.1c0,1.9,1.5,3.4,3.4,3.4H95l7.9,7.9c0.4,0.4,1,0.1,1-0.4v-13.9v-13.9
			C103.9,440.8,103.3,440.6,102.9,441"/>
		<polygon points="131.3,447.6 127,443.3 119.3,451 111.6,443.3 107.3,447.6 114.9,455.3 107.3,463 111.6,467.3 119.3,459.7 
			127,467.3 131.3,463 123.6,455.3 		"/>
	</g>
	<g>
		<path d="M42.9,444l-6.3,6.3h-4c-1.5,0-2.7,1.2-2.7,2.7v4.8c0,1.5,1.2,2.7,2.7,2.7h4l6.3,6.3c0.3,0.3,0.8,0.1,0.8-0.3v-11v-11
			C43.7,443.9,43.2,443.7,42.9,444"/>
		<path d="M58,473l-3.4-3.4c7.9-7.9,7.9-20.6,0-28.5l3.4-3.4C67.8,447.4,67.8,463.2,58,473"/>
		<path d="M51.7,466.6l-3.4-3.4c2.1-2.1,3.3-4.9,3.3-7.9s-1.2-5.8-3.3-7.9l3.4-3.4c3,3,4.7,7,4.7,11.3S54.7,463.6,51.7,466.6"/>
	</g>
</g>
<g>
	<path d="M82.1,390.8c-0.8-0.9-1.2-2-1.4-3.2l-3.9-37.1c-0.1-1.5,0.2-2.7,0.8-3.9c0.6-1.1,1.6-2,2.9-2.6v-0.2H64l-6.3,22l-5.5-22
		H34.4v0.2c1.4,0.6,2.4,1.4,3.1,2.6c0.7,1.1,1,2.4,0.8,3.8l-4,35.6c-0.2,1.5-0.6,2.9-1.4,4.1c-0.7,1.2-1.7,2.2-3,2.8v0.2h10.6v-0.2
		c-1.1-0.5-1.9-1.4-2.6-2.7c-0.7-1.3-0.9-2.8-0.8-4.2l3.9-35.3L52.1,394h0.4l12.2-42.2l3.9,35.9c0.1,1.2-0.2,2.3-1,3.3
		s-1.6,1.7-2.5,2.2v0.2h19.7v-0.2C83.7,392.5,82.8,391.8,82.1,390.8"/>
	<path d="M102.8,359.7c-1.9-1.2-4-1.8-6.3-1.8c-2.1,0-4.1,0.5-5.9,1.5s-3.4,2.4-4.7,4.2c-1.3,1.8-2.4,3.8-3.1,6.1
		c-0.7,2.3-1.1,4.7-1.1,7.3c0,2.9,0.4,5.5,1.2,7.6c0.8,2.2,1.9,4,3.3,5.4s2.9,2.5,4.5,3.2s3.3,1.1,5,1.1c2,0,3.9-0.4,5.7-1.3
		c1.8-0.9,3.4-2.2,4.7-4c1.3-1.8,2.3-4,2.8-6.6l-0.3-0.2c-0.7,1.2-1.7,2.2-3.1,2.9c-1.4,0.7-2.8,1.1-4.3,1.1c-1.6,0-3.1-0.5-4.4-1.4
		s-2.3-2.4-3-4.4c-0.6-1.7-0.9-3.9-1-6.7H109v-1.4c0-2.8-0.6-5.3-1.7-7.5C106.2,362.6,104.7,360.9,102.8,359.7 M92.7,371.4
		c0-2.6,0.1-4.8,0.3-6.4c0.2-1.8,0.5-3.1,0.9-3.9s0.9-1.2,1.4-1.2c0.6,0,1.1,0.4,1.3,1.2c0.3,0.8,0.5,2,0.7,3.7s0.2,3.9,0.2,6.6
		L92.7,371.4L92.7,371.4z"/>
	<path d="M131.5,359.7c-1.9-1.2-4-1.8-6.3-1.8c-2.1,0-4.1,0.5-5.9,1.5s-3.4,2.4-4.7,4.2c-1.3,1.8-2.4,3.8-3.1,6.1
		c-0.7,2.3-1.1,4.7-1.1,7.3c0,2.9,0.4,5.5,1.2,7.6c0.8,2.2,1.9,4,3.3,5.4s2.9,2.5,4.5,3.2s3.3,1.1,5,1.1c2,0,3.9-0.4,5.7-1.3
		s3.4-2.2,4.7-4s2.3-4,2.8-6.6l-0.3-0.2c-0.7,1.2-1.7,2.2-3.1,2.9c-1.4,0.7-2.8,1.1-4.3,1.1c-1.6,0-3.1-0.5-4.4-1.4s-2.3-2.4-3-4.4
		c-0.6-1.7-0.9-3.9-1-6.7h16.3v-1.4c0-2.8-0.6-5.3-1.7-7.5C134.9,362.6,133.4,360.9,131.5,359.7 M121.4,371.4c0-2.6,0.1-4.8,0.3-6.4
		c0.2-1.8,0.5-3.1,0.9-3.9s0.9-1.2,1.4-1.2c0.6,0,1.1,0.4,1.4,1.2c0.3,0.8,0.5,2,0.7,3.7s0.2,3.9,0.2,6.6L121.4,371.4L121.4,371.4z"
		/>
	<path d="M159,388.4c-0.8,0.2-1.4,0.3-2,0.3c-1.1,0-1.9-0.3-2.5-0.9s-1-1.5-1-2.6v-23.4h6.8v-3h-6.8v-13.2h-0.3
		c-1.4,2.1-2.9,4.1-4.6,6c-1.7,1.9-3.6,3.7-5.6,5.4c-2,1.6-4.2,3.2-6.5,4.6v0.3h4.5V388c0,1.3,0.4,2.5,1.1,3.4
		c0.7,1,1.7,1.7,2.8,2.2c1.2,0.5,2.4,0.8,3.9,0.8c2.6,0,5-0.6,7.2-1.8c2.2-1.2,4.1-2.8,5.7-4.6l-0.2-0.3
		C160.6,387.9,159.8,388.2,159,388.4"/>
	<path d="M200.6,372.1c-0.7-1.6-1.6-3-2.7-4.3c-1.1-1.2-2.4-2.3-3.9-3.2c-1.4-0.9-2.9-1.6-4.3-2.3c-1.4-0.7-2.9-1.5-4.3-2.1
		c-1.4-0.7-2.7-1.4-3.8-2.1c-1.1-0.8-2-1.7-2.7-2.7s-1-2.2-1-3.7c0-1.3,0.3-2.4,0.9-3.3c0.6-0.9,1.3-1.6,2.2-2.1s1.9-0.8,3.1-0.8
		c1.7,0,3.3,0.5,4.7,1.6s2.7,2.6,3.8,4.4s2.1,3.9,2.9,6.1h0.3l3.8-13.3c-1.8-0.4-3.8-0.8-5.8-1.1c-2-0.3-4.1-0.4-6.1-0.4
		c-2.7,0-5.1,0.4-7.2,1.2c-2.1,0.8-3.9,2-5.4,3.4s-2.6,3-3.4,4.9c-0.8,1.8-1.2,3.8-1.2,6c0,2.3,0.4,4.3,1.1,6c0.7,1.7,1.7,3.1,3,4.3
		c1.3,1.2,2.6,2.2,4.1,3.1s3,1.7,4.6,2.4c1.9,0.9,3.7,1.8,5.4,2.6c1.7,0.9,3.1,1.9,4.1,3.1c1.1,1.2,1.6,2.7,1.6,4.6
		c0,1.2-0.3,2.4-0.9,3.5c-0.6,1.1-1.4,2-2.5,2.6c-1.1,0.7-2.5,1-4.2,1c-2.4,0-4.4-0.7-6.2-2.1c-1.7-1.4-3.2-3.3-4.5-5.8
		c-1.3-2.4-2.4-5.2-3.4-8.3h-0.3l-6.1,15.7c2.3,0.8,5,1.5,8.2,2.1c3.1,0.6,6.1,0.9,8.8,0.9c3,0,5.7-0.4,8-1.2c2.3-0.8,4.2-2,5.7-3.5
		s2.7-3.3,3.4-5.2c0.8-2,1.2-4.1,1.2-6.3C201.6,375.7,201.3,373.7,200.6,372.1"/>
	<path d="M233.7,390.5c-0.5-1.1-0.7-2.1-0.7-3v-22.7c0-2.1-0.5-3.7-1.4-5s-2.3-1.9-4.2-1.9c-0.9,0-1.9,0.3-3.1,0.8
		c-1.2,0.5-2.3,1.2-3.4,1.9c-1.1,0.7-2.1,1.5-3,2.4s-1.7,1.6-2.3,2.1h-0.1c0-0.3,0.1-0.8,0.1-1.6c0-0.8,0.1-1.5,0.1-2.2v-20.5h-0.3
		c-0.9,0.9-2.2,1.8-3.8,2.7c-1.6,0.9-3.3,1.6-5.2,2.1s-3.7,0.8-5.3,0.8v0.2c0.9,0.6,1.7,1.5,2.2,2.8c0.6,1.3,0.9,2.6,0.9,3.8v34.2
		c0,0.9-0.2,1.9-0.7,2.9c-0.4,1-1.2,1.9-2.2,2.7v0.2h17.3V393c-0.8-0.7-1.5-1.5-2.1-2.4c-0.6-1-0.9-2-0.9-3.1v-21.3
		c0.7-0.2,1.4-0.5,2.1-0.8c0.7-0.3,1.4-0.5,1.9-0.5c0.6,0,1,0.3,1.3,0.9c0.3,0.5,0.5,1.3,0.5,2.2v19.6c0,1.1-0.2,2.1-0.7,3
		c-0.5,1-1.2,1.8-2,2.5v0.2h16.7v-0.2C234.8,392.5,234.2,391.6,233.7,390.5"/>
	<path d="M251.4,390.6c-0.5-1.1-0.7-2.4-0.7-3.9v-29.3h-0.3c-0.9,1-2.2,1.9-3.9,2.7c-1.7,0.9-3.5,1.6-5.4,2.1
		c-2,0.5-3.8,0.8-5.4,0.9v0.2c1.3,0.5,2.2,1.4,2.5,2.6c0.4,1.2,0.6,2.5,0.6,3.7v17.1c0,1.5-0.3,2.8-0.8,3.9
		c-0.6,1.1-1.3,1.9-2.3,2.5v0.2h17.7v-0.2C252.6,392.5,251.9,391.7,251.4,390.6"/>
	<path d="M279,359.5c-0.9-1.2-2-1.8-3.4-1.8c-1.1,0-2.2,0.4-3.2,1.2c-1,0.8-1.9,1.9-2.7,3.2c-0.7,1.3-1.3,2.6-1.6,4L268,366
		c0-0.5,0.1-1.2,0.2-2.1s0.1-1.8,0.1-2.7v-3.7H268c-0.9,1-2.2,1.9-3.8,2.7c-1.6,0.9-3.3,1.6-5.2,2.1c-1.8,0.5-3.6,0.8-5.3,0.9v0.2
		c1.1,0.5,1.8,1.3,2.3,2.4s0.7,2.5,0.7,4.4v16.6c0,1.3-0.3,2.5-0.8,3.6c-0.5,1.1-1.3,2.1-2.2,2.8v0.2h17.5v-0.2
		c-0.9-0.7-1.7-1.7-2.2-2.8c-0.6-1.1-0.9-2.3-0.9-3.6v-19.6c0.3-0.1,0.5-0.3,0.7-0.5s0.5-0.3,0.8-0.3c0.5,0,1,0.2,1.4,0.6
		s0.8,0.8,1.3,1.3s1,0.9,1.5,1.3s1.2,0.6,1.9,0.6c1.1,0,2.1-0.5,3.1-1.6s1.4-2.5,1.4-4.5C280.3,362.2,279.9,360.7,279,359.5"/>
	<path d="M295.6,390.6c-0.5-1.1-0.8-2.3-0.8-3.9v-46h-0.3c-0.9,0.9-2.2,1.8-3.8,2.7c-1.7,0.9-3.5,1.6-5.4,2.1s-3.7,0.8-5.4,0.8v0.2
		c0.9,0.5,1.7,1.4,2.2,2.7c0.6,1.3,0.9,2.5,0.9,3.8v33.6c0,1.5-0.3,2.8-0.8,3.8c-0.5,1.1-1.2,1.9-2.1,2.6v0.2h17.8V393
		C296.9,392.5,296.1,391.7,295.6,390.6"/>
	<path d="M321.3,389c1.3-1.8,2.3-4,2.8-6.6l-0.3-0.2c-0.7,1.2-1.7,2.2-3.1,2.9c-1.4,0.7-2.8,1.1-4.3,1.1c-1.6,0-3.1-0.5-4.4-1.4
		s-2.3-2.4-3-4.4c-0.6-1.7-0.9-3.9-1-6.7h16.3v-1.4c0-2.8-0.6-5.3-1.7-7.5s-2.6-3.9-4.5-5.1s-4-1.8-6.3-1.8c-2.1,0-4.1,0.5-5.9,1.5
		s-3.4,2.4-4.7,4.2c-1.3,1.8-2.4,3.8-3.1,6.1c-0.7,2.3-1.1,4.7-1.1,7.3c0,2.9,0.4,5.5,1.2,7.6c0.8,2.2,1.9,4,3.3,5.4
		s2.9,2.5,4.5,3.2s3.3,1.1,5,1.1c2,0,3.9-0.4,5.7-1.3C318.4,392.1,320,390.8,321.3,389 M309.1,361.1c0.4-0.8,0.9-1.2,1.4-1.2
		c0.6,0,1.1,0.4,1.3,1.2c0.3,0.8,0.5,2,0.7,3.7s0.2,3.9,0.2,6.6h-4.9c0-2.6,0.1-4.8,0.3-6.4C308.4,363.2,308.7,361.9,309.1,361.1"/>
	<path d="M344.9,358.7v0.2c0.6,0.2,1.1,0.6,1.7,1.3c0.5,0.7,0.9,1.7,1.1,2.8c0.2,1.1,0,2.4-0.7,3.8l-4,9.9l-3.6-10
		c-0.5-1.2-0.8-2.4-0.7-3.4c0.1-1.1,0.4-2,0.9-2.7s1.1-1.3,1.9-1.7v-0.2h-19.7v0.2c1.1,0.5,2,1.4,2.7,2.9c0.7,1.4,1.5,3.1,2.2,5
		l10.1,25.2l-1.5,3.8c-0.3,0.8-0.7,1.6-1.1,2.3c-0.4,0.7-0.9,1.3-1.4,1.7c-0.5,0.5-1.1,0.7-1.9,0.8c-0.4,0-0.8-0.2-1.2-0.5
		c-0.4-0.3-0.7-0.7-1.1-1.1c-0.3-0.4-0.7-0.9-1.2-1.4s-1-0.9-1.5-1.2c-0.5-0.3-1.1-0.4-1.8-0.4c-1.2,0-2.2,0.4-3.2,1.3
		c-0.9,0.9-1.4,2.2-1.4,3.9c0,1.3,0.3,2.4,1,3.4c0.6,1,1.5,1.7,2.5,2.2s2.1,0.8,3.3,0.8c1.8,0,3.4-0.5,4.7-1.5c1.3-1,2.5-2.4,3.5-4
		s1.9-3.4,2.6-5.3l12.4-30c0.6-1.4,1.2-2.7,1.7-3.8c0.5-1.1,1.1-2.1,1.7-2.8c0.6-0.7,1.1-1.2,1.6-1.4v-0.2h-9.6V358.7z"/>
	<path d="M240.4,357.5c1,0.7,2.1,1,3.3,1s2.3-0.3,3.3-1s1.8-1.5,2.4-2.7c0.6-1.1,0.9-2.3,0.9-3.6c0-1.4-0.3-2.7-0.9-3.8
		c-0.6-1.1-1.4-2-2.4-2.6s-2.1-1-3.3-1s-2.3,0.3-3.3,1c-1,0.6-1.8,1.5-2.4,2.6c-0.6,1.1-0.9,2.4-0.9,3.8c0,1.3,0.3,2.5,0.9,3.6
		C238.6,356,239.4,356.9,240.4,357.5"/>
</g>
<g id="layer1_00000152252243234022252640000011696729087514847677_" transform="translate(52.390088,-25.058597)">
	<path id="path1009_00000026162735440041601050000016889379399122224041_" class="st3" d="M48.8,309.2l10.5,14.1l-10.6,11.5h2.4
		l9.3-10l7.5,10h8.1l-11.1-14.9l9.9-10.7h-2.4l-8.5,9.2l-6.9-9.2H48.8z M52.3,310.9h3.7l16.5,22h-3.7L52.3,310.9z"/>
</g>
</svg>
