<?xml version="1.0" standalone="no"?>
<!DOCTYPE svg PUBLIC "-//W3C//DTD SVG 1.1//EN" "http://www.w3.org/Graphics/SVG/1.1/DTD/svg11.dtd" >
<svg xmlns="http://www.w3.org/2000/svg" xmlns:xlink="http://www.w3.org/1999/xlink" version="1.1">
<metadata>
Created by FontForge 20170731 at Wed Jul  5 06:00:40 2023
 By Aleksey,,,
</metadata>
<defs>
<font id="VuvvtasticSquareAccents" horiz-adv-x="1898" >
  <font-face 
    font-family="Vuvvtastic Square Accents"
    font-weight="400"
    font-stretch="normal"
    units-per-em="2048"
    panose-1="0 0 0 0 0 0 0 0 0 0"
    ascent="1638"
    descent="-410"
    bbox="102 -16 2031 1776"
    underline-thickness="102"
    underline-position="-307"
    unicode-range="U+000A-00AD"
  />
<missing-glyph horiz-adv-x="1079" 
d="M102 1434h875v-1434h-875v1434zM160 1393l379 -633l381 633h-760zM514 717l-369 614v-1231zM541 674l-379 -631h758zM565 717l371 -621v1239z" />
    <glyph glyph-name=".notdef" horiz-adv-x="1079" 
d="M102 1434h875v-1434h-875v1434zM160 1393l379 -633l381 633h-760zM514 717l-369 614v-1231zM541 674l-379 -631h758zM565 717l371 -621v1239z" />
    <glyph glyph-name=".null" horiz-adv-x="0" 
 />
    <glyph glyph-name=".null" horiz-adv-x="0" 
 />
    <glyph glyph-name="nonmarkingreturn" horiz-adv-x="682" 
 />
    <glyph glyph-name="LF" unicode="&#xa;" horiz-adv-x="0" 
 />
    <glyph glyph-name="controlCR" unicode="&#xd;" horiz-adv-x="0" 
 />
    <glyph glyph-name="space" unicode=" " horiz-adv-x="872" 
 />
    <glyph glyph-name="B" unicode="B" 
d="M1227 1659v39h-674v39h674v39h117v-117h-117zM1227 61v39h117v-116h-117v39h-674v38h674zM232 1597h1433v-1434h-1433v1434zM1302 800q100 184 100.5 340t-98.5 266q-26 30 -50.5 43t-60.5 12q-76 -3 -138 -48l-41 -27l47 13q48 16 95 17q33 1 62 -15t46 -45
q76 -134 28 -303q-25 -89 -80.5 -179.5t-126 -165.5t-147 -136.5t-152.5 -103.5l-4 -2q-127 -72 -172 -27q-26 26 -35 52t-9 84q5 38 15 74q32 125 14 151q-14 20 -32.5 30t-30 11t-31.5 0q-23 -5 -42 8q-50 44 -4 111l19 28l-30 -16q-37 -23 -47 -64.5t12 -78.5
q25 -29 61 -37q31 -6 54 -32q15 -25 -12 -132q-8 -30 -12 -60q-16 -110 46 -199q21 -30 75.5 -50.5t99.5 -20.5q11 0 16 1q61 7 136 53t141.5 108t128.5 131t102 123.5t57 85.5z" />
    <glyph glyph-name="B" unicode="b" 
d="M1227 1659v39h-674v39h674v39h117v-117h-117zM1227 61v39h117v-116h-117v39h-674v38h674zM232 1597h1433v-1434h-1433v1434zM1302 800q100 184 100.5 340t-98.5 266q-26 30 -50.5 43t-60.5 12q-76 -3 -138 -48l-41 -27l47 13q48 16 95 17q33 1 62 -15t46 -45
q76 -134 28 -303q-25 -89 -80.5 -179.5t-126 -165.5t-147 -136.5t-152.5 -103.5l-4 -2q-127 -72 -172 -27q-26 26 -35 52t-9 84q5 38 15 74q32 125 14 151q-14 20 -32.5 30t-30 11t-31.5 0q-23 -5 -42 8q-50 44 -4 111l19 28l-30 -16q-37 -23 -47 -64.5t12 -78.5
q25 -29 61 -37q31 -6 54 -32q15 -25 -12 -132q-8 -30 -12 -60q-16 -110 46 -199q21 -30 75.5 -50.5t99.5 -20.5q11 0 16 1q61 7 136 53t141.5 108t128.5 131t102 123.5t57 85.5z" />
    <glyph glyph-name="C" unicode="C" 
d="M687 1698v-39h-116v117h116v-39h674v-39h-674zM687 100v-39h674v-38h-674v-39h-116v116h116zM232 1597l1433 -1v-1433h-1018q70 66 142 149q104 117 169 181q42 42 75 78q46 49 67.5 70t54.5 45.5t64 34.5q77 24 114 -10q23 -21 29 -54.5t1 -54.5q-12 -50 -73 -101
q-107 -88 -238 -112l-80 -14l81 -4q97 -4 196 25q98 27 168 105q34 39 46.5 89.5t1.5 100.5q-4 15 -10.5 30.5t-23.5 38t-39 38t-60.5 24t-84.5 2.5q16 23 56 78q30 41 46.5 63t46 65.5t44.5 72.5t35 69.5t24.5 71t5.5 63.5t-13.5 61t-41.5 50q-36 32 -85 27
q-78 -2 -183.5 -57.5t-160.5 -117.5l-31 -34l42 20q3 2 12.5 7.5t16.5 8.5q43 23 73 37t81.5 32t94 14.5t73.5 -28.5q17 -14 17 -37q3 -42 -38.5 -118t-94.5 -148t-142 -175t-140 -159t-129 -139q-63 -66 -91 -99l-1 2q-25 62 -69 115q7 8 20 23q27 29 43.5 48t46 56
t44.5 69.5t28.5 72t10 79.5t-22.5 77q-22 40 -67 48q-47 10 -100 1t-97 -31q55 125 90.5 267.5t5.5 204.5q-13 29 -42 37q-69 14 -120 -40q-41 -40 -73.5 -118.5t-48 -163.5t-21 -172t6.5 -144l18 1q0 160 36.5 278t86.5 165q19 20 49 22q17 -3 23 -18q24 -47 -10 -170
t-86 -243l-20 -48l35 38q20 21 72.5 42.5t94.5 12.5q23 -5 39.5 -21.5t22.5 -39.5q22 -65 -8 -145.5t-94 -128.5q-1 -1 -7 -5q-43 -31 -27 -56q32 -48 48 -82t24 -74q9 -57 -13 -108q-40 -79 -105 -140h-346v1434z" />
    <glyph glyph-name="C" unicode="&#xe7;" 
d="M687 1698v-39h-116v117h116v-39h674v-39h-674zM687 100v-39h674v-38h-674v-39h-116v116h116zM232 1597l1433 -1v-1433h-1018q70 66 142 149q104 117 169 181q42 42 75 78q46 49 67.5 70t54.5 45.5t64 34.5q77 24 114 -10q23 -21 29 -54.5t1 -54.5q-12 -50 -73 -101
q-107 -88 -238 -112l-80 -14l81 -4q97 -4 196 25q98 27 168 105q34 39 46.5 89.5t1.5 100.5q-4 15 -10.5 30.5t-23.5 38t-39 38t-60.5 24t-84.5 2.5q16 23 56 78q30 41 46.5 63t46 65.5t44.5 72.5t35 69.5t24.5 71t5.5 63.5t-13.5 61t-41.5 50q-36 32 -85 27
q-78 -2 -183.5 -57.5t-160.5 -117.5l-31 -34l42 20q3 2 12.5 7.5t16.5 8.5q43 23 73 37t81.5 32t94 14.5t73.5 -28.5q17 -14 17 -37q3 -42 -38.5 -118t-94.5 -148t-142 -175t-140 -159t-129 -139q-63 -66 -91 -99l-1 2q-25 62 -69 115q7 8 20 23q27 29 43.5 48t46 56
t44.5 69.5t28.5 72t10 79.5t-22.5 77q-22 40 -67 48q-47 10 -100 1t-97 -31q55 125 90.5 267.5t5.5 204.5q-13 29 -42 37q-69 14 -120 -40q-41 -40 -73.5 -118.5t-48 -163.5t-21 -172t6.5 -144l18 1q0 160 36.5 278t86.5 165q19 20 49 22q17 -3 23 -18q24 -47 -10 -170
t-86 -243l-20 -48l35 38q20 21 72.5 42.5t94.5 12.5q23 -5 39.5 -21.5t22.5 -39.5q22 -65 -8 -145.5t-94 -128.5q-1 -1 -7 -5q-43 -31 -27 -56q32 -48 48 -82t24 -74q9 -57 -13 -108q-40 -79 -105 -140h-346v1434z" />
    <glyph glyph-name="C" unicode="&#xc7;" 
d="M687 1698v-39h-116v117h116v-39h674v-39h-674zM687 100v-39h674v-38h-674v-39h-116v116h116zM232 1597l1433 -1v-1433h-1018q70 66 142 149q104 117 169 181q42 42 75 78q46 49 67.5 70t54.5 45.5t64 34.5q77 24 114 -10q23 -21 29 -54.5t1 -54.5q-12 -50 -73 -101
q-107 -88 -238 -112l-80 -14l81 -4q97 -4 196 25q98 27 168 105q34 39 46.5 89.5t1.5 100.5q-4 15 -10.5 30.5t-23.5 38t-39 38t-60.5 24t-84.5 2.5q16 23 56 78q30 41 46.5 63t46 65.5t44.5 72.5t35 69.5t24.5 71t5.5 63.5t-13.5 61t-41.5 50q-36 32 -85 27
q-78 -2 -183.5 -57.5t-160.5 -117.5l-31 -34l42 20q3 2 12.5 7.5t16.5 8.5q43 23 73 37t81.5 32t94 14.5t73.5 -28.5q17 -14 17 -37q3 -42 -38.5 -118t-94.5 -148t-142 -175t-140 -159t-129 -139q-63 -66 -91 -99l-1 2q-25 62 -69 115q7 8 20 23q27 29 43.5 48t46 56
t44.5 69.5t28.5 72t10 79.5t-22.5 77q-22 40 -67 48q-47 10 -100 1t-97 -31q55 125 90.5 267.5t5.5 204.5q-13 29 -42 37q-69 14 -120 -40q-41 -40 -73.5 -118.5t-48 -163.5t-21 -172t6.5 -144l18 1q0 160 36.5 278t86.5 165q19 20 49 22q17 -3 23 -18q24 -47 -10 -170
t-86 -243l-20 -48l35 38q20 21 72.5 42.5t94.5 12.5q23 -5 39.5 -21.5t22.5 -39.5q22 -65 -8 -145.5t-94 -128.5q-1 -1 -7 -5q-43 -31 -27 -56q32 -48 48 -82t24 -74q9 -57 -13 -108q-40 -79 -105 -140h-346v1434z" />
    <glyph glyph-name="C" unicode="c" 
d="M687 1698v-39h-116v117h116v-39h674v-39h-674zM687 100v-39h674v-38h-674v-39h-116v116h116zM232 1597l1433 -1v-1433h-1018q70 66 142 149q104 117 169 181q42 42 75 78q46 49 67.5 70t54.5 45.5t64 34.5q77 24 114 -10q23 -21 29 -54.5t1 -54.5q-12 -50 -73 -101
q-107 -88 -238 -112l-80 -14l81 -4q97 -4 196 25q98 27 168 105q34 39 46.5 89.5t1.5 100.5q-4 15 -10.5 30.5t-23.5 38t-39 38t-60.5 24t-84.5 2.5q16 23 56 78q30 41 46.5 63t46 65.5t44.5 72.5t35 69.5t24.5 71t5.5 63.5t-13.5 61t-41.5 50q-36 32 -85 27
q-78 -2 -183.5 -57.5t-160.5 -117.5l-31 -34l42 20q3 2 12.5 7.5t16.5 8.5q43 23 73 37t81.5 32t94 14.5t73.5 -28.5q17 -14 17 -37q3 -42 -38.5 -118t-94.5 -148t-142 -175t-140 -159t-129 -139q-63 -66 -91 -99l-1 2q-25 62 -69 115q7 8 20 23q27 29 43.5 48t46 56
t44.5 69.5t28.5 72t10 79.5t-22.5 77q-22 40 -67 48q-47 10 -100 1t-97 -31q55 125 90.5 267.5t5.5 204.5q-13 29 -42 37q-69 14 -120 -40q-41 -40 -73.5 -118.5t-48 -163.5t-21 -172t6.5 -144l18 1q0 160 36.5 278t86.5 165q19 20 49 22q17 -3 23 -18q24 -47 -10 -170
t-86 -243l-20 -48l35 38q20 21 72.5 42.5t94.5 12.5q23 -5 39.5 -21.5t22.5 -39.5q22 -65 -8 -145.5t-94 -128.5q-1 -1 -7 -5q-43 -31 -27 -56q32 -48 48 -82t24 -74q9 -57 -13 -108q-40 -79 -105 -140h-346v1434z" />
    <glyph glyph-name="D" unicode="D" 
d="M670 1698v-39h-117v117h117v-39h674v-39h-674zM1227 61v39h117v-116h-117v39h-674v38h674zM703 477q82 -79 100 -314h-395l3 16q1 6 3 19t3 19q9 82 36 158q20 49 66 92t89 45q55 5 95 -35zM1212 423q38 3 70 -6.5t55.5 -32.5t41 -46t32 -59.5t22 -58.5t17.5 -57h-528
q69 98 128 165q75 88 162 95zM232 1597h1433v-1434h-187l-3 39q-4 49 -6.5 74.5t-9.5 67t-16.5 64.5t-26.5 52.5t-39.5 45.5t-55.5 29.5t-76 18.5q0 7 0.5 20t1.5 19q3 46 3 81t-14.5 75.5t-48.5 90.5q48 50 75.5 108t27.5 97q0 98 -53 184q-4 7 -11 21.5t-9 19.5
q53 42 74 111q9 36 -4 74t-46 56q-56 27 -108 -8q-43 -32 -59 -83.5t1 -102.5q23 -49 78 -65q2 -6 6 -16l1 -1v-2q-95 44 -167 17q-73 -27 -102 -105q-17 -34 -12 -71t30 -65l26 -37l-9 44q-13 62 2.5 99t58.5 63q31 20 67 19.5t67 -20.5q73 -57 79 -124q6 -70 -62 -149
q-50 37 -99 45t-119 -10q-44 -11 -78 -40.5t-51 -71.5q-38 -88 -4 -149l32 -51l-11 56q-10 28 -2.5 56.5t29.5 48.5q63 68 155 66q63 -5 105 -56q50 -68 21 -238q-5 -26 -5 -28q-73 -44 -112.5 -79t-76.5 -94q-9 51 -37.5 118t-50.5 87q-44 56 -111 72t-141 -13
q-42 -16 -79 -58t-54 -75t-31 -67q-42 -121 -27 -244l2 -16h-161v1434zM1226 1451q16 -31 7 -63q-5 -26 -26 -43t-48 -16q-16 0 -28 14q-15 22 -9 44q6 37 28 60.5t45 23.5q1 0 2 -0.5t2 -0.5q18 -3 27 -19z" />
    <glyph glyph-name="D" unicode="d" 
d="M670 1698v-39h-117v117h117v-39h674v-39h-674zM1227 61v39h117v-116h-117v39h-674v38h674zM703 477q82 -79 100 -314h-395l3 16q1 6 3 19t3 19q9 82 36 158q20 49 66 92t89 45q55 5 95 -35zM1212 423q38 3 70 -6.5t55.5 -32.5t41 -46t32 -59.5t22 -58.5t17.5 -57h-528
q69 98 128 165q75 88 162 95zM232 1597h1433v-1434h-187l-3 39q-4 49 -6.5 74.5t-9.5 67t-16.5 64.5t-26.5 52.5t-39.5 45.5t-55.5 29.5t-76 18.5q0 7 0.5 20t1.5 19q3 46 3 81t-14.5 75.5t-48.5 90.5q48 50 75.5 108t27.5 97q0 98 -53 184q-4 7 -11 21.5t-9 19.5
q53 42 74 111q9 36 -4 74t-46 56q-56 27 -108 -8q-43 -32 -59 -83.5t1 -102.5q23 -49 78 -65q2 -6 6 -16l1 -1v-2q-95 44 -167 17q-73 -27 -102 -105q-17 -34 -12 -71t30 -65l26 -37l-9 44q-13 62 2.5 99t58.5 63q31 20 67 19.5t67 -20.5q73 -57 79 -124q6 -70 -62 -149
q-50 37 -99 45t-119 -10q-44 -11 -78 -40.5t-51 -71.5q-38 -88 -4 -149l32 -51l-11 56q-10 28 -2.5 56.5t29.5 48.5q63 68 155 66q63 -5 105 -56q50 -68 21 -238q-5 -26 -5 -28q-73 -44 -112.5 -79t-76.5 -94q-9 51 -37.5 118t-50.5 87q-44 56 -111 72t-141 -13
q-42 -16 -79 -58t-54 -75t-31 -67q-42 -121 -27 -244l2 -16h-161v1434zM1226 1451q16 -31 7 -63q-5 -26 -26 -43t-48 -16q-16 0 -28 14q-15 22 -9 44q6 37 28 60.5t45 23.5q1 0 2 -0.5t2 -0.5q18 -3 27 -19z" />
    <glyph glyph-name="F" unicode="F" horiz-adv-x="1896" 
d="M1227 1659v39h-674v39h674v39h117v-117h-117zM670 100v-39h674v-38h-674v-39h-117v116h117zM924 1165q163 -52 300 -151q-52 -148 -4 -299q-54 31 -155 33q10 38 -2.5 85.5t-28 75.5t-41.5 67q-13 20 -20 32q-52 94 -49 157zM1665 607q-73 -48 -161 -56q46 155 50 307
t-23 309l-9 62l-6 -62q-19 -188 -40 -317t-59 -270q-38 25 -62 61t-35 82.5t-14.5 76t-6.5 79.5q-4 87 31 171t103 194l23 37l-34 -28q-102 -81 -167 -188q-87 46 -179 90q18 131 89 202l37 37l-46 -25q-89 -48 -123 -197q-58 13 -84 67q-5 12 -5 27.5t1.5 28t8 31.5
t10.5 29.5t12 30.5q16 38 22 58l9 31l-21 -24q-31 -34 -57.5 -95.5t-34.5 -115.5q-79 83 -81 197v35l-14 -32q-39 -86 69 -253q-5 -73 16 -130t71 -135l6 -11q36 -45 44 -104q-38 -160 -225 -323q-69 128 -150.5 238.5t-158.5 178.5q23 133 -6 266l-13 58l-2 -59
q-3 -91 -30 -190q-29 57 -60 215l-10 56l-8 -34q-12 -52 -13 -118t14.5 -135t47.5 -108q-9 -138 15.5 -252t86.5 -223l30 -51l-16 57q-56 192 -44 391q35 -38 73 -97.5t59.5 -101t58.5 -115.5q26 -53 52 -101l2 -4h4q33 0 159 128t163 195q56 17 103.5 9t107.5 -46
q25 -75 71 -140q50 -73 136 -85q52 -5 110 16.5t98 53.5l5 4v-327h-1433v1434h1433v-990z" />
    <glyph glyph-name="F" unicode="f" horiz-adv-x="1896" 
d="M1227 1659v39h-674v39h674v39h117v-117h-117zM670 100v-39h674v-38h-674v-39h-117v116h117zM924 1165q163 -52 300 -151q-52 -148 -4 -299q-54 31 -155 33q10 38 -2.5 85.5t-28 75.5t-41.5 67q-13 20 -20 32q-52 94 -49 157zM1665 607q-73 -48 -161 -56q46 155 50 307
t-23 309l-9 62l-6 -62q-19 -188 -40 -317t-59 -270q-38 25 -62 61t-35 82.5t-14.5 76t-6.5 79.5q-4 87 31 171t103 194l23 37l-34 -28q-102 -81 -167 -188q-87 46 -179 90q18 131 89 202l37 37l-46 -25q-89 -48 -123 -197q-58 13 -84 67q-5 12 -5 27.5t1.5 28t8 31.5
t10.5 29.5t12 30.5q16 38 22 58l9 31l-21 -24q-31 -34 -57.5 -95.5t-34.5 -115.5q-79 83 -81 197v35l-14 -32q-39 -86 69 -253q-5 -73 16 -130t71 -135l6 -11q36 -45 44 -104q-38 -160 -225 -323q-69 128 -150.5 238.5t-158.5 178.5q23 133 -6 266l-13 58l-2 -59
q-3 -91 -30 -190q-29 57 -60 215l-10 56l-8 -34q-12 -52 -13 -118t14.5 -135t47.5 -108q-9 -138 15.5 -252t86.5 -223l30 -51l-16 57q-56 192 -44 391q35 -38 73 -97.5t59.5 -101t58.5 -115.5q26 -53 52 -101l2 -4h4q33 0 159 128t163 195q56 17 103.5 9t107.5 -46
q25 -75 71 -140q50 -73 136 -85q52 -5 110 16.5t98 53.5l5 4v-327h-1433v1434h1433v-990z" />
    <glyph glyph-name="G" unicode="G" horiz-adv-x="2226" 
d="M182 1146v452h119v-452h-119zM204 1496v-248h74v248h-74zM1912 616h119v-452h-119v452zM2009 266v248h-74v-248h74zM960 1120q-128 231 -269 478h1138v-996q-158 104 -264 182q-100 218 -190 393l-4 8l-8 -3q-44 -11 -81 -28l-10 -5l5 -9q9 -18 24.5 -47.5t21.5 -40.5
q52 -102 100 -190q-344 188 -463 258zM1076 870l431 -193q264 -430 314 -513h-1426v1053q67 -35 83 -66q36 -74 -2 -148l-3 -6l4 -5q88 -117 157 -233l19 10q-11 26 -29 71t-26 64q-27 66 -32 78q32 40 42 94q55 -23 115.5 -49.5t100.5 -44.5t45 -20q2 -3 83 -117.5
t171 -242.5t134 -193l18 11q-64 127 -199 450zM1829 236q-74 166 -181 389q131 -50 181 -68v-321zM549 1598q115 -219 184 -363l-338 176v187h154z" />
    <glyph glyph-name="G" unicode="g" horiz-adv-x="2226" 
d="M182 1146v452h119v-452h-119zM204 1496v-248h74v248h-74zM1912 616h119v-452h-119v452zM2009 266v248h-74v-248h74zM960 1120q-128 231 -269 478h1138v-996q-158 104 -264 182q-100 218 -190 393l-4 8l-8 -3q-44 -11 -81 -28l-10 -5l5 -9q9 -18 24.5 -47.5t21.5 -40.5
q52 -102 100 -190q-344 188 -463 258zM1076 870l431 -193q264 -430 314 -513h-1426v1053q67 -35 83 -66q36 -74 -2 -148l-3 -6l4 -5q88 -117 157 -233l19 10q-11 26 -29 71t-26 64q-27 66 -32 78q32 40 42 94q55 -23 115.5 -49.5t100.5 -44.5t45 -20q2 -3 83 -117.5
t171 -242.5t134 -193l18 11q-64 127 -199 450zM1829 236q-74 166 -181 389q131 -50 181 -68v-321zM549 1598q115 -219 184 -363l-338 176v187h154z" />
    <glyph glyph-name="H" unicode="H" 
d="M1143 571q40 -81 75.5 -119.5t110.5 -84.5q108 -65 336 -64v-140h-667l4 5q100 142 141 403zM1010 617q21 -29 26 -84t-7.5 -130t-21 -115.5t-24.5 -104.5l-5 -20h-50l-5 23q-1 5 -4 17t-5 19q-15 62 -22.5 100.5t-17.5 107t-4 117t27 73.5q25 28 63 23q33 -2 50 -26z
M1274 1367q-29 -35 -44.5 -52.5t-49 -49t-62 -47.5t-70.5 -29.5t-86 -13.5q-55 0 -103.5 18t-88.5 53t-70.5 71t-64.5 87q-35 53 -147 193h987q-151 -169 -201 -230zM947 833q-34 1 -70 -15q4 114 -27 233q72 -22 197 -6q-18 -118 0 -236q-46 24 -100 24zM1284 1173
q44 113 239 424h142v-1198q-78 24 -144 57.5t-125.5 80t-99 111t-52.5 139.5q-21 104 -14.5 184t54.5 202zM333 415q-52 -9 -101 -5v1187h199q164 -294 218 -419q55 -125 62.5 -259t-34.5 -213q-28 -54 -47 -85t-49 -68.5t-62 -60t-79 -43.5t-107 -34zM756 490
q25 -181 148 -314l11 -13h-683v154q134 -29 270 -6q68 14 141.5 66t112.5 113zM232 0v119h451v-119h-451zM334 96v-74h247v74h-247zM1214 1760h451v-119h-451v119zM1563 1664v74h-247v-74h247z" />
    <glyph glyph-name="H" unicode="h" 
d="M1143 571q40 -81 75.5 -119.5t110.5 -84.5q108 -65 336 -64v-140h-667l4 5q100 142 141 403zM1010 617q21 -29 26 -84t-7.5 -130t-21 -115.5t-24.5 -104.5l-5 -20h-50l-5 23q-1 5 -4 17t-5 19q-15 62 -22.5 100.5t-17.5 107t-4 117t27 73.5q25 28 63 23q33 -2 50 -26z
M1274 1367q-29 -35 -44.5 -52.5t-49 -49t-62 -47.5t-70.5 -29.5t-86 -13.5q-55 0 -103.5 18t-88.5 53t-70.5 71t-64.5 87q-35 53 -147 193h987q-151 -169 -201 -230zM947 833q-34 1 -70 -15q4 114 -27 233q72 -22 197 -6q-18 -118 0 -236q-46 24 -100 24zM1284 1173
q44 113 239 424h142v-1198q-78 24 -144 57.5t-125.5 80t-99 111t-52.5 139.5q-21 104 -14.5 184t54.5 202zM333 415q-52 -9 -101 -5v1187h199q164 -294 218 -419q55 -125 62.5 -259t-34.5 -213q-28 -54 -47 -85t-49 -68.5t-62 -60t-79 -43.5t-107 -34zM756 490
q25 -181 148 -314l11 -13h-683v154q134 -29 270 -6q68 14 141.5 66t112.5 113zM232 0v119h451v-119h-451zM334 96v-74h247v74h-247zM1214 1760h451v-119h-451v119zM1563 1664v74h-247v-74h247z" />
    <glyph glyph-name="J" unicode="J" horiz-adv-x="1875" 
d="M513 1596h1138v-995q-158 104 -264 182q-100 218 -190 393l-4 8l-8 -3q-44 -11 -81 -28l-10 -5l5 -10q9 -18 24.5 -46.5t21.5 -40.5q86 -165 100 -190q-344 188 -463 258q-106 190 -269 477zM898 869l431 -193q264 -430 314 -513h-1426v1053q67 -34 83 -67
q36 -74 -2 -147l-3 -6l4 -5q82 -108 157 -233l19 9q-11 27 -29 72t-26 64q-27 66 -32 78q33 40 42 93q55 -23 115.5 -49t100.5 -44t45 -20q2 -3 83 -117.5t171 -242.5t134 -193l18 11q-64 127 -199 450zM1651 235q-74 166 -181 389q131 -50 181 -68v-321zM371 1596
q108 -206 183 -362l-337 176v186h154zM1081 -11h-119v110h119v-110zM907 -11h-119v110h119v-110z" />
    <glyph glyph-name="J" unicode="j" horiz-adv-x="1875" 
d="M513 1596h1138v-995q-158 104 -264 182q-100 218 -190 393l-4 8l-8 -3q-44 -11 -81 -28l-10 -5l5 -10q9 -18 24.5 -46.5t21.5 -40.5q86 -165 100 -190q-344 188 -463 258q-106 190 -269 477zM898 869l431 -193q264 -430 314 -513h-1426v1053q67 -34 83 -67
q36 -74 -2 -147l-3 -6l4 -5q82 -108 157 -233l19 9q-11 27 -29 72t-26 64q-27 66 -32 78q33 40 42 93q55 -23 115.5 -49t100.5 -44t45 -20q2 -3 83 -117.5t171 -242.5t134 -193l18 11q-64 127 -199 450zM1651 235q-74 166 -181 389q131 -50 181 -68v-321zM371 1596
q108 -206 183 -362l-337 176v186h154zM1081 -11h-119v110h119v-110zM907 -11h-119v110h119v-110z" />
    <glyph glyph-name="K" unicode="K" horiz-adv-x="1880" 
d="M995 -10h-119v119h119v-119zM1169 -10h-119v119h119v-119zM821 -10h-119v119h119v-119zM219 1598h1433v-1434h-1433v1434zM1402 295q19 30 11 65q-17 144 -66 277l-14 -4q18 -95 12 -191q-2 -37 -34 -50q-72 -24 -266 110.5t-356 307.5q-95 101 -138.5 176.5t-28.5 112.5
q7 16 30.5 26.5t46.5 13.5q8 1 84 3q159 4 192 20q31 15 58 38t41 40.5t33 46.5q21 35 54 64q48 37 112 39q26 -26 46 -60q20 -33 41 -57l31 -32l-19 40q-2 5 -7.5 17t-8.5 19q-38 91 -91 181l-2 4h-5q-63 -6 -100.5 -22t-78.5 -61q-30 -37 -37 -82q-7 -27 -12 -41.5
t-21.5 -35.5t-43.5 -37q-38 -23 -116 -26.5t-128 2.5q-54 2 -58 2q-52 1 -103 -24q-25 -15 -53.5 -59t-22.5 -71q46 -166 164 -292q146 -154 273.5 -260.5t283.5 -179.5q117 -55 199 -55q69 0 98 35z" />
    <glyph glyph-name="K" unicode="k" horiz-adv-x="1880" 
d="M995 -10h-119v119h119v-119zM1169 -10h-119v119h119v-119zM821 -10h-119v119h119v-119zM219 1598h1433v-1434h-1433v1434zM1402 295q19 30 11 65q-17 144 -66 277l-14 -4q18 -95 12 -191q-2 -37 -34 -50q-72 -24 -266 110.5t-356 307.5q-95 101 -138.5 176.5t-28.5 112.5
q7 16 30.5 26.5t46.5 13.5q8 1 84 3q159 4 192 20q31 15 58 38t41 40.5t33 46.5q21 35 54 64q48 37 112 39q26 -26 46 -60q20 -33 41 -57l31 -32l-19 40q-2 5 -7.5 17t-8.5 19q-38 91 -91 181l-2 4h-5q-63 -6 -100.5 -22t-78.5 -61q-30 -37 -37 -82q-7 -27 -12 -41.5
t-21.5 -35.5t-43.5 -37q-38 -23 -116 -26.5t-128 2.5q-54 2 -58 2q-52 1 -103 -24q-25 -15 -53.5 -59t-22.5 -71q46 -166 164 -292q146 -154 273.5 -260.5t283.5 -179.5q117 -55 199 -55q69 0 98 35z" />
    <glyph glyph-name="L" unicode="L" 
d="M1008 1645h-119v119h119v-119zM1182 1645h-119v119h119v-119zM834 1645h-119v119h119v-119zM232 1597h1433v-1434h-1433v1434zM997 1058q-36 -35 -57 -72q-30 -63 10 -163q34 -75 89 -141l31 -41l-18 48q-53 134 -31 231q22 72 62 128l2 3q30 55 46 121l5 16
q26 78 -18 145l-19 27l6 -33q22 -122 -84 -244q-3 -4 -11.5 -12t-12.5 -13zM1478 660q24 71 -20 162q31 101 22 212q-5 108 -78 191q-50 48 -115 84q-12 7 -36 23q-97 62 -118 130l-17 52l3 -54q3 -85 94 -161q3 -3 46 -37q51 -35 92 -80q40 -48 46 -158q0 -88 -50 -158
q-91 -14 -157 -105q-69 -96 -47 -207q-29 -52 -90 -62q-60 -9 -108 28q13 82 0 165q-5 46 -31.5 84t-68.5 60q-87 46 -175 0q-79 -38 -142 -109q-22 6 -24 31q-1 21 9 47q38 29 58 74q22 46 12 94q-11 48 -54 74q5 20 21 30q20 13 41 4q20 -28 52 -42q52 -20 101 1
q48 20 83 58q86 83 104 197q11 54 -21 100q-38 44 -97 38q-55 -8 -96 -40q-61 -46 -97.5 -113t-41.5 -144q-34 -2 -60 -23q-26 -23 -29 -55q-52 14 -80 -7q-26 -25 -29 -56q-13 -69 9 -142q8 -29 27 -50q18 -18 44 -17q-6 -23 1 -51q8 -29 32 -47q-20 -37 -9 -77
q10 -39 34 -77q92 -152 242 -243q26 -11 52 0q19 10 35 28q62 66 82 156q67 -36 140 -21q74 15 121 78q43 -18 92 -13q-34 -56 -40 -119q-2 -37 14.5 -72t50.5 -50l29 -13l-20 25q-41 59 -16 122q22 65 72 114q7 8 23 24q69 73 83 117zM646 1094q-25 7 -20 50q7 72 46.5 132
t103.5 94q51 24 75 -13q13 -19 0 -65q-25 -78 -76 -135q-33 -41 -68.5 -55.5t-60.5 -7.5zM778 751q35 -13 47 -78t1 -142q-10 -67 -32.5 -110t-48.5 -44q-34 -2 -97 67.5t-81 123.5q-17 51 16 101t81 70q38 16 82 16q19 0 32 -4zM509 980q17 -36 2 -73q-5 -20 -12.5 -34
t-14.5 -21.5t-13 -10t-11 -1.5q-22 6 -31.5 28.5t-9.5 71.5q-3 30 18 54q17 13 37 8q22 -3 35 -22zM1393 797q15 -10 18 -30q13 -57 -44 -134q-35 -47 -97 -54q-31 -5 -55 16q-23 23 -4 77q15 47 48 83q52 52 94 52q20 0 40 -10z" />
    <glyph glyph-name="L" unicode="l" 
d="M1008 1645h-119v119h119v-119zM1182 1645h-119v119h119v-119zM834 1645h-119v119h119v-119zM232 1597h1433v-1434h-1433v1434zM997 1058q-36 -35 -57 -72q-30 -63 10 -163q34 -75 89 -141l31 -41l-18 48q-53 134 -31 231q22 72 62 128l2 3q30 55 46 121l5 16
q26 78 -18 145l-19 27l6 -33q22 -122 -84 -244q-3 -4 -11.5 -12t-12.5 -13zM1478 660q24 71 -20 162q31 101 22 212q-5 108 -78 191q-50 48 -115 84q-12 7 -36 23q-97 62 -118 130l-17 52l3 -54q3 -85 94 -161q3 -3 46 -37q51 -35 92 -80q40 -48 46 -158q0 -88 -50 -158
q-91 -14 -157 -105q-69 -96 -47 -207q-29 -52 -90 -62q-60 -9 -108 28q13 82 0 165q-5 46 -31.5 84t-68.5 60q-87 46 -175 0q-79 -38 -142 -109q-22 6 -24 31q-1 21 9 47q38 29 58 74q22 46 12 94q-11 48 -54 74q5 20 21 30q20 13 41 4q20 -28 52 -42q52 -20 101 1
q48 20 83 58q86 83 104 197q11 54 -21 100q-38 44 -97 38q-55 -8 -96 -40q-61 -46 -97.5 -113t-41.5 -144q-34 -2 -60 -23q-26 -23 -29 -55q-52 14 -80 -7q-26 -25 -29 -56q-13 -69 9 -142q8 -29 27 -50q18 -18 44 -17q-6 -23 1 -51q8 -29 32 -47q-20 -37 -9 -77
q10 -39 34 -77q92 -152 242 -243q26 -11 52 0q19 10 35 28q62 66 82 156q67 -36 140 -21q74 15 121 78q43 -18 92 -13q-34 -56 -40 -119q-2 -37 14.5 -72t50.5 -50l29 -13l-20 25q-41 59 -16 122q22 65 72 114q7 8 23 24q69 73 83 117zM646 1094q-25 7 -20 50q7 72 46.5 132
t103.5 94q51 24 75 -13q13 -19 0 -65q-25 -78 -76 -135q-33 -41 -68.5 -55.5t-60.5 -7.5zM778 751q35 -13 47 -78t1 -142q-10 -67 -32.5 -110t-48.5 -44q-34 -2 -97 67.5t-81 123.5q-17 51 16 101t81 70q38 16 82 16q19 0 32 -4zM509 980q17 -36 2 -73q-5 -20 -12.5 -34
t-14.5 -21.5t-13 -10t-11 -1.5q-22 6 -31.5 28.5t-9.5 71.5q-3 30 18 54q17 13 37 8q22 -3 35 -22zM1393 797q15 -10 18 -30q13 -57 -44 -134q-35 -47 -97 -54q-31 -5 -55 16q-23 23 -4 77q15 47 48 83q52 52 94 52q20 0 40 -10z" />
    <glyph glyph-name="M" unicode="M" horiz-adv-x="2144" 
d="M270 1676v-573h40v-119h-119v119h40v612h612v40h119v-119h-119v40h-573zM1834 762h119v-119h-40v-598h-612v-40h-118v119h118v-40h573v559h-40v119zM626 1403q55 -7 129.5 -21t129 -19t131.5 0q-238 -449 -557 -1200h-104v841q36 53 129.5 189t141.5 210zM1789 887v-724
h-1077q66 32 351 175.5t418 205.5q29 32 92 104.5t115.5 131t100.5 107.5zM355 1052v545h1118q-99 -60 -209 -93.5t-226.5 -41t-219 -1.5t-226.5 24q-43 -79 -122.5 -224t-114.5 -209zM1266 1406q163 85 248 191h275v-663q-47 -35 -96 -75t-75 -63l-25 -22q41 140 28 282
q-28 -111 -55.5 -191.5t-54.5 -126.5t-44.5 -67.5t-41.5 -42.5q-100 -60 -277 -149.5t-304 -148.5l-127 -59q37 86 97.5 222.5t207 442t244.5 470.5z" />
    <glyph glyph-name="M" unicode="m" horiz-adv-x="2144" 
d="M270 1676v-573h40v-119h-119v119h40v612h612v40h119v-119h-119v40h-573zM1834 762h119v-119h-40v-598h-612v-40h-118v119h118v-40h573v559h-40v119zM626 1403q55 -7 129.5 -21t129 -19t131.5 0q-238 -449 -557 -1200h-104v841q36 53 129.5 189t141.5 210zM1789 887v-724
h-1077q66 32 351 175.5t418 205.5q29 32 92 104.5t115.5 131t100.5 107.5zM355 1052v545h1118q-99 -60 -209 -93.5t-226.5 -41t-219 -1.5t-226.5 24q-43 -79 -122.5 -224t-114.5 -209zM1266 1406q163 85 248 191h275v-663q-47 -35 -96 -75t-75 -63l-25 -22q41 140 28 282
q-28 -111 -55.5 -191.5t-54.5 -126.5t-44.5 -67.5t-41.5 -42.5q-100 -60 -277 -149.5t-304 -148.5l-127 -59q37 86 97.5 222.5t207 442t244.5 470.5z" />
    <glyph glyph-name="N" unicode="N" horiz-adv-x="1990" 
d="M772 84v40h118v-119h-118v40h-612v612h-40v119h118v-119h-39v-573h573zM1830 1115h40v-118h-119v118h40v573h-570v-40h-118v119h118v-40h609v-612zM939 1369q-238 -449 -557 -1200h-104v841q32 48 126.5 186t143.5 213q55 -7 129.5 -21t129.5 -19t132 0zM635 169
q49 24 342 170.5t427 209.5q30 34 92 105t115 130.5t101 108.5v-724h-1077zM1396 1603q-99 -60 -209 -93.5t-226.5 -41t-219 -1.5t-226.5 24q-91 -166 -237 -433v545h1118zM1188 1412q165 86 249 191h275v-663q-47 -35 -96 -75t-74 -63l-26 -22q41 137 27 282
q-28 -111 -55.5 -191.5t-54.5 -126.5t-44 -67.5t-41 -42.5q-100 -60 -277 -149.5t-305 -148.5l-127 -59q37 86 97.5 222.5t207 442t244.5 470.5z" />
    <glyph glyph-name="N" unicode="&#xf1;" horiz-adv-x="1990" 
d="M772 84v40h118v-119h-118v40h-612v612h-40v119h118v-119h-39v-573h573zM1830 1115h40v-118h-119v118h40v573h-570v-40h-118v119h118v-40h609v-612zM939 1369q-238 -449 -557 -1200h-104v841q32 48 126.5 186t143.5 213q55 -7 129.5 -21t129.5 -19t132 0zM635 169
q49 24 342 170.5t427 209.5q30 34 92 105t115 130.5t101 108.5v-724h-1077zM1396 1603q-99 -60 -209 -93.5t-226.5 -41t-219 -1.5t-226.5 24q-91 -166 -237 -433v545h1118zM1188 1412q165 86 249 191h275v-663q-47 -35 -96 -75t-74 -63l-26 -22q41 137 27 282
q-28 -111 -55.5 -191.5t-54.5 -126.5t-44 -67.5t-41 -42.5q-100 -60 -277 -149.5t-305 -148.5l-127 -59q37 86 97.5 222.5t207 442t244.5 470.5z" />
    <glyph glyph-name="N" unicode="&#xd1;" horiz-adv-x="1990" 
d="M772 84v40h118v-119h-118v40h-612v612h-40v119h118v-119h-39v-573h573zM1830 1115h40v-118h-119v118h40v573h-570v-40h-118v119h118v-40h609v-612zM939 1369q-238 -449 -557 -1200h-104v841q32 48 126.5 186t143.5 213q55 -7 129.5 -21t129.5 -19t132 0zM635 169
q49 24 342 170.5t427 209.5q30 34 92 105t115 130.5t101 108.5v-724h-1077zM1396 1603q-99 -60 -209 -93.5t-226.5 -41t-219 -1.5t-226.5 24q-91 -166 -237 -433v545h1118zM1188 1412q165 86 249 191h275v-663q-47 -35 -96 -75t-74 -63l-26 -22q41 137 27 282
q-28 -111 -55.5 -191.5t-54.5 -126.5t-44 -67.5t-41 -42.5q-100 -60 -277 -149.5t-305 -148.5l-127 -59q37 86 97.5 222.5t207 442t244.5 470.5z" />
    <glyph glyph-name="N" unicode="n" horiz-adv-x="1990" 
d="M772 84v40h118v-119h-118v40h-612v612h-40v119h118v-119h-39v-573h573zM1830 1115h40v-118h-119v118h40v573h-570v-40h-118v119h118v-40h609v-612zM939 1369q-238 -449 -557 -1200h-104v841q32 48 126.5 186t143.5 213q55 -7 129.5 -21t129.5 -19t132 0zM635 169
q49 24 342 170.5t427 209.5q30 34 92 105t115 130.5t101 108.5v-724h-1077zM1396 1603q-99 -60 -209 -93.5t-226.5 -41t-219 -1.5t-226.5 24q-91 -166 -237 -433v545h1118zM1188 1412q165 86 249 191h275v-663q-47 -35 -96 -75t-74 -63l-26 -22q41 137 27 282
q-28 -111 -55.5 -191.5t-54.5 -126.5t-44 -67.5t-41 -42.5q-100 -60 -277 -149.5t-305 -148.5l-127 -59q37 86 97.5 222.5t207 442t244.5 470.5z" />
    <glyph glyph-name="P" unicode="P" horiz-adv-x="1996" 
d="M1838 1103h40v-118h-118v118h39v571h-573v-40h-118v119h118v-40h612v-610zM768 84v40h119v-118h-119v39h-612v605h-40v119h119v-119h-40v-566h573zM1481 163q127 73 219 165l14 16v-181h-233zM1417 1006q-9 -83 -26.5 -234.5t-18.5 -155.5q-23 -12 -49 -26t-80.5 -49.5
t-97.5 -72t-84 -88.5t-57 -102q-19 -59 -3 -115h-720v698q169 79 251.5 121t94 50.5t9.5 14.5t-23 30q-167 196 -161 255q0 8 7 13q7 3 12 2q27 -4 80.5 -54.5t95.5 -100.5t74 -93l5 -6l531 282q28 -49 38 -69q-66 -41 -110.5 -69.5t-122.5 -80.5t-132 -95.5t-111.5 -94.5
t-92 -99t-43.5 -88q-11 -41 11 -77q8 -17 27 -22q7 -2 23 -2q87 0 286 103.5t387 224.5zM281 902v694h1433v-1238l-26 -15q-228 -133 -407 -180h-151q-11 9 -15 18q-16 40 1 77q16 40 62 84.5t97.5 78.5t105.5 63.5t85 43.5t36 16l5 2l1 5q5 28 11 61.5t15.5 92t17.5 112
t15.5 114t11.5 106t3.5 79t-7.5 41.5q-3 5 -10 5q-16 2 -75.5 -29.5t-210.5 -120.5q-92 -54 -142.5 -83t-138 -77t-135 -67t-55.5 -9q-1 1 0 4q6 31 124 123t263.5 188.5t294.5 187.5l7 4l-129 242l-8 -4q-369 -185 -579 -306q-22 19 -73 66q-63 59 -102 91q-10 8 -27 18.5
t-48.5 25t-68 13t-66.5 -23.5q-24 -18 -27 -44q-4 -28 8.5 -67t41.5 -86t46 -71.5t47 -65.5l5 -6q-117 -79 -236 -163z" />
    <glyph glyph-name="P" unicode="p" horiz-adv-x="1996" 
d="M1838 1103h40v-118h-118v118h39v571h-573v-40h-118v119h118v-40h612v-610zM768 84v40h119v-118h-119v39h-612v605h-40v119h119v-119h-40v-566h573zM1481 163q127 73 219 165l14 16v-181h-233zM1417 1006q-9 -83 -26.5 -234.5t-18.5 -155.5q-23 -12 -49 -26t-80.5 -49.5
t-97.5 -72t-84 -88.5t-57 -102q-19 -59 -3 -115h-720v698q169 79 251.5 121t94 50.5t9.5 14.5t-23 30q-167 196 -161 255q0 8 7 13q7 3 12 2q27 -4 80.5 -54.5t95.5 -100.5t74 -93l5 -6l531 282q28 -49 38 -69q-66 -41 -110.5 -69.5t-122.5 -80.5t-132 -95.5t-111.5 -94.5
t-92 -99t-43.5 -88q-11 -41 11 -77q8 -17 27 -22q7 -2 23 -2q87 0 286 103.5t387 224.5zM281 902v694h1433v-1238l-26 -15q-228 -133 -407 -180h-151q-11 9 -15 18q-16 40 1 77q16 40 62 84.5t97.5 78.5t105.5 63.5t85 43.5t36 16l5 2l1 5q5 28 11 61.5t15.5 92t17.5 112
t15.5 114t11.5 106t3.5 79t-7.5 41.5q-3 5 -10 5q-16 2 -75.5 -29.5t-210.5 -120.5q-92 -54 -142.5 -83t-138 -77t-135 -67t-55.5 -9q-1 1 0 4q6 31 124 123t263.5 188.5t294.5 187.5l7 4l-129 242l-8 -4q-369 -185 -579 -306q-22 19 -73 66q-63 59 -102 91q-10 8 -27 18.5
t-48.5 25t-68 13t-66.5 -23.5q-24 -18 -27 -44q-4 -28 8.5 -67t41.5 -86t46 -71.5t47 -65.5l5 -6q-117 -79 -236 -163z" />
    <glyph glyph-name="Q" unicode="Q" horiz-adv-x="1927" 
d="M760 84v40h119v-118h-119v39h-612v608h-40v119h119v-119h-40v-569h573zM764 1599h934v-1434h-492q-63 89 -106 191q-34 80 -18 128q13 33 43 53t65 22q73 2 132 -46q55 -45 102 -106l47 -56l-31 66q-41 94 -118 162q-79 72 -187 67q-38 -3 -64 -15q-1 58 -14 90.5
t-48 67.5q-68 63 -155 109q33 14 48 46q15 41 -3 85q65 8 114 52q-6 -130 89 -219l5 -5q113 -113 181 -147l34 -17l-22 31q-12 17 -32 44q-32 43 -49 67.5t-43 69t-34 74t-4.5 63t28.5 54.5q37 34 87 29q81 -8 171 -115v-1q51 -60 107 -185q11 -25 35 -75l16 -33l2 36
q5 98 -26.5 200.5t-86.5 166.5q-60 72 -123 106.5t-149 45.5q-59 -1 -114 -21q3 91 -49 163q-78 111 -164 146q-66 27 -108 40zM946 428q8 -141 146 -263h-827v1434h309q195 -60 273 -137l2 -3q10 -9 15.5 -15t16 -18.5t17 -22.5t14 -25t11 -29t3.5 -31.5t-5 -34.5
q-16 -61 -124 -97q-43 29 -99 53t-98 36t-92 22t-63 11.5t-30 3.5l-65 6l61 -24l39 -16q38 -16 91.5 -40t83.5 -40q112 -60 133 -131q13 -36 -11 -65q-23 -21 -84 -5l-223 58l-7 -18q14 -5 89.5 -43t186.5 -110.5t158 -133.5q30 -36 44 -83q18 -48 -15 -87q-33 -40 -83 -32
q-51 5 -95 29q-51 26 -106.5 66.5t-89 69t-93.5 83.5l-41 37l26 -48q46 -88 120.5 -179t174.5 -151q83 -54 186 -45q26 6 47 21l3 2q0 -1 0.5 -2.5t0.5 -2.5z" />
    <glyph glyph-name="Q" unicode="q" horiz-adv-x="1927" 
d="M760 84v40h119v-118h-119v39h-612v608h-40v119h119v-119h-40v-569h573zM764 1599h934v-1434h-492q-63 89 -106 191q-34 80 -18 128q13 33 43 53t65 22q73 2 132 -46q55 -45 102 -106l47 -56l-31 66q-41 94 -118 162q-79 72 -187 67q-38 -3 -64 -15q-1 58 -14 90.5
t-48 67.5q-68 63 -155 109q33 14 48 46q15 41 -3 85q65 8 114 52q-6 -130 89 -219l5 -5q113 -113 181 -147l34 -17l-22 31q-12 17 -32 44q-32 43 -49 67.5t-43 69t-34 74t-4.5 63t28.5 54.5q37 34 87 29q81 -8 171 -115v-1q51 -60 107 -185q11 -25 35 -75l16 -33l2 36
q5 98 -26.5 200.5t-86.5 166.5q-60 72 -123 106.5t-149 45.5q-59 -1 -114 -21q3 91 -49 163q-78 111 -164 146q-66 27 -108 40zM946 428q8 -141 146 -263h-827v1434h309q195 -60 273 -137l2 -3q10 -9 15.5 -15t16 -18.5t17 -22.5t14 -25t11 -29t3.5 -31.5t-5 -34.5
q-16 -61 -124 -97q-43 29 -99 53t-98 36t-92 22t-63 11.5t-30 3.5l-65 6l61 -24l39 -16q38 -16 91.5 -40t83.5 -40q112 -60 133 -131q13 -36 -11 -65q-23 -21 -84 -5l-223 58l-7 -18q14 -5 89.5 -43t186.5 -110.5t158 -133.5q30 -36 44 -83q18 -48 -15 -87q-33 -40 -83 -32
q-51 5 -95 29q-51 26 -106.5 66.5t-89 69t-93.5 83.5l-41 37l26 -48q46 -88 120.5 -179t174.5 -151q83 -54 186 -45q26 6 47 21l3 2q0 -1 0.5 -2.5t0.5 -2.5z" />
    <glyph glyph-name="R" unicode="R" horiz-adv-x="1949" 
d="M1793 1105h40v-119h-119v119h40v570h-573v-40h-119v118h119v-39h612v-609zM609 1110q-27 125 -12.5 242.5t74.5 244.5h994v-706q-51 -48 -89 -102q-6 -9 -17.5 -23.5t-15.5 -20.5q-73 -100 -121 -160q-90 -106 -225 -132q24 238 19 428.5t-43 451.5l-11 79l-6 -79
q-12 -151 -54 -295t-104 -201q-29 -27 -71 -55q-30 -21 -46.5 -34.5t-36.5 -37.5t-31 -52q-6 10 -18 32.5t-19 33.5q-47 81 -70.5 126t-52.5 117t-44 143zM1323 343q54 36 104.5 95t78 102.5t73.5 122.5q52 91 86 140v-640h-1433v1434h375q-105 -97 -171 -223.5t-86 -267.5
q-23 -167 22.5 -329t152.5 -293l47 -57l-32 66q-22 46 -41.5 95.5t-41 129.5t-30.5 156.5t-0.5 170t39.5 176.5q1 -86 27 -184t50 -157t73 -168q102 -227 128 -350l2 -11l10 5q67 32 103 132q10 31 13 41q10 36 17.5 57.5t24 52t37.5 49.5q11 10 24 21q108 84 161 209
q-13 -145 -46 -364q-15 -100 -43 -165t-99 -149l-15 -17l23 3q126 20 211 44.5t156 72.5z" />
    <glyph glyph-name="R" unicode="r" horiz-adv-x="1949" 
d="M1793 1105h40v-119h-119v119h40v570h-573v-40h-119v118h119v-39h612v-609zM609 1110q-27 125 -12.5 242.5t74.5 244.5h994v-706q-51 -48 -89 -102q-6 -9 -17.5 -23.5t-15.5 -20.5q-73 -100 -121 -160q-90 -106 -225 -132q24 238 19 428.5t-43 451.5l-11 79l-6 -79
q-12 -151 -54 -295t-104 -201q-29 -27 -71 -55q-30 -21 -46.5 -34.5t-36.5 -37.5t-31 -52q-6 10 -18 32.5t-19 33.5q-47 81 -70.5 126t-52.5 117t-44 143zM1323 343q54 36 104.5 95t78 102.5t73.5 122.5q52 91 86 140v-640h-1433v1434h375q-105 -97 -171 -223.5t-86 -267.5
q-23 -167 22.5 -329t152.5 -293l47 -57l-32 66q-22 46 -41.5 95.5t-41 129.5t-30.5 156.5t-0.5 170t39.5 176.5q1 -86 27 -184t50 -157t73 -168q102 -227 128 -350l2 -11l10 5q67 32 103 132q10 31 13 41q10 36 17.5 57.5t24 52t37.5 49.5q11 10 24 21q108 84 161 209
q-13 -145 -46 -364q-15 -100 -43 -165t-99 -149l-15 -17l23 3q126 20 211 44.5t156 72.5z" />
    <glyph glyph-name="S" unicode="S" horiz-adv-x="2017" 
d="M274 1683v-586h41v-123h-122v123h41v626h631v41h122v-122h-122v41h-591zM606 1534q44 3 195 -84.5t259 -183.5q34 -29 15 -72q-27 -55 -78 -107q-69 82 -163.5 132.5t-200.5 62.5q-19 51 -28.5 111t-7.5 92t4 48q1 1 5 1zM1555 672l-274 243q-37 31 -64 65q-1 32 24 57
t57 31q73 8 130 -37q92 -63 125 -171q28 -91 2 -188zM1335 204q16 -13 29 -31q1 -1 3.5 -5t4.5 -5h-1022v1433h190q-2 -6 -2 -10q-15 -187 41 -318q-8 -30 2 -56l3 -15q6 -35 36 -54q-9 -29 9 -55q-37 -29 -49 -72q-13 -35 14 -117q-28 -55 -24 -116.5t38 -112.5
q113 -178 280 -253q60 -30 120 -2q33 -58 88 -58h1q5 -73 66 -112q42 -19 86 -20q68 -8 86 -21zM671 853q1 0 4 0.5t4 0.5q40 0 102 -42t99 -79q78 -78 112.5 -137t15.5 -81q-21 -27 -59 -29q-74 -2 -186 115l-6 6q-152 153 -112 228q8 16 26 18zM1136 992q40 -33 73 -73
q19 -23 42 -45q48 -46 93 -79q43 -33 50 -39q70 -55 110 -128q-30 -10 -63.5 2.5t-59.5 37.5q-30 32 -56 71q-31 44 -38 52q-66 80 -164 112q-26 10 -51 7q-32 -3 -42 -34q-5 -36 20 -59q50 -62 113 -110q3 -2 10 -7t10 -8q40 -26 72 -65q17 -22 22 -50t-8 -54
q-47 -8 -85 -35.5t-58 -69.5q-20 -8 -41 -1.5t-32 25.5q54 45 71 111q14 77 -30 140q-11 16 -41.5 48.5t-81 77.5t-106 77t-116.5 47.5t-112 -10.5q-12 28 -3 57q9 31 37 46q83 -87 199 -118q56 -15 80 15q17 25 6 53q-10 23 -29 42q-107 116 -265 147q-21 13 -19 39
q1 15 10 19q14 3 25 -2q177 -59 301 -206l4 -5l7 3q67 29 146 -31zM1411 357q24 -77 -17 -146q-27 33 -68 52q-31 14 -38 17q-34 14 -50 23q-41 20 -58 64q4 36 37 62t74 24q42 -4 74.5 -30t45.5 -66zM745 1597h1039v-1434h-329q82 119 57 207q-16 55 -65 105.5t-106 71.5
q14 33 -19 76q10 2 17 7q52 -50 122 -64q86 -8 144 58q56 69 56 126q0 180 -47 262q-34 59 -98 111t-127 63q-61 10 -131.5 -31.5t-105.5 -99.5q-29 25 -71 28q49 55 87 126q20 38 11 80t-44 68q-193 140 -390 240zM883 983q-5 -8 -28.5 -2t-47.5 21q-50 31 -89.5 68
t-40.5 49q2 2 4 2q19 3 67 -23t89 -57q24 -19 37 -35.5t9 -22.5zM1101 847q48 -18 88 -53t85 -87q5 -5 6 -10v-4l-8 4q-97 57 -171 150z" />
    <glyph glyph-name="S" unicode="s" horiz-adv-x="2017" 
d="M274 1683v-586h41v-123h-122v123h41v626h631v41h122v-122h-122v41h-591zM606 1534q44 3 195 -84.5t259 -183.5q34 -29 15 -72q-27 -55 -78 -107q-69 82 -163.5 132.5t-200.5 62.5q-19 51 -28.5 111t-7.5 92t4 48q1 1 5 1zM1555 672l-274 243q-37 31 -64 65q-1 32 24 57
t57 31q73 8 130 -37q92 -63 125 -171q28 -91 2 -188zM1335 204q16 -13 29 -31q1 -1 3.5 -5t4.5 -5h-1022v1433h190q-2 -6 -2 -10q-15 -187 41 -318q-8 -30 2 -56l3 -15q6 -35 36 -54q-9 -29 9 -55q-37 -29 -49 -72q-13 -35 14 -117q-28 -55 -24 -116.5t38 -112.5
q113 -178 280 -253q60 -30 120 -2q33 -58 88 -58h1q5 -73 66 -112q42 -19 86 -20q68 -8 86 -21zM671 853q1 0 4 0.5t4 0.5q40 0 102 -42t99 -79q78 -78 112.5 -137t15.5 -81q-21 -27 -59 -29q-74 -2 -186 115l-6 6q-152 153 -112 228q8 16 26 18zM1136 992q40 -33 73 -73
q19 -23 42 -45q48 -46 93 -79q43 -33 50 -39q70 -55 110 -128q-30 -10 -63.5 2.5t-59.5 37.5q-30 32 -56 71q-31 44 -38 52q-66 80 -164 112q-26 10 -51 7q-32 -3 -42 -34q-5 -36 20 -59q50 -62 113 -110q3 -2 10 -7t10 -8q40 -26 72 -65q17 -22 22 -50t-8 -54
q-47 -8 -85 -35.5t-58 -69.5q-20 -8 -41 -1.5t-32 25.5q54 45 71 111q14 77 -30 140q-11 16 -41.5 48.5t-81 77.5t-106 77t-116.5 47.5t-112 -10.5q-12 28 -3 57q9 31 37 46q83 -87 199 -118q56 -15 80 15q17 25 6 53q-10 23 -29 42q-107 116 -265 147q-21 13 -19 39
q1 15 10 19q14 3 25 -2q177 -59 301 -206l4 -5l7 3q67 29 146 -31zM1411 357q24 -77 -17 -146q-27 33 -68 52q-31 14 -38 17q-34 14 -50 23q-41 20 -58 64q4 36 37 62t74 24q42 -4 74.5 -30t45.5 -66zM745 1597h1039v-1434h-329q82 119 57 207q-16 55 -65 105.5t-106 71.5
q14 33 -19 76q10 2 17 7q52 -50 122 -64q86 -8 144 58q56 69 56 126q0 180 -47 262q-34 59 -98 111t-127 63q-61 10 -131.5 -31.5t-105.5 -99.5q-29 25 -71 28q49 55 87 126q20 38 11 80t-44 68q-193 140 -390 240zM883 983q-5 -8 -28.5 -2t-47.5 21q-50 31 -89.5 68
t-40.5 49q2 2 4 2q19 3 67 -23t89 -57q24 -19 37 -35.5t9 -22.5zM1101 847q48 -18 88 -53t85 -87q5 -5 6 -10v-4l-8 4q-97 57 -171 150z" />
    <glyph glyph-name="T" unicode="T" horiz-adv-x="1961" 
d="M1805 1094h41v-123h-123v123h41v589h-590v-41h-123v122h123v-41h631v-629zM879 1087q-69 82 -163.5 132.5t-200.5 62.5q-19 51 -28.5 111t-8 92t3.5 48q1 1 5 1q44 3 195 -84.5t259 -183.5q34 -29 15 -72q-28 -57 -77 -107zM1436 672l-273 243q-40 33 -65 65q-1 32 24 57
t57 31q73 8 130 -37q92 -63 125 -171q28 -91 2 -188zM1216 204q16 -13 29 -31q1 -1 4 -5t4 -5h-1021v1433h189q-2 -6 -2 -10q-14 -185 42 -318q-8 -30 2 -56l3 -15q6 -35 36 -54q-9 -30 8 -55q-37 -29 -49 -72q-13 -34 15 -117q-28 -55 -24 -116.5t38 -112.5
q114 -179 279 -253q61 -30 121 -2q33 -58 87 -58h2q5 -73 65 -112q42 -19 86 -20q68 -8 86 -21zM552 853q2 0 4 0.5t4 0.5q40 0 102 -42t99 -79q79 -79 113.5 -137.5t14.5 -80.5q-21 -27 -58 -29q-75 -2 -187 115l-6 6q-152 153 -112 228q8 16 26 18zM1017 992
q43 -35 74 -73q26 -30 41 -45q45 -43 94 -79q35 -27 49 -39q70 -55 110 -128q-30 -10 -63 2.5t-59 37.5q-34 35 -57 71q-31 44 -38 52q-66 80 -164 112q-26 10 -51 7q-32 -3 -42 -35q-5 -35 20 -58q50 -62 113 -110q3 -2 10 -7t10 -8q40 -26 72 -65q17 -22 22 -50t-8 -54
q-47 -8 -85 -35.5t-58 -69.5q-20 -8 -40.5 -1.5t-31.5 25.5q54 45 71 111q14 76 -31 140q-11 16 -41.5 48.5t-81 77.5t-106 77t-116.5 47.5t-112 -10.5q-12 28 -3 57q9 31 37 46q83 -87 199 -118q56 -15 80 15q17 25 6 53q-10 23 -29 42q-107 116 -264 147q-22 13 -20 39
q1 15 11 19q13 3 24 -2q179 -61 301 -206l5 -5l6 3q67 29 146 -31zM1292 357q24 -77 -17 -146q-27 33 -68 52q-31 14 -38 17q-34 14 -50 23q-41 20 -58 64q4 36 37 62t74 24q42 -4 74.5 -30t45.5 -66zM1017 1357q-191 138 -391 240h1039v-1434h-329q82 119 57 207
q-16 55 -64.5 105.5t-105.5 71.5q14 33 -20 76q10 2 17 7q52 -50 122 -64q86 -8 144 58q57 70 57 126q0 180 -47 262q-34 59 -98.5 111t-127.5 63q-61 10 -131 -31t-105 -100q-29 25 -72 28q49 55 87 126q20 38 11 80t-43 68zM765 983q-5 -8 -29 -2t-48 21q-50 31 -89.5 68
t-40.5 49q2 2 5 2q19 3 67 -23t89 -57q24 -19 37 -35.5t9 -22.5zM982 847q48 -18 88 -53t85 -87q6 -6 7 -10v-4l-8 4q-99 58 -172 150z" />
    <glyph glyph-name="T" unicode="t" horiz-adv-x="1961" 
d="M1805 1094h41v-123h-123v123h41v589h-590v-41h-123v122h123v-41h631v-629zM879 1087q-69 82 -163.5 132.5t-200.5 62.5q-19 51 -28.5 111t-8 92t3.5 48q1 1 5 1q44 3 195 -84.5t259 -183.5q34 -29 15 -72q-28 -57 -77 -107zM1436 672l-273 243q-40 33 -65 65q-1 32 24 57
t57 31q73 8 130 -37q92 -63 125 -171q28 -91 2 -188zM1216 204q16 -13 29 -31q1 -1 4 -5t4 -5h-1021v1433h189q-2 -6 -2 -10q-14 -185 42 -318q-8 -30 2 -56l3 -15q6 -35 36 -54q-9 -30 8 -55q-37 -29 -49 -72q-13 -34 15 -117q-28 -55 -24 -116.5t38 -112.5
q114 -179 279 -253q61 -30 121 -2q33 -58 87 -58h2q5 -73 65 -112q42 -19 86 -20q68 -8 86 -21zM552 853q2 0 4 0.5t4 0.5q40 0 102 -42t99 -79q79 -79 113.5 -137.5t14.5 -80.5q-21 -27 -58 -29q-75 -2 -187 115l-6 6q-152 153 -112 228q8 16 26 18zM1017 992
q43 -35 74 -73q26 -30 41 -45q45 -43 94 -79q35 -27 49 -39q70 -55 110 -128q-30 -10 -63 2.5t-59 37.5q-34 35 -57 71q-31 44 -38 52q-66 80 -164 112q-26 10 -51 7q-32 -3 -42 -35q-5 -35 20 -58q50 -62 113 -110q3 -2 10 -7t10 -8q40 -26 72 -65q17 -22 22 -50t-8 -54
q-47 -8 -85 -35.5t-58 -69.5q-20 -8 -40.5 -1.5t-31.5 25.5q54 45 71 111q14 76 -31 140q-11 16 -41.5 48.5t-81 77.5t-106 77t-116.5 47.5t-112 -10.5q-12 28 -3 57q9 31 37 46q83 -87 199 -118q56 -15 80 15q17 25 6 53q-10 23 -29 42q-107 116 -264 147q-22 13 -20 39
q1 15 11 19q13 3 24 -2q179 -61 301 -206l5 -5l6 3q67 29 146 -31zM1292 357q24 -77 -17 -146q-27 33 -68 52q-31 14 -38 17q-34 14 -50 23q-41 20 -58 64q4 36 37 62t74 24q42 -4 74.5 -30t45.5 -66zM1017 1357q-191 138 -391 240h1039v-1434h-329q82 119 57 207
q-16 55 -64.5 105.5t-105.5 71.5q14 33 -20 76q10 2 17 7q52 -50 122 -64q86 -8 144 58q57 70 57 126q0 180 -47 262q-34 59 -98.5 111t-127.5 63q-61 10 -131 -31t-105 -100q-29 25 -72 28q49 55 87 126q20 38 11 80t-43 68zM765 983q-5 -8 -29 -2t-48 21q-50 31 -89.5 68
t-40.5 49q2 2 5 2q19 3 67 -23t89 -57q24 -19 37 -35.5t9 -22.5zM982 847q48 -18 88 -53t85 -87q6 -6 7 -10v-4l-8 4q-99 58 -172 150z" />
    <glyph glyph-name="V" unicode="V" horiz-adv-x="2011" 
d="M1699 805h122v-122h-41v-628h-631v-41h-122v122h122v-41h591v588h-41v122zM829 408q17 -17 25.5 -30.5t17 -41.5t-5.5 -66t-50 -83q-8 -11 -11 -23h-131q-25 39 -28.5 97t4.5 109q12 145 -42 233q-71 123 -114 245q-51 146 -11 262q16 38 46 67q26 26 46 66q21 55 13 115
v2q167 -48 203 -120q21 -42 -3 -82l-1 -2q-19 -37 -112 -154q-46 -58 -64 -127q-30 -94 12 -208q56 -152 166 -226q15 -9 33 -25q1 -1 3 -3.5t4 -4.5zM506 382q3 -55 38.5 -116.5t85.5 -101.5h-411v1433h1434v-1433h-123q29 102 26 247t-18 260t-34 193q-64 251 -169 397
q-63 87 -151 148.5t-192 90.5l-33 9l23 -23q40 -46 61 -102q18 -67 7 -105t-35 -47q-19 -9 -43.5 -6t-36.5 19q-19 70 -81 128t-151 89q-167 53 -339 47l-25 -1l18 -15q59 -49 89.5 -108t8.5 -108q-17 -33 -38 -58q-21 -26 -34 -47q-67 -117 27 -291q41 -77 64 -131.5
t37 -120.5q11 -67 0 -143q-6 -55 -5 -104zM958 874q-27 -22 -50 -47q-66 -77 -60 -177q6 -86 57 -157q-6 -1 -13 -5q-9 -5 -14 -18q-57 50 -115 116q-68 77 -91 179q-19 106 44 191q89 114 190 217q26 -22 60 -26.5t65 9.5q-24 -35 -14 -76q5 -18 12 -36q10 -24 12 -37
q7 -46 -44 -97q-20 -19 -39 -36zM1170 1215q67 -42 123 -131t90.5 -199.5t58 -239t25.5 -250t-7 -231.5h-589q6 7 21 22q22 20 39 47q33 53 12 114q-24 68 -4 79q6 3 13 4t16 -2.5t16 -6.5t18 -11t17.5 -12.5t18 -15t15.5 -14t15 -13.5q16 -15 27 -24q71 -56 133 -50
q32 5 55 14q13 5 29 10q21 6 43 -9t35 -50l12 -31l7 32q14 48 -16 88q-20 24 -52 26h-48h-36q-100 2 -201 110q-84 90 -105 173q-14 48 -3 97.5t44 87.5q17 17 40 35q21 17 32 27t23.5 28t15.5 37q3 32 -5 60l-3 15q-7 35 3 68.5t24.5 54.5t47.5 61z" />
    <glyph glyph-name="V" unicode="v" horiz-adv-x="2011" 
d="M1699 805h122v-122h-41v-628h-631v-41h-122v122h122v-41h591v588h-41v122zM829 408q17 -17 25.5 -30.5t17 -41.5t-5.5 -66t-50 -83q-8 -11 -11 -23h-131q-25 39 -28.5 97t4.5 109q12 145 -42 233q-71 123 -114 245q-51 146 -11 262q16 38 46 67q26 26 46 66q21 55 13 115
v2q167 -48 203 -120q21 -42 -3 -82l-1 -2q-19 -37 -112 -154q-46 -58 -64 -127q-30 -94 12 -208q56 -152 166 -226q15 -9 33 -25q1 -1 3 -3.5t4 -4.5zM506 382q3 -55 38.5 -116.5t85.5 -101.5h-411v1433h1434v-1433h-123q29 102 26 247t-18 260t-34 193q-64 251 -169 397
q-63 87 -151 148.5t-192 90.5l-33 9l23 -23q40 -46 61 -102q18 -67 7 -105t-35 -47q-19 -9 -43.5 -6t-36.5 19q-19 70 -81 128t-151 89q-167 53 -339 47l-25 -1l18 -15q59 -49 89.5 -108t8.5 -108q-17 -33 -38 -58q-21 -26 -34 -47q-67 -117 27 -291q41 -77 64 -131.5
t37 -120.5q11 -67 0 -143q-6 -55 -5 -104zM958 874q-27 -22 -50 -47q-66 -77 -60 -177q6 -86 57 -157q-6 -1 -13 -5q-9 -5 -14 -18q-57 50 -115 116q-68 77 -91 179q-19 106 44 191q89 114 190 217q26 -22 60 -26.5t65 9.5q-24 -35 -14 -76q5 -18 12 -36q10 -24 12 -37
q7 -46 -44 -97q-20 -19 -39 -36zM1170 1215q67 -42 123 -131t90.5 -199.5t58 -239t25.5 -250t-7 -231.5h-589q6 7 21 22q22 20 39 47q33 53 12 114q-24 68 -4 79q6 3 13 4t16 -2.5t16 -6.5t18 -11t17.5 -12.5t18 -15t15.5 -14t15 -13.5q16 -15 27 -24q71 -56 133 -50
q32 5 55 14q13 5 29 10q21 6 43 -9t35 -50l12 -31l7 32q14 48 -16 88q-20 24 -52 26h-48h-36q-100 2 -201 110q-84 90 -105 173q-14 48 -3 97.5t44 87.5q17 17 40 35q21 17 32 27t23.5 28t15.5 37q3 32 -5 60l-3 15q-7 35 3 68.5t24.5 54.5t47.5 61z" />
    <glyph glyph-name="W" unicode="W" horiz-adv-x="1896" 
d="M778 1646v-22h-123v122h123v-60q4 -1 11 -1q15 0 35 22q22 30 57 33h1q36 -2 61 -31q16 -21 42 -24q15 0 35 22q22 32 56 33h1q39 -4 66 -35q22 -20 31 -20h1q15 0 29 18q6 8 10 12l28 -29q-5 -5 -7 -8q-23 -33 -61 -33q-33 3 -58 31q-15 18 -40 23q-10 -1 -26 -18
q-23 -34 -65 -36h-1q-42 3 -69 35q-19 19 -33 19q-11 0 -28 -19q-24 -32 -64 -35q-2 0 -6 0.5t-6 0.5zM1119 75v60h123v-123h-123v23q-4 -1 -12 -1q-40 3 -64 35q-17 19 -27 19q-14 0 -34 -20q-26 -31 -68 -34h-2q-42 2 -65 36q-15 18 -26 18q-25 -5 -40 -23
q-25 -28 -58 -31q-39 0 -61 33l-7 7l28 29q7 -7 10 -11q13 -18 29 -18h1q9 0 31 20q26 29 66 34h1q35 -2 56 -32q20 -22 36 -22q26 3 41 23q26 30 62 31q36 -3 57 -32q20 -22 35 -22q7 0 11 1zM976 617q111 275 319 476q25 25 17 57q-19 79 -50 162q-7 21 -32 26
q-23 5 -39 -13q-88 -101 -166 -211q-61 -83 -95.5 -127.5t-95 -108.5t-119.5 -106q-18 -14 -40 -12q-44 3 -47 75q-3 181 90 337q96 162 293 263l59 30l-64 -15q-74 -18 -160 -65.5t-132 -102.5q-90 -115 -146 -252q-9 -21 -28 -76q-14 -41 -23 -64t-23.5 -54.5t-29.5 -47.5
t-30 -17q-6 0 -11 5q-16 15 -24.5 65t-10 142t-0.5 152t4 176q4 160 4 216l-16 1q-50 -419 -56 -832q-2 -80 39 -102q36 -17 72 2q47 28 67 78q19 -46 70 -51q60 -13 109 21q47 36 90 85l3 2q208 234 389 496q11 -30 16 -48q11 -39 18 -55q-182 -209 -299 -460
q-13 -29 -20 -40q-34 -52 -36 -117v-8q-2 -20 8 -37.5t28 -24.5q27 -11 50 9q100 87 192 172q100 92 144 130q9 -62 22 -191q-180 -222 -209 -288l-15 -35l28 26q147 132 160 143q16 14 65.5 58.5t77.5 69.5q96 -5 177 39q13 -13 28 -16q-25 -25 -59.5 -58.5t-65 -63.5
t-57 -56t-43.5 -42l-17 -16l10 -12l43 30q43 29 118 79l138 92v-344h-1433v1434h1433v-982q-28 3 -52 15l-12 9q-10 12 -27 15q-21 0 -37 -14q-4 -3 -14 -9q-62 -30 -133 -21q-6 67 -23 219q-3 22 -24 30t-38 -7q-94 -86 -280 -256q-14 -14 -27 -19q-15 -5 -24 4q-8 10 2 36
z" />
    <glyph glyph-name="W" unicode="w" horiz-adv-x="1896" 
d="M778 1646v-22h-123v122h123v-60q4 -1 11 -1q15 0 35 22q22 30 57 33h1q36 -2 61 -31q16 -21 42 -24q15 0 35 22q22 32 56 33h1q39 -4 66 -35q22 -20 31 -20h1q15 0 29 18q6 8 10 12l28 -29q-5 -5 -7 -8q-23 -33 -61 -33q-33 3 -58 31q-15 18 -40 23q-10 -1 -26 -18
q-23 -34 -65 -36h-1q-42 3 -69 35q-19 19 -33 19q-11 0 -28 -19q-24 -32 -64 -35q-2 0 -6 0.5t-6 0.5zM1119 75v60h123v-123h-123v23q-4 -1 -12 -1q-40 3 -64 35q-17 19 -27 19q-14 0 -34 -20q-26 -31 -68 -34h-2q-42 2 -65 36q-15 18 -26 18q-25 -5 -40 -23
q-25 -28 -58 -31q-39 0 -61 33l-7 7l28 29q7 -7 10 -11q13 -18 29 -18h1q9 0 31 20q26 29 66 34h1q35 -2 56 -32q20 -22 36 -22q26 3 41 23q26 30 62 31q36 -3 57 -32q20 -22 35 -22q7 0 11 1zM976 617q111 275 319 476q25 25 17 57q-19 79 -50 162q-7 21 -32 26
q-23 5 -39 -13q-88 -101 -166 -211q-61 -83 -95.5 -127.5t-95 -108.5t-119.5 -106q-18 -14 -40 -12q-44 3 -47 75q-3 181 90 337q96 162 293 263l59 30l-64 -15q-74 -18 -160 -65.5t-132 -102.5q-90 -115 -146 -252q-9 -21 -28 -76q-14 -41 -23 -64t-23.5 -54.5t-29.5 -47.5
t-30 -17q-6 0 -11 5q-16 15 -24.5 65t-10 142t-0.5 152t4 176q4 160 4 216l-16 1q-50 -419 -56 -832q-2 -80 39 -102q36 -17 72 2q47 28 67 78q19 -46 70 -51q60 -13 109 21q47 36 90 85l3 2q208 234 389 496q11 -30 16 -48q11 -39 18 -55q-182 -209 -299 -460
q-13 -29 -20 -40q-34 -52 -36 -117v-8q-2 -20 8 -37.5t28 -24.5q27 -11 50 9q100 87 192 172q100 92 144 130q9 -62 22 -191q-180 -222 -209 -288l-15 -35l28 26q147 132 160 143q16 14 65.5 58.5t77.5 69.5q96 -5 177 39q13 -13 28 -16q-25 -25 -59.5 -58.5t-65 -63.5
t-57 -56t-43.5 -42l-17 -16l10 -12l43 30q43 29 118 79l138 92v-344h-1433v1434h1433v-982q-28 3 -52 15l-12 9q-10 12 -27 15q-21 0 -37 -14q-4 -3 -14 -9q-62 -30 -133 -21q-6 67 -23 219q-3 22 -24 30t-38 -7q-94 -86 -280 -256q-14 -14 -27 -19q-15 -5 -24 4q-8 10 2 36
z" />
    <glyph glyph-name="X" unicode="X" horiz-adv-x="1882" 
d="M1058 115v-41h232v-40h-232v-41h-244v41h-232v40h232v41h244zM988 1597h665v-1433h-241q-66 84 -130.5 157.5t-143.5 152.5t-154.5 127t-131.5 50q-40 2 -84 -18t-76 -50q-59 -54 -113 -127t-83 -122t-86 -153l-9 -17h-182v1433h489q-4 -2 -9.5 -7.5t-6.5 -5.5
q-58 -54 -112 -126.5t-84 -123.5t-86 -152l-31 -57l35 -23l7 8q79 103 235 296l12 14q24 27 38 41t39.5 35.5t49 28t45.5 -0.5q37 -12 82 -61t73.5 -92.5t72.5 -117.5q79 -130 109 -156q93 -83 257 -97q20 -2 32 -4l62 -20l-37 53q-304 434 -503 568zM1462 476l86 -50
l-57 82q-82 117 -160 216t-166 195t-169.5 152.5t-143.5 59.5q-40 1 -84.5 -19.5t-75.5 -48.5q-58 -54 -112 -126.5t-84 -123.5t-86 -152l-31 -57l35 -23l7 8q79 103 235 296l1 2q76 82 188 74q27 -2 54 -19t56.5 -52t49 -62.5t51.5 -76.5q59 -96 124 -167q64 -67 158 -70
q66 -5 124 -38zM1069 259q40 -61 65 -95h-671q127 162 194 243q77 85 193 79q34 -2 75.5 -40.5t68.5 -76t75 -110.5z" />
    <glyph glyph-name="X" unicode="x" horiz-adv-x="1882" 
d="M1058 115v-41h232v-40h-232v-41h-244v41h-232v40h232v41h244zM988 1597h665v-1433h-241q-66 84 -130.5 157.5t-143.5 152.5t-154.5 127t-131.5 50q-40 2 -84 -18t-76 -50q-59 -54 -113 -127t-83 -122t-86 -153l-9 -17h-182v1433h489q-4 -2 -9.5 -7.5t-6.5 -5.5
q-58 -54 -112 -126.5t-84 -123.5t-86 -152l-31 -57l35 -23l7 8q79 103 235 296l12 14q24 27 38 41t39.5 35.5t49 28t45.5 -0.5q37 -12 82 -61t73.5 -92.5t72.5 -117.5q79 -130 109 -156q93 -83 257 -97q20 -2 32 -4l62 -20l-37 53q-304 434 -503 568zM1462 476l86 -50
l-57 82q-82 117 -160 216t-166 195t-169.5 152.5t-143.5 59.5q-40 1 -84.5 -19.5t-75.5 -48.5q-58 -54 -112 -126.5t-84 -123.5t-86 -152l-31 -57l35 -23l7 8q79 103 235 296l1 2q76 82 188 74q27 -2 54 -19t56.5 -52t49 -62.5t51.5 -76.5q59 -96 124 -167q64 -67 158 -70
q66 -5 124 -38zM1069 259q40 -61 65 -95h-671q127 162 194 243q77 85 193 79q34 -2 75.5 -40.5t68.5 -76t75 -110.5z" />
    <glyph glyph-name="Y" unicode="Y" horiz-adv-x="1880" 
d="M986 1591h665v-1433h-241q-66 84 -130.5 157.5t-143.5 152.5t-154.5 127t-131.5 50q-40 2 -84 -18t-76 -50q-59 -54 -113 -127t-83 -122t-86 -153l-9 -17h-182v1433h489q-4 -2 -9.5 -7.5t-6.5 -5.5q-58 -54 -112 -126.5t-84 -123.5t-86 -152l-31 -57l35 -23l7 8
q79 103 235 296l12 14q24 27 38 41t39.5 35.5t49 28t45.5 -0.5q37 -12 82 -61t73.5 -92.5t72.5 -117.5q79 -130 109 -156q93 -83 257 -97q20 -2 32 -4l62 -20l-37 53q-304 434 -503 568zM1460 470l86 -50l-57 82q-82 117 -160 216t-166 195t-169.5 152.5t-143.5 59.5
q-40 1 -84.5 -19.5t-75.5 -48.5q-58 -54 -112 -126.5t-84 -123.5t-86 -152l-31 -57l35 -23l7 8q79 103 235 296l1 2q76 82 188 74q27 -2 54 -19t56.5 -52.5t48.5 -62.5t52 -77q57 -93 124 -166q64 -67 158 -70q66 -5 124 -38zM848 480q34 -2 75.5 -40.5t68.5 -76t75 -110.5
q40 -61 65 -95h-671q127 162 194 243q77 85 193 79zM1081 -7h-120v110h120v-110zM907 -7h-119v110h119v-110z" />
    <glyph glyph-name="Y" unicode="&#x178;" horiz-adv-x="1880" 
d="M986 1591h665v-1433h-241q-66 84 -130.5 157.5t-143.5 152.5t-154.5 127t-131.5 50q-40 2 -84 -18t-76 -50q-59 -54 -113 -127t-83 -122t-86 -153l-9 -17h-182v1433h489q-4 -2 -9.5 -7.5t-6.5 -5.5q-58 -54 -112 -126.5t-84 -123.5t-86 -152l-31 -57l35 -23l7 8
q79 103 235 296l12 14q24 27 38 41t39.5 35.5t49 28t45.5 -0.5q37 -12 82 -61t73.5 -92.5t72.5 -117.5q79 -130 109 -156q93 -83 257 -97q20 -2 32 -4l62 -20l-37 53q-304 434 -503 568zM1460 470l86 -50l-57 82q-82 117 -160 216t-166 195t-169.5 152.5t-143.5 59.5
q-40 1 -84.5 -19.5t-75.5 -48.5q-58 -54 -112 -126.5t-84 -123.5t-86 -152l-31 -57l35 -23l7 8q79 103 235 296l1 2q76 82 188 74q27 -2 54 -19t56.5 -52.5t48.5 -62.5t52 -77q57 -93 124 -166q64 -67 158 -70q66 -5 124 -38zM848 480q34 -2 75.5 -40.5t68.5 -76t75 -110.5
q40 -61 65 -95h-671q127 162 194 243q77 85 193 79zM1081 -7h-120v110h120v-110zM907 -7h-119v110h119v-110z" />
    <glyph glyph-name="Y" unicode="&#xff;" horiz-adv-x="1880" 
d="M986 1591h665v-1433h-241q-66 84 -130.5 157.5t-143.5 152.5t-154.5 127t-131.5 50q-40 2 -84 -18t-76 -50q-59 -54 -113 -127t-83 -122t-86 -153l-9 -17h-182v1433h489q-4 -2 -9.5 -7.5t-6.5 -5.5q-58 -54 -112 -126.5t-84 -123.5t-86 -152l-31 -57l35 -23l7 8
q79 103 235 296l12 14q24 27 38 41t39.5 35.5t49 28t45.5 -0.5q37 -12 82 -61t73.5 -92.5t72.5 -117.5q79 -130 109 -156q93 -83 257 -97q20 -2 32 -4l62 -20l-37 53q-304 434 -503 568zM1460 470l86 -50l-57 82q-82 117 -160 216t-166 195t-169.5 152.5t-143.5 59.5
q-40 1 -84.5 -19.5t-75.5 -48.5q-58 -54 -112 -126.5t-84 -123.5t-86 -152l-31 -57l35 -23l7 8q79 103 235 296l1 2q76 82 188 74q27 -2 54 -19t56.5 -52.5t48.5 -62.5t52 -77q57 -93 124 -166q64 -67 158 -70q66 -5 124 -38zM848 480q34 -2 75.5 -40.5t68.5 -76t75 -110.5
q40 -61 65 -95h-671q127 162 194 243q77 85 193 79zM1081 -7h-120v110h120v-110zM907 -7h-119v110h119v-110z" />
    <glyph glyph-name="Y" unicode="&#xfd;" horiz-adv-x="1880" 
d="M986 1591h665v-1433h-241q-66 84 -130.5 157.5t-143.5 152.5t-154.5 127t-131.5 50q-40 2 -84 -18t-76 -50q-59 -54 -113 -127t-83 -122t-86 -153l-9 -17h-182v1433h489q-4 -2 -9.5 -7.5t-6.5 -5.5q-58 -54 -112 -126.5t-84 -123.5t-86 -152l-31 -57l35 -23l7 8
q79 103 235 296l12 14q24 27 38 41t39.5 35.5t49 28t45.5 -0.5q37 -12 82 -61t73.5 -92.5t72.5 -117.5q79 -130 109 -156q93 -83 257 -97q20 -2 32 -4l62 -20l-37 53q-304 434 -503 568zM1460 470l86 -50l-57 82q-82 117 -160 216t-166 195t-169.5 152.5t-143.5 59.5
q-40 1 -84.5 -19.5t-75.5 -48.5q-58 -54 -112 -126.5t-84 -123.5t-86 -152l-31 -57l35 -23l7 8q79 103 235 296l1 2q76 82 188 74q27 -2 54 -19t56.5 -52.5t48.5 -62.5t52 -77q57 -93 124 -166q64 -67 158 -70q66 -5 124 -38zM848 480q34 -2 75.5 -40.5t68.5 -76t75 -110.5
q40 -61 65 -95h-671q127 162 194 243q77 85 193 79zM1081 -7h-120v110h120v-110zM907 -7h-119v110h119v-110z" />
    <glyph glyph-name="Y" unicode="&#xdd;" horiz-adv-x="1880" 
d="M986 1591h665v-1433h-241q-66 84 -130.5 157.5t-143.5 152.5t-154.5 127t-131.5 50q-40 2 -84 -18t-76 -50q-59 -54 -113 -127t-83 -122t-86 -153l-9 -17h-182v1433h489q-4 -2 -9.5 -7.5t-6.5 -5.5q-58 -54 -112 -126.5t-84 -123.5t-86 -152l-31 -57l35 -23l7 8
q79 103 235 296l12 14q24 27 38 41t39.5 35.5t49 28t45.5 -0.5q37 -12 82 -61t73.5 -92.5t72.5 -117.5q79 -130 109 -156q93 -83 257 -97q20 -2 32 -4l62 -20l-37 53q-304 434 -503 568zM1460 470l86 -50l-57 82q-82 117 -160 216t-166 195t-169.5 152.5t-143.5 59.5
q-40 1 -84.5 -19.5t-75.5 -48.5q-58 -54 -112 -126.5t-84 -123.5t-86 -152l-31 -57l35 -23l7 8q79 103 235 296l1 2q76 82 188 74q27 -2 54 -19t56.5 -52.5t48.5 -62.5t52 -77q57 -93 124 -166q64 -67 158 -70q66 -5 124 -38zM848 480q34 -2 75.5 -40.5t68.5 -76t75 -110.5
q40 -61 65 -95h-671q127 162 194 243q77 85 193 79zM1081 -7h-120v110h120v-110zM907 -7h-119v110h119v-110z" />
    <glyph glyph-name="Y" unicode="y" horiz-adv-x="1880" 
d="M986 1591h665v-1433h-241q-66 84 -130.5 157.5t-143.5 152.5t-154.5 127t-131.5 50q-40 2 -84 -18t-76 -50q-59 -54 -113 -127t-83 -122t-86 -153l-9 -17h-182v1433h489q-4 -2 -9.5 -7.5t-6.5 -5.5q-58 -54 -112 -126.5t-84 -123.5t-86 -152l-31 -57l35 -23l7 8
q79 103 235 296l12 14q24 27 38 41t39.5 35.5t49 28t45.5 -0.5q37 -12 82 -61t73.5 -92.5t72.5 -117.5q79 -130 109 -156q93 -83 257 -97q20 -2 32 -4l62 -20l-37 53q-304 434 -503 568zM1460 470l86 -50l-57 82q-82 117 -160 216t-166 195t-169.5 152.5t-143.5 59.5
q-40 1 -84.5 -19.5t-75.5 -48.5q-58 -54 -112 -126.5t-84 -123.5t-86 -152l-31 -57l35 -23l7 8q79 103 235 296l1 2q76 82 188 74q27 -2 54 -19t56.5 -52.5t48.5 -62.5t52 -77q57 -93 124 -166q64 -67 158 -70q66 -5 124 -38zM848 480q34 -2 75.5 -40.5t68.5 -76t75 -110.5
q40 -61 65 -95h-671q127 162 194 243q77 85 193 79zM1081 -7h-120v110h120v-110zM907 -7h-119v110h119v-110z" />
    <glyph glyph-name="Z" unicode="Z" horiz-adv-x="1880" 
d="M986 1591h665v-1433h-241q-66 84 -130.5 157.5t-143.5 152.5t-154.5 127t-131.5 50q-40 2 -84 -18t-76 -50q-59 -54 -113 -127t-83 -122t-86 -153l-9 -17h-182v1433h489q-6 -4 -16 -12q-58 -54 -113 -127.5t-83 -121.5t-86 -154l-31 -57l35 -23l7 8q79 103 235 296l12 14
q24 27 38 41t39.5 35.5t49 28t45.5 -0.5q37 -12 82 -61t73.5 -92.5t72.5 -117.5q79 -130 109 -156q93 -83 257 -97q20 -2 32 -4l63 -20l-38 53q-304 434 -503 568zM1460 470l86 -50l-57 82q-82 117 -160 216t-166 195t-169.5 152.5t-143.5 59.5q-40 1 -84.5 -19.5
t-75.5 -48.5q-59 -54 -113 -127t-83 -122t-86 -153l-31 -57l35 -23l7 8q79 103 235 296l1 2q76 82 188 74q27 -2 54 -19t56.5 -52.5t48.5 -62.5t52 -77q57 -93 124 -166q64 -67 158 -70q66 -5 124 -38zM848 480q34 -2 75.5 -40.5t68.5 -76t75 -110.5q40 -61 65 -95h-671
q127 162 194 243q77 85 193 79zM994 -7h-119v110h119v-110z" />
    <glyph glyph-name="Z" unicode="z" horiz-adv-x="1880" 
d="M986 1591h665v-1433h-241q-66 84 -130.5 157.5t-143.5 152.5t-154.5 127t-131.5 50q-40 2 -84 -18t-76 -50q-59 -54 -113 -127t-83 -122t-86 -153l-9 -17h-182v1433h489q-6 -4 -16 -12q-58 -54 -113 -127.5t-83 -121.5t-86 -154l-31 -57l35 -23l7 8q79 103 235 296l12 14
q24 27 38 41t39.5 35.5t49 28t45.5 -0.5q37 -12 82 -61t73.5 -92.5t72.5 -117.5q79 -130 109 -156q93 -83 257 -97q20 -2 32 -4l63 -20l-38 53q-304 434 -503 568zM1460 470l86 -50l-57 82q-82 117 -160 216t-166 195t-169.5 152.5t-143.5 59.5q-40 1 -84.5 -19.5
t-75.5 -48.5q-59 -54 -113 -127t-83 -122t-86 -153l-31 -57l35 -23l7 8q79 103 235 296l1 2q76 82 188 74q27 -2 54 -19t56.5 -52.5t48.5 -62.5t52 -77q57 -93 124 -166q64 -67 158 -70q66 -5 124 -38zM848 480q34 -2 75.5 -40.5t68.5 -76t75 -110.5q40 -61 65 -95h-671
q127 162 194 243q77 85 193 79zM994 -7h-119v110h119v-110z" />
    <glyph glyph-name="nonbreakingspace" unicode="&#xa0;" horiz-adv-x="872" 
 />
    <glyph glyph-name="softhyphen" unicode="&#xad;" horiz-adv-x="0" 
 />
    </font>
</defs>
</svg>
