<?xml version="1.0" standalone="no"?>
<!DOCTYPE svg PUBLIC "-//W3C//DTD SVG 1.1//EN" "http://www.w3.org/Graphics/SVG/1.1/DTD/svg11.dtd" >
<svg xmlns="http://www.w3.org/2000/svg" xmlns:xlink="http://www.w3.org/1999/xlink" version="1.1">
<metadata>
Created by FontForge 20170731 at Mon Jun 26 23:29:39 2023
 By Aleksey,,,
</metadata>
<defs>
<font id="VuvvtasticScriptRegular" horiz-adv-x="0" >
  <font-face 
    font-family="Vuvvtastic Script"
    font-weight="400"
    font-stretch="normal"
    units-per-em="2048"
    panose-1="0 0 0 0 0 0 0 0 0 0"
    ascent="1638"
    descent="-410"
    bbox="18 -111 1906.09 1542"
    underline-thickness="102"
    underline-position="-307"
    unicode-range="U+000A-00AD"
  />
<missing-glyph horiz-adv-x="1079" 
d="M102 1434h875v-1434h-875v1434zM160 1393l379 -633l381 633h-760zM514 717l-369 614v-1231zM541 674l-379 -631h758zM565 717l371 -621v1239z" />
    <glyph glyph-name=".notdef" horiz-adv-x="1079" 
d="M102 1434h875v-1434h-875v1434zM160 1393l379 -633l381 633h-760zM514 717l-369 614v-1231zM541 674l-379 -631h758zM565 717l371 -621v1239z" />
    <glyph glyph-name=".null" 
 />
    <glyph glyph-name=".null" 
 />
    <glyph glyph-name="nonmarkingreturn" horiz-adv-x="682" 
 />
    <glyph glyph-name="controlLF" unicode="&#xa;" 
 />
    <glyph glyph-name="controlCR" unicode="&#xd;" 
 />
    <glyph glyph-name="space" unicode=" " horiz-adv-x="729" 
 />
    <glyph glyph-name="B" unicode="B" horiz-adv-x="1243" 
d="M937 1356q40 1 66.5 -13.5t55.5 -47.5q109 -121 108.5 -293t-110.5 -375q-18 -33 -63 -93t-113 -136.5t-141.5 -144.5t-156.5 -118.5t-149 -58.5q-6 -1 -16 -1q-50 0 -110 22.5t-83 55.5q-65 93 -52 219q4 29 14 66q7 29 10 42.5t7.5 37.5t3 39.5t-7.5 25.5
q-11 19 -59 36q-52 18 -67 41q-25 41 -14 86.5t52 70.5l33 18l-21 -31q-24 -35 -22.5 -67.5t27.5 -55.5q22 -13 46 -8q21 1 34.5 -0.5t34 -12.5t35.5 -33q20 -27 -16 -166q-13 -41 -17 -81q0 -63 10 -91.5t40 -58.5q50 -50 189 30l4 2q83 46 167.5 113.5t162.5 150.5
t139 182.5t88 197.5q53 186 -31 334q-19 31 -51 49t-68 17q-55 -3 -104 -19l-52 -14l45 30q68 48 152 53z" />
    <glyph glyph-name="B" unicode="b" horiz-adv-x="1243" 
d="M937 1356q40 1 66.5 -13.5t55.5 -47.5q109 -121 108.5 -293t-110.5 -375q-18 -33 -63 -93t-113 -136.5t-141.5 -144.5t-156.5 -118.5t-149 -58.5q-6 -1 -16 -1q-50 0 -110 22.5t-83 55.5q-65 93 -52 219q4 29 14 66q7 29 10 42.5t7.5 37.5t3 39.5t-7.5 25.5
q-11 19 -59 36q-52 18 -67 41q-25 41 -14 86.5t52 70.5l33 18l-21 -31q-24 -35 -22.5 -67.5t27.5 -55.5q22 -13 46 -8q21 1 34.5 -0.5t34 -12.5t35.5 -33q20 -27 -16 -166q-13 -41 -17 -81q0 -63 10 -91.5t40 -58.5q50 -50 189 30l4 2q83 46 167.5 113.5t162.5 150.5
t139 182.5t88 197.5q53 186 -31 334q-19 31 -51 49t-68 17q-55 -3 -104 -19l-52 -14l45 30q68 48 152 53z" />
    <glyph glyph-name="C" unicode="C" horiz-adv-x="1243" 
d="M1105 1325q29 -24 42 -57.5t12.5 -66t-16 -76.5t-31.5 -76.5t-47.5 -80.5t-50 -73.5t-51.5 -70.5q-54 -75 -55 -76q55 7 97.5 -5.5t65.5 -38.5t33.5 -45t15.5 -39q11 -49 -1.5 -98t-45.5 -87q-65 -74 -162 -102q-93 -29 -191 -24l-79 3l78 15q129 24 231 108q59 49 71 98
q5 21 -1 53.5t-28 52.5q-38 34 -111 10q-30 -10 -62 -34t-52.5 -44.5t-65.5 -67.5q-44 -46 -74 -76q-63 -63 -163 -176q-47 -53 -73 -81t-63.5 -62.5t-71.5 -54.5t-72 -33l-49 -16l41 32q138 107 185 206q22 52 13 106q-12 62 -71 151q-16 24 27 54q1 1 3.5 2.5t3.5 2.5
q62 46 91 124.5t8 141.5q-13 48 -61 59q-40 9 -90.5 -11.5t-70.5 -41.5l-35 -37l20 46q50 114 83 234.5t10 166.5q-7 15 -23 18q-28 -2 -47 -22q-49 -46 -84.5 -160t-35.5 -269l-17 -2q-22 127 15.5 316t116.5 265q49 52 117 39q30 -8 41 -36q29 -60 -5.5 -197.5
t-88.5 -260.5q42 22 94 30.5t98 -1.5q43 -8 64 -47q19 -36 22.5 -75t-10 -77.5t-28 -69.5t-43.5 -67.5t-44.5 -54.5t-41.5 -46q-10 -10 -20 -22q28 -29 68 -112v-1q12 15 88 96q65 69 102.5 110t111.5 124t120.5 142.5t97 129.5t74.5 123.5t22 87.5q0 22 -16 36
q-24 20 -59 24.5t-65 -0.5t-72 -22t-62 -27.5t-54 -28.5q-22 -12 -28 -15l-41 -20l30 34q54 60 156 113.5t178 55.5q47 5 82 -26z" />
    <glyph glyph-name="C" unicode="&#xe7;" horiz-adv-x="1243" 
d="M1105 1325q29 -24 42 -57.5t12.5 -66t-16 -76.5t-31.5 -76.5t-47.5 -80.5t-50 -73.5t-51.5 -70.5q-54 -75 -55 -76q55 7 97.5 -5.5t65.5 -38.5t33.5 -45t15.5 -39q11 -49 -1.5 -98t-45.5 -87q-65 -74 -162 -102q-93 -29 -191 -24l-79 3l78 15q129 24 231 108q59 49 71 98
q5 21 -1 53.5t-28 52.5q-38 34 -111 10q-30 -10 -62 -34t-52.5 -44.5t-65.5 -67.5q-44 -46 -74 -76q-63 -63 -163 -176q-47 -53 -73 -81t-63.5 -62.5t-71.5 -54.5t-72 -33l-49 -16l41 32q138 107 185 206q22 52 13 106q-12 62 -71 151q-16 24 27 54q1 1 3.5 2.5t3.5 2.5
q62 46 91 124.5t8 141.5q-13 48 -61 59q-40 9 -90.5 -11.5t-70.5 -41.5l-35 -37l20 46q50 114 83 234.5t10 166.5q-7 15 -23 18q-28 -2 -47 -22q-49 -46 -84.5 -160t-35.5 -269l-17 -2q-22 127 15.5 316t116.5 265q49 52 117 39q30 -8 41 -36q29 -60 -5.5 -197.5
t-88.5 -260.5q42 22 94 30.5t98 -1.5q43 -8 64 -47q19 -36 22.5 -75t-10 -77.5t-28 -69.5t-43.5 -67.5t-44.5 -54.5t-41.5 -46q-10 -10 -20 -22q28 -29 68 -112v-1q12 15 88 96q65 69 102.5 110t111.5 124t120.5 142.5t97 129.5t74.5 123.5t22 87.5q0 22 -16 36
q-24 20 -59 24.5t-65 -0.5t-72 -22t-62 -27.5t-54 -28.5q-22 -12 -28 -15l-41 -20l30 34q54 60 156 113.5t178 55.5q47 5 82 -26z" />
    <glyph glyph-name="C" unicode="&#xc7;" horiz-adv-x="1243" 
d="M1105 1325q29 -24 42 -57.5t12.5 -66t-16 -76.5t-31.5 -76.5t-47.5 -80.5t-50 -73.5t-51.5 -70.5q-54 -75 -55 -76q55 7 97.5 -5.5t65.5 -38.5t33.5 -45t15.5 -39q11 -49 -1.5 -98t-45.5 -87q-65 -74 -162 -102q-93 -29 -191 -24l-79 3l78 15q129 24 231 108q59 49 71 98
q5 21 -1 53.5t-28 52.5q-38 34 -111 10q-30 -10 -62 -34t-52.5 -44.5t-65.5 -67.5q-44 -46 -74 -76q-63 -63 -163 -176q-47 -53 -73 -81t-63.5 -62.5t-71.5 -54.5t-72 -33l-49 -16l41 32q138 107 185 206q22 52 13 106q-12 62 -71 151q-16 24 27 54q1 1 3.5 2.5t3.5 2.5
q62 46 91 124.5t8 141.5q-13 48 -61 59q-40 9 -90.5 -11.5t-70.5 -41.5l-35 -37l20 46q50 114 83 234.5t10 166.5q-7 15 -23 18q-28 -2 -47 -22q-49 -46 -84.5 -160t-35.5 -269l-17 -2q-22 127 15.5 316t116.5 265q49 52 117 39q30 -8 41 -36q29 -60 -5.5 -197.5
t-88.5 -260.5q42 22 94 30.5t98 -1.5q43 -8 64 -47q19 -36 22.5 -75t-10 -77.5t-28 -69.5t-43.5 -67.5t-44.5 -54.5t-41.5 -46q-10 -10 -20 -22q28 -29 68 -112v-1q12 15 88 96q65 69 102.5 110t111.5 124t120.5 142.5t97 129.5t74.5 123.5t22 87.5q0 22 -16 36
q-24 20 -59 24.5t-65 -0.5t-72 -22t-62 -27.5t-54 -28.5q-22 -12 -28 -15l-41 -20l30 34q54 60 156 113.5t178 55.5q47 5 82 -26z" />
    <glyph glyph-name="C" unicode="c" horiz-adv-x="1243" 
d="M1105 1325q29 -24 42 -57.5t12.5 -66t-16 -76.5t-31.5 -76.5t-47.5 -80.5t-50 -73.5t-51.5 -70.5q-54 -75 -55 -76q55 7 97.5 -5.5t65.5 -38.5t33.5 -45t15.5 -39q11 -49 -1.5 -98t-45.5 -87q-65 -74 -162 -102q-93 -29 -191 -24l-79 3l78 15q129 24 231 108q59 49 71 98
q5 21 -1 53.5t-28 52.5q-38 34 -111 10q-30 -10 -62 -34t-52.5 -44.5t-65.5 -67.5q-44 -46 -74 -76q-63 -63 -163 -176q-47 -53 -73 -81t-63.5 -62.5t-71.5 -54.5t-72 -33l-49 -16l41 32q138 107 185 206q22 52 13 106q-12 62 -71 151q-16 24 27 54q1 1 3.5 2.5t3.5 2.5
q62 46 91 124.5t8 141.5q-13 48 -61 59q-40 9 -90.5 -11.5t-70.5 -41.5l-35 -37l20 46q50 114 83 234.5t10 166.5q-7 15 -23 18q-28 -2 -47 -22q-49 -46 -84.5 -160t-35.5 -269l-17 -2q-22 127 15.5 316t116.5 265q49 52 117 39q30 -8 41 -36q29 -60 -5.5 -197.5
t-88.5 -260.5q42 22 94 30.5t98 -1.5q43 -8 64 -47q19 -36 22.5 -75t-10 -77.5t-28 -69.5t-43.5 -67.5t-44.5 -54.5t-41.5 -46q-10 -10 -20 -22q28 -29 68 -112v-1q12 15 88 96q65 69 102.5 110t111.5 124t120.5 142.5t97 129.5t74.5 123.5t22 87.5q0 22 -16 36
q-24 20 -59 24.5t-65 -0.5t-72 -22t-62 -27.5t-54 -28.5q-22 -12 -28 -15l-41 -20l30 34q54 60 156 113.5t178 55.5q47 5 82 -26z" />
    <glyph glyph-name="D" unicode="D" horiz-adv-x="1142" 
d="M1057 226q0 -3 2 -30t4 -41l8 -82l-25 79q-1 4 -4.5 16t-5.5 19q-11 39 -19.5 64t-28 64.5t-40.5 62.5t-56 39t-76 12q-80 -7 -148 -88q-72 -84 -118.5 -153t-86.5 -155l-18 -38l1 42q6 344 -95 441q-35 35 -88 32q-40 -2 -82 -41t-60 -84q-23 -64 -33 -145
q-1 -6 -3 -17.5t-3 -17.5l-11 -70l-6 70q-14 113 25 223q12 31 27.5 61.5t49.5 69t72 53.5q68 26 129.5 12t101.5 -66q21 -18 46 -79.5t34 -108.5q34 54 70.5 85.5t103.5 72.5q3 21 4 26q27 157 -18 218q-37 46 -97 51q-84 2 -142 -60q-20 -18 -27 -44t2 -52l10 -52l-29 47
q-31 56 4 136q16 38 47 65t71 38q64 16 108.5 9t91.5 -41q63 72 57 136q-6 62 -73 114q-28 18 -61 18.5t-62 -17.5q-38 -24 -52.5 -58t-3.5 -90l8 -40l-24 33q-43 60 -16 125q25 69 94 96q68 24 153 -15q0 1 -0.5 1t-0.5 1q-1 2 -2 4.5t-2 5.5t-2 5q-50 15 -72 60
q-16 47 -1 94t55 76q47 33 99 7q31 -16 42.5 -50.5t3.5 -68.5q-16 -60 -69 -101q3 -7 10.5 -20t9.5 -18q47 -77 47 -168q0 -36 -25.5 -89.5t-68.5 -99.5q45 -66 53 -109t3 -116q-1 -17 -3 -36q34 -4 61.5 -12.5t48 -24.5t35.5 -31t25.5 -41.5t17 -45t11.5 -53t7 -55t5 -60.5
zM768 1259q51 -2 68 54q8 30 -7 57q-8 18 -29 18q-22 0 -41.5 -21.5t-24.5 -55.5q-5 -21 8 -40q9 -12 26 -12z" />
    <glyph glyph-name="D" unicode="d" horiz-adv-x="1142" 
d="M1057 226q0 -3 2 -30t4 -41l8 -82l-25 79q-1 4 -4.5 16t-5.5 19q-11 39 -19.5 64t-28 64.5t-40.5 62.5t-56 39t-76 12q-80 -7 -148 -88q-72 -84 -118.5 -153t-86.5 -155l-18 -38l1 42q6 344 -95 441q-35 35 -88 32q-40 -2 -82 -41t-60 -84q-23 -64 -33 -145
q-1 -6 -3 -17.5t-3 -17.5l-11 -70l-6 70q-14 113 25 223q12 31 27.5 61.5t49.5 69t72 53.5q68 26 129.5 12t101.5 -66q21 -18 46 -79.5t34 -108.5q34 54 70.5 85.5t103.5 72.5q3 21 4 26q27 157 -18 218q-37 46 -97 51q-84 2 -142 -60q-20 -18 -27 -44t2 -52l10 -52l-29 47
q-31 56 4 136q16 38 47 65t71 38q64 16 108.5 9t91.5 -41q63 72 57 136q-6 62 -73 114q-28 18 -61 18.5t-62 -17.5q-38 -24 -52.5 -58t-3.5 -90l8 -40l-24 33q-43 60 -16 125q25 69 94 96q68 24 153 -15q0 1 -0.5 1t-0.5 1q-1 2 -2 4.5t-2 5.5t-2 5q-50 15 -72 60
q-16 47 -1 94t55 76q47 33 99 7q31 -16 42.5 -50.5t3.5 -68.5q-16 -60 -69 -101q3 -7 10.5 -20t9.5 -18q47 -77 47 -168q0 -36 -25.5 -89.5t-68.5 -99.5q45 -66 53 -109t3 -116q-1 -17 -3 -36q34 -4 61.5 -12.5t48 -24.5t35.5 -31t25.5 -41.5t17 -45t11.5 -53t7 -55t5 -60.5
zM768 1259q51 -2 68 54q8 30 -7 57q-8 18 -29 18q-22 0 -41.5 -21.5t-24.5 -55.5q-5 -21 8 -40q9 -12 26 -12z" />
    <glyph glyph-name="F" unicode="F" horiz-adv-x="1972" 
d="M1877 859l15 -49q18 -59 13 -126.5t-23 -126.5t-45 -106q-73 -131 -191 -219q-46 -37 -114 -62t-128 -19q-100 14 -159 98q-51 75 -82 164q-71 44 -125.5 54t-120.5 -10q-44 -79 -190.5 -228.5t-185.5 -149.5l-5 1l-2 4q-13 25 -60 118q-42 85 -68 134.5t-70 118.5
t-85 113q-15 -229 51 -456l18 -66l-34 59q-73 126 -102 259.5t-18 294.5q-38 45 -56 125t-16.5 157t15.5 138l10 40l12 -65q36 -185 70 -251q29 106 34 222l3 69l15 -67q34 -157 7 -311q89 -79 183.5 -207.5t176.5 -278.5q221 193 263 376q-3 48 -51 122l-8 12
q-58 91 -83 157.5t-19 152.5q-126 193 -80 295l17 37v-41q2 -132 95 -229q8 64 39 135.5t67 110.5l25 27l-10 -36q-10 -33 -26 -68q-10 -23 -15 -36t-12 -34.5t-9 -36.5t-1.5 -32.5t5.5 -31.5q20 -54 98 -78q40 173 144 230l53 28l-43 -42q-83 -83 -104 -236
q146 -70 210 -105q77 128 193 220l40 32l-27 -44q-80 -128 -120.5 -226t-35.5 -199q2 -33 3 -51t5 -52t9.5 -55.5t16 -52t24 -52.5t34 -45t46.5 -40q45 164 69 313.5t46 370.5l7 72l11 -71q31 -183 26.5 -360.5t-58.5 -358.5q58 6 108 24.5t82.5 42.5t50 41t28.5 33
q55 75 96 172t46 187zM1133 499q-27 87 -25.5 180t30.5 169q-159 115 -350 175q-3 -75 57 -182q3 -4 10.5 -16.5t12.5 -20.5q30 -45 48.5 -78t33 -88.5t3.5 -99.5q117 -2 180 -39z" />
    <glyph glyph-name="F" unicode="f" horiz-adv-x="1972" 
d="M1877 859l15 -49q18 -59 13 -126.5t-23 -126.5t-45 -106q-73 -131 -191 -219q-46 -37 -114 -62t-128 -19q-100 14 -159 98q-51 75 -82 164q-71 44 -125.5 54t-120.5 -10q-44 -79 -190.5 -228.5t-185.5 -149.5l-5 1l-2 4q-13 25 -60 118q-42 85 -68 134.5t-70 118.5
t-85 113q-15 -229 51 -456l18 -66l-34 59q-73 126 -102 259.5t-18 294.5q-38 45 -56 125t-16.5 157t15.5 138l10 40l12 -65q36 -185 70 -251q29 106 34 222l3 69l15 -67q34 -157 7 -311q89 -79 183.5 -207.5t176.5 -278.5q221 193 263 376q-3 48 -51 122l-8 12
q-58 91 -83 157.5t-19 152.5q-126 193 -80 295l17 37v-41q2 -132 95 -229q8 64 39 135.5t67 110.5l25 27l-10 -36q-10 -33 -26 -68q-10 -23 -15 -36t-12 -34.5t-9 -36.5t-1.5 -32.5t5.5 -31.5q20 -54 98 -78q40 173 144 230l53 28l-43 -42q-83 -83 -104 -236
q146 -70 210 -105q77 128 193 220l40 32l-27 -44q-80 -128 -120.5 -226t-35.5 -199q2 -33 3 -51t5 -52t9.5 -55.5t16 -52t24 -52.5t34 -45t46.5 -40q45 164 69 313.5t46 370.5l7 72l11 -71q31 -183 26.5 -360.5t-58.5 -358.5q58 6 108 24.5t82.5 42.5t50 41t28.5 33
q55 75 96 172t46 187zM1133 499q-27 87 -25.5 180t30.5 169q-159 115 -350 175q-3 -75 57 -182q3 -4 10.5 -16.5t12.5 -20.5q30 -45 48.5 -78t33 -88.5t3.5 -99.5q117 -2 180 -39z" />
    <glyph glyph-name="G" unicode="G" horiz-adv-x="1511" 
d="M1019 839q89 -174 161 -332q212 -151 297 -200l-8 -16q-100 36 -219 82q108 -228 218 -476l-16 -8q-131 216 -321 527l-364 164q117 -280 167 -380l-15 -9q-128 187 -327 466q-206 90 -220 96q-8 -45 -36 -79q12 -30 27 -66q26 -64 46 -114l-15 -8q-62 103 -133 196l-3 5
l2 5q32 62 2 124q-8 16 -34 34t-46.5 28t-22.5 10l-3 1l-117 227l438 -228q-158 323 -297 566l-2 4l2 4q26 42 61 75l5 5l367 -219l-8 -16q-140 55 -281 90q160 -269 345 -606q328 -184 391 -218q-37 68 -85 160q-24 44 -39 74l-4 8l8 4q31 14 69 24l7 2z" />
    <glyph glyph-name="G" unicode="g" horiz-adv-x="1511" 
d="M1019 839q89 -174 161 -332q212 -151 297 -200l-8 -16q-100 36 -219 82q108 -228 218 -476l-16 -8q-131 216 -321 527l-364 164q117 -280 167 -380l-15 -9q-128 187 -327 466q-206 90 -220 96q-8 -45 -36 -79q12 -30 27 -66q26 -64 46 -114l-15 -8q-62 103 -133 196l-3 5
l2 5q32 62 2 124q-8 16 -34 34t-46.5 28t-22.5 10l-3 1l-117 227l438 -228q-158 323 -297 566l-2 4l2 4q26 42 61 75l5 5l367 -219l-8 -16q-140 55 -281 90q160 -269 345 -606q328 -184 391 -218q-37 68 -85 160q-24 44 -39 74l-4 8l8 4q31 14 69 24l7 2z" />
    <glyph glyph-name="H" unicode="H" horiz-adv-x="1794" 
d="M1195 613q12 -74 59 -134.5t109 -97.5t138 -63.5t142 -38t125 -13.5v-18q-215 -21 -327.5 -13t-178.5 49q-59 36 -87 66.5t-60 93.5q-33 -208 -110 -317l-27 -38l12 50q70 273 21 340q-15 21 -39 21q-29 5 -49 -18q-48 -57 13 -312q2 -6 4.5 -16.5t2.5 -12.5l7 -32
l-22 24q-98 105 -116 247q-72 -105 -199 -140q-49 -7 -93.5 -8.5t-97.5 9t-96.5 21.5t-90.5 28.5t-79.5 31.5t-64.5 29.5t-44.5 22t-19.5 10.5l7 16q9 -3 19 -6t48 -15t69.5 -19.5t81.5 -19.5t84 -16t79 -7.5t65 4.5q59 13 100.5 32.5t72.5 52t50 61.5t47 82q33 62 27 167
t-49 203q-25 58 -80 161.5t-95 175t-43 76.5l14 10l15 -18q15 -19 38.5 -47.5t49.5 -60.5t51 -65t39 -54q56 -84 115.5 -131.5t141.5 -47.5q43 0 80.5 13t69.5 40t50 45.5t45 51.5q24 29 77.5 89.5t94.5 107t43 48.5l14 -10q-11 -17 -49 -77.5t-95.5 -160.5t-77.5 -149
q-38 -96 -42.5 -159t11.5 -144zM962 649q40 0 78 -19q-14 93 0 186q-100 -14 -154 4q24 -90 21 -183q25 12 55 12z" />
    <glyph glyph-name="H" unicode="h" horiz-adv-x="1794" 
d="M1195 613q12 -74 59 -134.5t109 -97.5t138 -63.5t142 -38t125 -13.5v-18q-215 -21 -327.5 -13t-178.5 49q-59 36 -87 66.5t-60 93.5q-33 -208 -110 -317l-27 -38l12 50q70 273 21 340q-15 21 -39 21q-29 5 -49 -18q-48 -57 13 -312q2 -6 4.5 -16.5t2.5 -12.5l7 -32
l-22 24q-98 105 -116 247q-72 -105 -199 -140q-49 -7 -93.5 -8.5t-97.5 9t-96.5 21.5t-90.5 28.5t-79.5 31.5t-64.5 29.5t-44.5 22t-19.5 10.5l7 16q9 -3 19 -6t48 -15t69.5 -19.5t81.5 -19.5t84 -16t79 -7.5t65 4.5q59 13 100.5 32.5t72.5 52t50 61.5t47 82q33 62 27 167
t-49 203q-25 58 -80 161.5t-95 175t-43 76.5l14 10l15 -18q15 -19 38.5 -47.5t49.5 -60.5t51 -65t39 -54q56 -84 115.5 -131.5t141.5 -47.5q43 0 80.5 13t69.5 40t50 45.5t45 51.5q24 29 77.5 89.5t94.5 107t43 48.5l14 -10q-11 -17 -49 -77.5t-95.5 -160.5t-77.5 -149
q-38 -96 -42.5 -159t11.5 -144zM962 649q40 0 78 -19q-14 93 0 186q-100 -14 -154 4q24 -90 21 -183q25 12 55 12z" />
    <glyph glyph-name="J" unicode="J" horiz-adv-x="1511" 
d="M1019 839q89 -174 161 -332q212 -151 297 -200l-8 -16q-100 36 -219 82q108 -228 218 -476l-16 -8q-131 216 -321 527l-364 164q117 -280 167 -380l-15 -9q-128 187 -327 466q-206 90 -220 96q-8 -45 -36 -79q12 -30 27 -66q26 -64 46 -114l-15 -8q-62 103 -133 196l-3 5
l2 5q32 62 2 124q-8 16 -34 34t-46.5 28t-22.5 10l-3 1l-117 227l438 -228q-164 335 -296 566l-3 4l2 4q26 42 61 75l5 5l367 -219l-8 -16q-140 55 -281 90q160 -269 345 -606q328 -184 391 -218q-37 68 -85 160q-24 44 -39 74l-4 8l8 4q31 14 69 24l7 2z" />
    <glyph glyph-name="J" unicode="j" horiz-adv-x="1511" 
d="M1019 839q89 -174 161 -332q212 -151 297 -200l-8 -16q-100 36 -219 82q108 -228 218 -476l-16 -8q-131 216 -321 527l-364 164q117 -280 167 -380l-15 -9q-128 187 -327 466q-206 90 -220 96q-8 -45 -36 -79q12 -30 27 -66q26 -64 46 -114l-15 -8q-62 103 -133 196l-3 5
l2 5q32 62 2 124q-8 16 -34 34t-46.5 28t-22.5 10l-3 1l-117 227l438 -228q-164 335 -296 566l-3 4l2 4q26 42 61 75l5 5l367 -219l-8 -16q-140 55 -281 90q160 -269 345 -606q328 -184 391 -218q-37 68 -85 160q-24 44 -39 74l-4 8l8 4q31 14 69 24l7 2z" />
    <glyph glyph-name="K" unicode="K" horiz-adv-x="1368" 
d="M1225 418q59 -159 80 -336q6 -55 -13 -78q-38 -44 -120 -44q-99 0 -242 67q-132 61 -262 156.5t-214.5 176t-200.5 202.5q-69 73 -124.5 171.5t-74.5 184.5q-8 32 27.5 86t65.5 72q60 31 125 29q14 1 70 -3q65 -4 105.5 -4.5t100 7.5t91.5 27t52 44.5t26 42.5t15 51
q9 55 46 100q49 54 94.5 73.5t123.5 26.5l5 1l3 -5q34 -52 110 -220q6 -13 20 -44l22 -49l-36 39q-27 30 -51 70q-21 36 -55 72q-48 -5 -75 -13.5t-62 -33.5q-40 -34 -66 -78q-26 -37 -41 -56.5t-48 -48.5t-71 -47q-41 -20 -233 -24q-89 -2 -103 -4q-28 -4 -56.5 -17
t-36.5 -32q-18 -44 35 -136t167 -215q126 -135 278 -258.5t286.5 -196t192.5 -53.5q40 16 42 61q8 118 -15 232z" />
    <glyph glyph-name="K" unicode="k" horiz-adv-x="1368" 
d="M1225 418q59 -159 80 -336q6 -55 -13 -78q-38 -44 -120 -44q-99 0 -242 67q-132 61 -262 156.5t-214.5 176t-200.5 202.5q-69 73 -124.5 171.5t-74.5 184.5q-8 32 27.5 86t65.5 72q60 31 125 29q14 1 70 -3q65 -4 105.5 -4.5t100 7.5t91.5 27t52 44.5t26 42.5t15 51
q9 55 46 100q49 54 94.5 73.5t123.5 26.5l5 1l3 -5q34 -52 110 -220q6 -13 20 -44l22 -49l-36 39q-27 30 -51 70q-21 36 -55 72q-48 -5 -75 -13.5t-62 -33.5q-40 -34 -66 -78q-26 -37 -41 -56.5t-48 -48.5t-71 -47q-41 -20 -233 -24q-89 -2 -103 -4q-28 -4 -56.5 -17
t-36.5 -32q-18 -44 35 -136t167 -215q126 -135 278 -258.5t286.5 -196t192.5 -53.5q40 16 42 61q8 118 -15 232z" />
    <glyph glyph-name="L" unicode="L" horiz-adv-x="1490" 
d="M1357 673q52 -108 23 -194q-8 -26 -26.5 -53t-32.5 -42.5t-41 -43.5q-9 -9 -27 -29q-58 -58 -85 -135q-13 -42 -8 -81t27 -65l24 -30l-35 16q-40 18 -59.5 59.5t-17.5 85.5q8 77 47 142q-54 -6 -109 16q-55 -76 -144 -94q-90 -17 -167 25q-22 -105 -98 -185
q-18 -21 -42 -33q-30 -14 -62 -1q-179 109 -289 290q-28 44 -40 91q-13 49 11 93q-30 22 -39 56q-7 30 0 60q-30 -2 -53 21q-23 25 -33 60q-26 81 -10 168q5 40 35 67q32 24 95 8q5 41 34 67q30 25 72 27q6 91 49.5 171.5t116.5 134.5q51 41 114 48q71 8 116 -45
q34 -44 25 -120q-21 -137 -124 -235q-43 -45 -99 -69q-60 -25 -121 -1q-37 17 -61 50q-24 11 -49 -4q-20 -12 -25 -37q50 -29 63 -87q13 -60 -13 -113q-25 -52 -70 -87q-12 -26 -10 -57q2 -28 28 -36q88 94 170 129q56 24 113 23t102 -26q94 -58 113 -169q16 -95 -1 -196
q58 -44 129 -33q72 11 108 74q-25 135 55 246q79 108 188 125q59 83 59 188q-8 133 -54 188q-51 56 -110 97q-51 40 -55 43q-107 90 -112 192l-3 65l20 -62q26 -83 140 -155q14 -9 44 -27q75 -40 137 -101q87 -98 93 -228q11 -149 -26 -252zM364 1057q-5 -51 24 -59
q31 -9 73 8t81 66q71 88 91 161q15 54 -1 78q-29 44 -89 15q-76 -40 -123.5 -111.5t-55.5 -157.5zM166 694q8 -2 18 4t22.5 26t21.5 50q16 57 -4 88q-14 21 -41 26q-24 6 -45 -10q-24 -27 -21 -65q0 -58 11.5 -85t37.5 -34zM603 326q14 91 -0.5 168.5t-57.5 93.5
q-15 5 -38 5q-53 -2 -97 -20q-57 -25 -96.5 -83.5t-19.5 -119.5q22 -65 97 -148t115 -80q31 1 58 52.5t39 131.5zM1248 447q69 93 53 160q-3 20 -22 36q-23 12 -48 12q-49 0 -112 -63q-40 -43 -58 -98q-21 -64 5 -91q28 -25 66 -20q72 6 116 64zM750 674q-47 120 -11 195
q27 48 67 85q20 20 29 30q61 69 87.5 145t13.5 146l-7 39l22 -32q51 -71 21 -173l-5 -19q-18 -76 -56 -144l-2 -4q-62 -101 -74 -153q-8 -37 -8.5 -73.5t6.5 -72.5t16 -64.5t23 -64.5l22 -57l-38 49q-81 106 -106 168z" />
    <glyph glyph-name="L" unicode="l" horiz-adv-x="1490" 
d="M1357 673q52 -108 23 -194q-8 -26 -26.5 -53t-32.5 -42.5t-41 -43.5q-9 -9 -27 -29q-58 -58 -85 -135q-13 -42 -8 -81t27 -65l24 -30l-35 16q-40 18 -59.5 59.5t-17.5 85.5q8 77 47 142q-54 -6 -109 16q-55 -76 -144 -94q-90 -17 -167 25q-22 -105 -98 -185
q-18 -21 -42 -33q-30 -14 -62 -1q-179 109 -289 290q-28 44 -40 91q-13 49 11 93q-30 22 -39 56q-7 30 0 60q-30 -2 -53 21q-23 25 -33 60q-26 81 -10 168q5 40 35 67q32 24 95 8q5 41 34 67q30 25 72 27q6 91 49.5 171.5t116.5 134.5q51 41 114 48q71 8 116 -45
q34 -44 25 -120q-21 -137 -124 -235q-43 -45 -99 -69q-60 -25 -121 -1q-37 17 -61 50q-24 11 -49 -4q-20 -12 -25 -37q50 -29 63 -87q13 -60 -13 -113q-25 -52 -70 -87q-12 -26 -10 -57q2 -28 28 -36q88 94 170 129q56 24 113 23t102 -26q94 -58 113 -169q16 -95 -1 -196
q58 -44 129 -33q72 11 108 74q-25 135 55 246q79 108 188 125q59 83 59 188q-8 133 -54 188q-51 56 -110 97q-51 40 -55 43q-107 90 -112 192l-3 65l20 -62q26 -83 140 -155q14 -9 44 -27q75 -40 137 -101q87 -98 93 -228q11 -149 -26 -252zM364 1057q-5 -51 24 -59
q31 -9 73 8t81 66q71 88 91 161q15 54 -1 78q-29 44 -89 15q-76 -40 -123.5 -111.5t-55.5 -157.5zM166 694q8 -2 18 4t22.5 26t21.5 50q16 57 -4 88q-14 21 -41 26q-24 6 -45 -10q-24 -27 -21 -65q0 -58 11.5 -85t37.5 -34zM603 326q14 91 -0.5 168.5t-57.5 93.5
q-15 5 -38 5q-53 -2 -97 -20q-57 -25 -96.5 -83.5t-19.5 -119.5q22 -65 97 -148t115 -80q31 1 58 52.5t39 131.5zM1248 447q69 93 53 160q-3 20 -22 36q-23 12 -48 12q-49 0 -112 -63q-40 -43 -58 -98q-21 -64 5 -91q28 -25 66 -20q72 6 116 64zM750 674q-47 120 -11 195
q27 48 67 85q20 20 29 30q61 69 87.5 145t13.5 146l-7 39l22 -32q51 -71 21 -173l-5 -19q-18 -76 -56 -144l-2 -4q-62 -101 -74 -153q-8 -37 -8.5 -73.5t6.5 -72.5t16 -64.5t23 -64.5l22 -57l-38 49q-81 106 -106 168z" />
    <glyph glyph-name="M" unicode="M" horiz-adv-x="1544" 
d="M1219 902q11 -117 -23 -233q23 20 59.5 52t124.5 97t144 91q-47 -32 -108.5 -90.5t-100.5 -101.5t-114.5 -129.5t-96.5 -109.5q-123 -58 -439.5 -216.5t-458.5 -223.5q311 737 513 1118q-64 -4 -108.5 -0.5t-107.5 15.5t-107 18q-45 -68 -168.5 -250t-186.5 -280
q14 26 138 251.5t190 346.5q113 -16 205.5 -20.5t197.5 5.5t203.5 48t185.5 103q-66 -114 -236 -202q-81 -136 -194 -370.5t-186 -400.5l-73 -167q400 183 586 295q20 18 34 35.5t36 55.5t45 104.5t46 158.5z" />
    <glyph glyph-name="M" unicode="m" horiz-adv-x="1544" 
d="M1219 902q11 -117 -23 -233q23 20 59.5 52t124.5 97t144 91q-47 -32 -108.5 -90.5t-100.5 -101.5t-114.5 -129.5t-96.5 -109.5q-123 -58 -439.5 -216.5t-458.5 -223.5q311 737 513 1118q-64 -4 -108.5 -0.5t-107.5 15.5t-107 18q-45 -68 -168.5 -250t-186.5 -280
q14 26 138 251.5t190 346.5q113 -16 205.5 -20.5t197.5 5.5t203.5 48t185.5 103q-66 -114 -236 -202q-81 -136 -194 -370.5t-186 -400.5l-73 -167q400 183 586 295q20 18 34 35.5t36 55.5t45 104.5t46 158.5z" />
    <glyph glyph-name="N" unicode="N" horiz-adv-x="1544" 
d="M1219 902q11 -117 -23 -233q23 20 59.5 52t124.5 97t144 91q-47 -32 -108.5 -90.5t-100.5 -101.5t-114.5 -129.5t-96.5 -109.5q-123 -58 -439.5 -216.5t-458.5 -223.5q311 737 513 1118q-64 -4 -108.5 -0.5t-107.5 15.5t-107 18q-45 -68 -168.5 -250t-186.5 -280
q14 26 138 251.5t190 346.5q113 -16 205.5 -20.5t197.5 5.5t203.5 48t185.5 103q-66 -114 -236 -202q-81 -136 -194 -370.5t-186 -400.5l-73 -167q400 183 586 295q20 18 34 35.5t36 55.5t45 104.5t46 158.5z" />
    <glyph glyph-name="N" unicode="&#xf1;" horiz-adv-x="1544" 
d="M1219 902q11 -117 -23 -233q23 20 59.5 52t124.5 97t144 91q-47 -32 -108.5 -90.5t-100.5 -101.5t-114.5 -129.5t-96.5 -109.5q-123 -58 -439.5 -216.5t-458.5 -223.5q311 737 513 1118q-64 -4 -108.5 -0.5t-107.5 15.5t-107 18q-45 -68 -168.5 -250t-186.5 -280
q14 26 138 251.5t190 346.5q113 -16 205.5 -20.5t197.5 5.5t203.5 48t185.5 103q-66 -114 -236 -202q-81 -136 -194 -370.5t-186 -400.5l-73 -167q400 183 586 295q20 18 34 35.5t36 55.5t45 104.5t46 158.5z" />
    <glyph glyph-name="N" unicode="&#xd1;" horiz-adv-x="1544" 
d="M1219 902q11 -117 -23 -233q23 20 59.5 52t124.5 97t144 91q-47 -32 -108.5 -90.5t-100.5 -101.5t-114.5 -129.5t-96.5 -109.5q-123 -58 -439.5 -216.5t-458.5 -223.5q311 737 513 1118q-64 -4 -108.5 -0.5t-107.5 15.5t-107 18q-45 -68 -168.5 -250t-186.5 -280
q14 26 138 251.5t190 346.5q113 -16 205.5 -20.5t197.5 5.5t203.5 48t185.5 103q-66 -114 -236 -202q-81 -136 -194 -370.5t-186 -400.5l-73 -167q400 183 586 295q20 18 34 35.5t36 55.5t45 104.5t46 158.5z" />
    <glyph glyph-name="N" unicode="n" horiz-adv-x="1544" 
d="M1219 902q11 -117 -23 -233q23 20 59.5 52t124.5 97t144 91q-47 -32 -108.5 -90.5t-100.5 -101.5t-114.5 -129.5t-96.5 -109.5q-123 -58 -439.5 -216.5t-458.5 -223.5q311 737 513 1118q-64 -4 -108.5 -0.5t-107.5 15.5t-107 18q-45 -68 -168.5 -250t-186.5 -280
q14 26 138 251.5t190 346.5q113 -16 205.5 -20.5t197.5 5.5t203.5 48t185.5 103q-66 -114 -236 -202q-81 -136 -194 -370.5t-186 -400.5l-73 -167q400 183 586 295q20 18 34 35.5t36 55.5t45 104.5t46 158.5z" />
    <glyph glyph-name="P" unicode="P" horiz-adv-x="1574" 
d="M955 105q67 -22 223.5 39t298.5 144l52 29l-41 -43q-82 -88 -245.5 -180t-279.5 -92q-9 0 -27 2q-69 5 -103 64q-43 74 -16 157q15 48 54.5 98t82 86t93 69.5t78 48.5t47.5 25q0 1 16.5 147.5t26.5 227.5q-179 -116 -372 -216t-277 -100q-15 0 -22 2q-19 5 -26 21
q-22 35 -11 74q9 39 41.5 85t88.5 95.5t108 91t127.5 92.5t117.5 78t107 67q-12 25 -36 67l-513 -273l-4 6q-57 76 -130.5 155.5t-110.5 84.5q-5 1 -12 -2q-7 -5 -7 -13q-6 -54 156 -246q21 -25 22 -29q2 -6 -12 -15.5t-110 -57.5t-296 -141l-9 15l55 38q54 38 132 92
t125 86l-5 7q-149 198 -137 279q3 27 25 43q29 21 64 22.5t65.5 -12.5t47 -24t26.5 -18q31 -25 98 -88q52 -47 71 -64q215 125 558 296l8 4l125 -234l-7 -4q-143 -88 -283.5 -181t-254.5 -181.5t-120 -118.5v-4q22 -28 454 227q146 86 203.5 116.5t72.5 28.5q7 0 10 -5
q31 -37 -65 -585l-1 -4l-4 -2q-5 -2 -35 -15.5t-82 -42t-102 -61t-94.5 -75.5t-59.5 -82q-17 -37 -1 -75q9 -20 31 -26z" />
    <glyph glyph-name="P" unicode="p" horiz-adv-x="1574" 
d="M955 105q67 -22 223.5 39t298.5 144l52 29l-41 -43q-82 -88 -245.5 -180t-279.5 -92q-9 0 -27 2q-69 5 -103 64q-43 74 -16 157q15 48 54.5 98t82 86t93 69.5t78 48.5t47.5 25q0 1 16.5 147.5t26.5 227.5q-179 -116 -372 -216t-277 -100q-15 0 -22 2q-19 5 -26 21
q-22 35 -11 74q9 39 41.5 85t88.5 95.5t108 91t127.5 92.5t117.5 78t107 67q-12 25 -36 67l-513 -273l-4 6q-57 76 -130.5 155.5t-110.5 84.5q-5 1 -12 -2q-7 -5 -7 -13q-6 -54 156 -246q21 -25 22 -29q2 -6 -12 -15.5t-110 -57.5t-296 -141l-9 15l55 38q54 38 132 92
t125 86l-5 7q-149 198 -137 279q3 27 25 43q29 21 64 22.5t65.5 -12.5t47 -24t26.5 -18q31 -25 98 -88q52 -47 71 -64q215 125 558 296l8 4l125 -234l-7 -4q-143 -88 -283.5 -181t-254.5 -181.5t-120 -118.5v-4q22 -28 454 227q146 86 203.5 116.5t72.5 28.5q7 0 10 -5
q31 -37 -65 -585l-1 -4l-4 -2q-5 -2 -35 -15.5t-82 -42t-102 -61t-94.5 -75.5t-59.5 -82q-17 -37 -1 -75q9 -20 31 -26z" />
    <glyph glyph-name="Q" unicode="Q" horiz-adv-x="1265" 
d="M836 1108q80 -9 138 -41t114 -99q50 -60 79 -154.5t25 -184.5l-1 -33l-15 30q-18 34 -33 69q-54 120 -98 171l-1 1l-1 1q-63 80 -131 101q-13 4 -25 5q-45 5 -81 -28q-23 -20 -26.5 -50.5t4.5 -58t31.5 -68.5t39.5 -64t45 -62l30 -40l20 -29l-32 16q-29 15 -62 41t-51 43
t-53 52l-5 4q-88 82 -82 203q-45 -40 -106 -48q17 -38 3 -78q-15 -31 -45 -43q78 -40 144 -102q32 -32 44 -62.5t13 -83.5q28 12 60 15q100 3 172 -63q72 -63 110 -149l28 -62l-43 53q-40 51 -95 97q-56 45 -122 43q-33 -1 -59.5 -20t-39.5 -49q-15 -46 16 -119
q63 -151 176 -271l27 -29l-37 15q-118 48 -210 144t-99 208v5l-3 -2q-20 -14 -44 -20q-93 -9 -172 42q-158 94 -272 305l-25 45l38 -34q54 -49 86 -77t83.5 -65t98.5 -61q40 -22 88 -27q46 -6 76 30q31 37 15 81q-12 41 -42 76q-44 56 -146 123t-172.5 102.5t-82.5 39.5
l6 17l207 -54q57 -14 78 5q23 28 10 60q-18 64 -124 121q-28 15 -77 37t-84 37l-36 15l-56 22l60 -5q215 -24 353 -117q99 32 114 90q10 36 -3.5 72.5t-26.5 52t-36 38.5l-2 2q-102 99 -413 166l-80 14l81 4q207 0 435 -94q81 -33 152 -135q48 -66 45 -151q71 23 105 19z
" />
    <glyph glyph-name="Q" unicode="q" horiz-adv-x="1265" 
d="M836 1108q80 -9 138 -41t114 -99q50 -60 79 -154.5t25 -184.5l-1 -33l-15 30q-18 34 -33 69q-54 120 -98 171l-1 1l-1 1q-63 80 -131 101q-13 4 -25 5q-45 5 -81 -28q-23 -20 -26.5 -50.5t4.5 -58t31.5 -68.5t39.5 -64t45 -62l30 -40l20 -29l-32 16q-29 15 -62 41t-51 43
t-53 52l-5 4q-88 82 -82 203q-45 -40 -106 -48q17 -38 3 -78q-15 -31 -45 -43q78 -40 144 -102q32 -32 44 -62.5t13 -83.5q28 12 60 15q100 3 172 -63q72 -63 110 -149l28 -62l-43 53q-40 51 -95 97q-56 45 -122 43q-33 -1 -59.5 -20t-39.5 -49q-15 -46 16 -119
q63 -151 176 -271l27 -29l-37 15q-118 48 -210 144t-99 208v5l-3 -2q-20 -14 -44 -20q-93 -9 -172 42q-158 94 -272 305l-25 45l38 -34q54 -49 86 -77t83.5 -65t98.5 -61q40 -22 88 -27q46 -6 76 30q31 37 15 81q-12 41 -42 76q-44 56 -146 123t-172.5 102.5t-82.5 39.5
l6 17l207 -54q57 -14 78 5q23 28 10 60q-18 64 -124 121q-28 15 -77 37t-84 37l-36 15l-56 22l60 -5q215 -24 353 -117q99 32 114 90q10 36 -3.5 72.5t-26.5 52t-36 38.5l-2 2q-102 99 -413 166l-80 14l81 4q207 0 435 -94q81 -33 152 -135q48 -66 45 -151q71 23 105 19z
" />
    <glyph glyph-name="R" unicode="R" horiz-adv-x="1638" 
d="M1337 551q103 143 221 187l52 19l-43 -34q-45 -36 -89.5 -91t-70 -95.5t-66.5 -112.5q-46 -79 -74.5 -123.5t-79.5 -103.5t-106 -96q-72 -48 -158 -73t-212 -45l-23 -4l15 18q71 85 99.5 150.5t43.5 166.5q35 236 47 368q-21 -51 -53 -96t-53 -65t-57 -51l-24 -21
q-21 -19 -37.5 -50t-24 -52.5t-17.5 -57.5q-4 -15 -13 -42q-36 -101 -104 -133l-11 -5l-2 11q-25 119 -130 353q-49 108 -74 169.5t-50.5 160t-26.5 185.5q-39 -104 -44 -219t18 -216.5t47.5 -171t53.5 -129.5l32 -66l-47 57q-107 132 -153 295.5t-23 332.5t110 314.5
t226 244.5l30 22l-17 -33q-76 -145 -97 -274t9 -269q16 -72 44.5 -144.5t53 -119t71.5 -127.5q8 -15 37 -66q11 28 31.5 52.5t37 38t46.5 34.5q35 24 72 56q63 58 105 203t54 298l6 79l12 -79q38 -263 43.5 -456.5t-19.5 -433.5q136 26 227 134q48 57 123 161q28 40 32 45z
" />
    <glyph glyph-name="R" unicode="r" horiz-adv-x="1638" 
d="M1337 551q103 143 221 187l52 19l-43 -34q-45 -36 -89.5 -91t-70 -95.5t-66.5 -112.5q-46 -79 -74.5 -123.5t-79.5 -103.5t-106 -96q-72 -48 -158 -73t-212 -45l-23 -4l15 18q71 85 99.5 150.5t43.5 166.5q35 236 47 368q-21 -51 -53 -96t-53 -65t-57 -51l-24 -21
q-21 -19 -37.5 -50t-24 -52.5t-17.5 -57.5q-4 -15 -13 -42q-36 -101 -104 -133l-11 -5l-2 11q-25 119 -130 353q-49 108 -74 169.5t-50.5 160t-26.5 185.5q-39 -104 -44 -219t18 -216.5t47.5 -171t53.5 -129.5l32 -66l-47 57q-107 132 -153 295.5t-23 332.5t110 314.5
t226 244.5l30 22l-17 -33q-76 -145 -97 -274t9 -269q16 -72 44.5 -144.5t53 -119t71.5 -127.5q8 -15 37 -66q11 28 31.5 52.5t37 38t46.5 34.5q35 24 72 56q63 58 105 203t54 298l6 79l12 -79q38 -263 43.5 -456.5t-19.5 -433.5q136 26 227 134q48 57 123 161q28 40 32 45z
" />
    <glyph glyph-name="S" unicode="S" horiz-adv-x="1331" 
d="M973 1011q65 -11 132 -62.5t102 -110.5q49 -84 49 -261q0 -55 -59 -125q-60 -65 -149 -57q-76 14 -127 63q-7 -5 -17 -7q35 -42 20 -76q59 -21 110 -71t67 -105q13 -43 -4.5 -97.5t-37.5 -84.5t-41 -55l-4 -4h-5q-27 4 -62 45q-16 20 -30 31q-18 13 -89 21q-46 1 -89 20
q-64 39 -69 112h-1q-57 0 -91 57q-62 -28 -125 2q-173 75 -290 252q-36 50 -40 111.5t25 116.5q-28 78 -14 116q14 45 50 72q-19 25 -9 55q-29 18 -37 53l-3 15q-10 41 -2 56q-59 132 -43 317q3 35 32 52q30 19 63 8q95 -32 255 -121t270 -168q35 -25 45 -67t-11 -80
q-37 -66 -91 -125q43 -3 75 -29q36 58 109 99.5t136 31.5zM155 1356q-2 -16 -3.5 -48t8 -91.5t29.5 -110.5q110 -11 207.5 -61.5t170.5 -132.5q61 67 80 107q9 19 4.5 39t-20.5 33q-113 95 -269.5 182t-201.5 84q-3 0 -5 -1zM578 344q20 22 -16 80t-118 136
q-40 38 -103.5 79.5t-104.5 41.5q-1 0 -3.5 -0.5t-4.5 -0.5q-18 -2 -28 -18q-42 -74 117 -227l6 -6q117 -116 194 -114q37 0 61 29zM996 186q-14 41 -47.5 67t-76.5 29q-42 2 -77 -24t-39 -62q16 -41 61 -63q23 -12 51 -23q19 -7 40 -17q42 -19 71 -52q41 67 17 145z
M852 524l8 -3q1 1 1 3q-3 6 -7 10q-103 112 -180 140q76 -92 178 -150zM965 496v-1q27 -25 62 -37t66 -2q-44 77 -114 127l-26 19.5t-26 20.5q-49 34 -97 78q-15 15 -43 45q-34 40 -76 73q-33 25 -71 34.5t-81 -4.5l-7 -3l-4 5q-129 146 -313 205q-10 5 -25 2
q-10 -4 -11 -19q-2 -25 20 -38q162 -29 275 -147q20 -18 30 -42q12 -27 -7 -53q-24 -29 -82 -14q-121 31 -207 117q-30 -16 -39 -46q-9 -28 4 -57q53 26 116.5 10.5t121 -47t110 -76.5t83.5 -77t43 -48q48 -63 32 -140q-18 -67 -74 -110q12 -19 33.5 -25.5t42.5 1.5
q22 43 60.5 70.5t86.5 34.5q13 26 8 53.5t-22 49.5q-32 36 -75 64q-3 2 -10 7t-10 8q-63 47 -117 110q-28 35 -22 58q12 32 44 35q25 3 53 -7q99 -31 170 -112q16 -18 39 -51q23 -35 59 -71zM234 944q1 -11 42.5 -48t92.5 -68q25 -15 49.5 -21t29.5 2q4 6 -9 22.5t-38 35.5
q-42 31 -92 56.5t-70 22.5q-3 0 -5 -2zM1146 499q30 101 -6.5 200.5t-125.5 157.5q-59 44 -135 36q-33 -6 -59 -30.5t-25 -56.5q29 -35 67 -65z" />
    <glyph glyph-name="S" unicode="s" horiz-adv-x="1331" 
d="M973 1011q65 -11 132 -62.5t102 -110.5q49 -84 49 -261q0 -55 -59 -125q-60 -65 -149 -57q-76 14 -127 63q-7 -5 -17 -7q35 -42 20 -76q59 -21 110 -71t67 -105q13 -43 -4.5 -97.5t-37.5 -84.5t-41 -55l-4 -4h-5q-27 4 -62 45q-16 20 -30 31q-18 13 -89 21q-46 1 -89 20
q-64 39 -69 112h-1q-57 0 -91 57q-62 -28 -125 2q-173 75 -290 252q-36 50 -40 111.5t25 116.5q-28 78 -14 116q14 45 50 72q-19 25 -9 55q-29 18 -37 53l-3 15q-10 41 -2 56q-59 132 -43 317q3 35 32 52q30 19 63 8q95 -32 255 -121t270 -168q35 -25 45 -67t-11 -80
q-37 -66 -91 -125q43 -3 75 -29q36 58 109 99.5t136 31.5zM155 1356q-2 -16 -3.5 -48t8 -91.5t29.5 -110.5q110 -11 207.5 -61.5t170.5 -132.5q61 67 80 107q9 19 4.5 39t-20.5 33q-113 95 -269.5 182t-201.5 84q-3 0 -5 -1zM578 344q20 22 -16 80t-118 136
q-40 38 -103.5 79.5t-104.5 41.5q-1 0 -3.5 -0.5t-4.5 -0.5q-18 -2 -28 -18q-42 -74 117 -227l6 -6q117 -116 194 -114q37 0 61 29zM996 186q-14 41 -47.5 67t-76.5 29q-42 2 -77 -24t-39 -62q16 -41 61 -63q23 -12 51 -23q19 -7 40 -17q42 -19 71 -52q41 67 17 145z
M852 524l8 -3q1 1 1 3q-3 6 -7 10q-103 112 -180 140q76 -92 178 -150zM965 496v-1q27 -25 62 -37t66 -2q-44 77 -114 127l-26 19.5t-26 20.5q-49 34 -97 78q-15 15 -43 45q-34 40 -76 73q-33 25 -71 34.5t-81 -4.5l-7 -3l-4 5q-129 146 -313 205q-10 5 -25 2
q-10 -4 -11 -19q-2 -25 20 -38q162 -29 275 -147q20 -18 30 -42q12 -27 -7 -53q-24 -29 -82 -14q-121 31 -207 117q-30 -16 -39 -46q-9 -28 4 -57q53 26 116.5 10.5t121 -47t110 -76.5t83.5 -77t43 -48q48 -63 32 -140q-18 -67 -74 -110q12 -19 33.5 -25.5t42.5 1.5
q22 43 60.5 70.5t86.5 34.5q13 26 8 53.5t-22 49.5q-32 36 -75 64q-3 2 -10 7t-10 8q-63 47 -117 110q-28 35 -22 58q12 32 44 35q25 3 53 -7q99 -31 170 -112q16 -18 39 -51q23 -35 59 -71zM234 944q1 -11 42.5 -48t92.5 -68q25 -15 49.5 -21t29.5 2q4 6 -9 22.5t-38 35.5
q-42 31 -92 56.5t-70 22.5q-3 0 -5 -2zM1146 499q30 101 -6.5 200.5t-125.5 157.5q-59 44 -135 36q-33 -6 -59 -30.5t-25 -56.5q29 -35 67 -65z" />
    <glyph glyph-name="T" unicode="T" horiz-adv-x="1331" 
d="M973 1011q65 -11 132 -62.5t102 -110.5q49 -84 49 -261q0 -55 -59 -125q-60 -65 -149 -57q-76 14 -127 63q-7 -5 -17 -7q35 -42 20 -76q59 -21 110 -71t67 -105q13 -43 -4.5 -97.5t-37.5 -84.5t-41 -55l-4 -4h-5q-27 4 -62 45q-16 20 -30 31q-18 13 -89 21q-46 1 -89 20
q-64 39 -69 112h-1q-57 0 -91 57q-62 -28 -125 2q-173 75 -290 252q-36 50 -40 111.5t25 116.5q-28 78 -14 116q14 45 50 72q-19 25 -9 55q-29 18 -37 53l-3 15q-10 41 -2 56q-59 132 -43 317q3 35 32 52q30 19 63 8q95 -32 255 -121t270 -168q35 -25 45 -67t-11 -80
q-37 -66 -91 -125q43 -3 75 -29q36 58 109 99.5t136 31.5zM155 1356q-2 -16 -3.5 -48t8 -91.5t29.5 -110.5q110 -11 207.5 -61.5t170.5 -132.5q61 67 80 107q9 19 4.5 39t-20.5 33q-113 95 -269.5 182t-201.5 84q-3 0 -5 -1zM578 344q20 22 -16 80t-118 136
q-40 38 -103.5 79.5t-104.5 41.5q-1 0 -3.5 -0.5t-4.5 -0.5q-18 -2 -28 -18q-42 -74 117 -227l6 -6q117 -116 194 -114q37 0 61 29zM996 186q-14 41 -47.5 67t-76.5 29q-42 2 -77 -24t-39 -62q18 -42 61 -63q23 -12 51 -23q19 -7 40 -17q42 -19 71 -52q41 67 17 145z
M852 524l8 -3q1 1 1 3q-3 6 -7 10q-103 112 -180 140q76 -92 178 -150zM965 496v-1q27 -25 62 -37t66 -2q-44 77 -114 127l-26 19.5t-26 20.5q-49 34 -97 78q-15 15 -43 45q-34 40 -76 73q-33 25 -71 34.5t-81 -4.5l-7 -3l-4 5q-129 146 -313 205q-10 5 -25 2
q-11 -5 -12 -19q-2 -24 21 -38q162 -29 275 -147q20 -18 30 -42q12 -27 -7 -53q-24 -29 -82 -14q-121 31 -207 117q-30 -17 -39 -46q-9 -28 4 -57q53 26 116.5 10.5t121 -47t110 -76.5t83.5 -77t43 -48q48 -63 32 -140q-18 -67 -74 -110q12 -19 33.5 -25.5t42.5 1.5
q22 43 60.5 70.5t86.5 34.5q13 26 8 53.5t-22 49.5q-32 36 -75 64q-3 2 -10 7t-10 8q-63 47 -117 110q-28 35 -22 58q12 32 44 35q25 3 53 -7q99 -31 170 -112q16 -18 39 -51q23 -35 59 -71zM234 944q1 -11 42.5 -48t92.5 -68q25 -15 49.5 -21t29.5 2q4 6 -9 22.5t-38 35.5
q-42 31 -92 56.5t-70 22.5q-3 0 -5 -2zM1146 499q30 101 -6.5 200.5t-125.5 157.5q-59 44 -135 36q-33 -6 -59 -30.5t-25 -56.5q29 -35 67 -65z" />
    <glyph glyph-name="T" unicode="t" horiz-adv-x="1331" 
d="M973 1011q65 -11 132 -62.5t102 -110.5q49 -84 49 -261q0 -55 -59 -125q-60 -65 -149 -57q-76 14 -127 63q-7 -5 -17 -7q35 -42 20 -76q59 -21 110 -71t67 -105q13 -43 -4.5 -97.5t-37.5 -84.5t-41 -55l-4 -4h-5q-27 4 -62 45q-16 20 -30 31q-18 13 -89 21q-46 1 -89 20
q-64 39 -69 112h-1q-57 0 -91 57q-62 -28 -125 2q-173 75 -290 252q-36 50 -40 111.5t25 116.5q-28 78 -14 116q14 45 50 72q-19 25 -9 55q-29 18 -37 53l-3 15q-10 41 -2 56q-59 132 -43 317q3 35 32 52q30 19 63 8q95 -32 255 -121t270 -168q35 -25 45 -67t-11 -80
q-37 -66 -91 -125q43 -3 75 -29q36 58 109 99.5t136 31.5zM155 1356q-2 -16 -3.5 -48t8 -91.5t29.5 -110.5q110 -11 207.5 -61.5t170.5 -132.5q61 67 80 107q9 19 4.5 39t-20.5 33q-113 95 -269.5 182t-201.5 84q-3 0 -5 -1zM578 344q20 22 -16 80t-118 136
q-40 38 -103.5 79.5t-104.5 41.5q-1 0 -3.5 -0.5t-4.5 -0.5q-18 -2 -28 -18q-42 -74 117 -227l6 -6q117 -116 194 -114q37 0 61 29zM996 186q-14 41 -47.5 67t-76.5 29q-42 2 -77 -24t-39 -62q18 -42 61 -63q23 -12 51 -23q19 -7 40 -17q42 -19 71 -52q41 67 17 145z
M852 524l8 -3q1 1 1 3q-3 6 -7 10q-103 112 -180 140q76 -92 178 -150zM965 496v-1q27 -25 62 -37t66 -2q-44 77 -114 127l-26 19.5t-26 20.5q-49 34 -97 78q-15 15 -43 45q-34 40 -76 73q-33 25 -71 34.5t-81 -4.5l-7 -3l-4 5q-129 146 -313 205q-10 5 -25 2
q-11 -5 -12 -19q-2 -24 21 -38q162 -29 275 -147q20 -18 30 -42q12 -27 -7 -53q-24 -29 -82 -14q-121 31 -207 117q-30 -17 -39 -46q-9 -28 4 -57q53 26 116.5 10.5t121 -47t110 -76.5t83.5 -77t43 -48q48 -63 32 -140q-18 -67 -74 -110q12 -19 33.5 -25.5t42.5 1.5
q22 43 60.5 70.5t86.5 34.5q13 26 8 53.5t-22 49.5q-32 36 -75 64q-3 2 -10 7t-10 8q-63 47 -117 110q-28 35 -22 58q12 32 44 35q25 3 53 -7q99 -31 170 -112q16 -18 39 -51q23 -35 59 -71zM234 944q1 -11 42.5 -48t92.5 -68q25 -15 49.5 -21t29.5 2q4 6 -9 22.5t-38 35.5
q-42 31 -92 56.5t-70 22.5q-3 0 -5 -2zM1146 499q30 101 -6.5 200.5t-125.5 157.5q-59 44 -135 36q-33 -6 -59 -30.5t-25 -56.5q29 -35 67 -65z" />
    <glyph glyph-name="V" unicode="V" horiz-adv-x="1341" 
d="M1020 1202q43 -59 81.5 -146.5t55 -140.5t27.5 -97q14 -55 26.5 -134.5t19.5 -183t3 -197t-28 -175.5t-69 -119l-23 -19l7 28q24 96 29 226t-12 268.5t-51.5 266.5t-93 230t-131.5 148q-31 -38 -45.5 -59t-24 -53t-2.5 -66q1 -2 2 -6.5t1 -7.5q8 -26 5 -58
q-3 -18 -15 -35t-23 -27.5t-31 -26.5q-18 -13 -39 -34q-32 -37 -42.5 -84.5t3.5 -93.5q22 -83 101 -167q98 -105 195 -107q6 0 17 0.5t17 0.5h46q31 -2 50 -25q29 -39 16 -86l-7 -31l-11 30q-13 34 -34.5 48.5t-41.5 9.5q-2 -1 -12 -4t-16 -5q-26 -11 -52 -15
q-61 -6 -130 49q-9 8 -26 23q-69 63 -98 70q-15 4 -25 -2q-20 -13 3 -76q20 -57 -12 -110q-15 -22 -38 -45q-7 -7 -19 -21q-33 -39 -24 -69l10 -33l-26 24q-21 19 -25.5 47.5t12.5 51.5q35 43 48 80t5 64.5t-16.5 41t-24.5 29.5l-7 7q-16 15 -31 24q-107 73 -160 218
q-40 109 -12 200q18 69 62 123q92 116 108 149l1 2q22 38 3 79q-34 69 -197 116v-2q7 -57 -12 -111q-17 -35 -44 -64q-27 -27 -44 -64q-38 -114 10 -253q43 -122 110 -236q53 -88 41 -225q-9 -52 -4 -112t35 -99l24 -31l-36 18q-60 29 -107.5 100t-50.5 135q-1 47 5 100
q11 71 -1 139q-14 64 -36 116.5t-62 126.5q-89 168 -25 281q18 28 32 45q21 24 37 56q22 47 -8 103.5t-86 104.5l-18 15l24 1q166 6 328 -46q86 -30 146 -86t78 -123q11 -15 34.5 -18t42.5 6q14 6 24.5 24t14 49t-11.5 73q-22 57 -59 98l-22 23l31 -9q206 -57 331 -230z
M695 862q48 48 41 95q-3 17 -11 35q-5 11 -11 35q-10 41 13 73q-30 -14 -63 -9.5t-58 25.5q-96 -97 -183 -209q-62 -84 -43 -184q21 -97 88 -173q50 -58 111 -112q6 13 14 18q4 2 12 4q-49 67 -55 152q-6 96 58 170q23 25 49 46q26 22 38 34z" />
    <glyph glyph-name="V" unicode="v" horiz-adv-x="1341" 
d="M1020 1202q43 -59 81.5 -146.5t55 -140.5t27.5 -97q14 -55 26.5 -134.5t19.5 -183t3 -197t-28 -175.5t-69 -119l-23 -19l7 28q24 96 29 226t-12 268.5t-51.5 266.5t-93 230t-131.5 148q-31 -38 -45.5 -59t-24 -53t-2.5 -66q1 -2 2 -6.5t1 -7.5q8 -26 5 -58
q-3 -18 -15 -35t-23 -27.5t-31 -26.5q-18 -13 -39 -34q-32 -37 -42.5 -84.5t3.5 -93.5q22 -83 101 -167q98 -105 195 -107q6 0 17 0.5t17 0.5h46q31 -2 50 -25q29 -39 16 -86l-7 -31l-11 30q-13 34 -34.5 48.5t-41.5 9.5q-2 -1 -12 -4t-16 -5q-26 -11 -52 -15
q-61 -6 -130 49q-9 8 -26 23q-69 63 -98 70q-15 4 -25 -2q-20 -13 3 -76q20 -57 -12 -110q-15 -22 -38 -45q-7 -7 -19 -21q-33 -39 -24 -69l10 -33l-26 24q-21 19 -25.5 47.5t12.5 51.5q35 43 48 80t5 64.5t-16.5 41t-24.5 29.5l-7 7q-16 15 -31 24q-107 73 -160 218
q-40 109 -12 200q18 69 62 123q92 116 108 149l1 2q22 38 3 79q-34 69 -197 116v-2q7 -57 -12 -111q-17 -35 -44 -64q-27 -27 -44 -64q-38 -114 10 -253q43 -122 110 -236q53 -88 41 -225q-9 -52 -4 -112t35 -99l24 -31l-36 18q-60 29 -107.5 100t-50.5 135q-1 47 5 100
q11 71 -1 139q-14 64 -36 116.5t-62 126.5q-89 168 -25 281q18 28 32 45q21 24 37 56q22 47 -8 103.5t-86 104.5l-18 15l24 1q166 6 328 -46q86 -30 146 -86t78 -123q11 -15 34.5 -18t42.5 6q14 6 24.5 24t14 49t-11.5 73q-22 57 -59 98l-22 23l31 -9q206 -57 331 -230z
M695 862q48 48 41 95q-3 17 -11 35q-5 11 -11 35q-10 41 13 73q-30 -14 -63 -9.5t-58 25.5q-96 -97 -183 -209q-62 -84 -43 -184q21 -97 88 -173q50 -58 111 -112q6 13 14 18q4 2 12 4q-49 67 -55 152q-6 96 58 170q23 25 49 46q26 22 38 34z" />
    <glyph glyph-name="W" unicode="W" horiz-adv-x="1738" 
d="M1676 423q21 3 28 -18t-10 -32q-38 -24 -438 -291l-11 13l19 18q18 18 47.5 46.5t63.5 61.5t71.5 70t65.5 65q-17 4 -31 17q-92 -49 -194 -43q-25 -22 -77.5 -69t-80.5 -72q-23 -21 -82 -74t-94 -84l-31 -28l17 38q15 33 70.5 110t95 127t63.5 80q-13 143 -23 211
q-15 -14 -72 -64.5t-87 -78.5q-115 -105 -211 -190q-24 -22 -56 -9q-18 8 -27 20.5t-10.5 21.5t-2.5 25v9q1 69 40 129l22 44q130 278 329 507q-9 25 -20 60q-12 38 -17 53q-252 -352 -429 -545l-3 -4q-46 -52 -99 -92q-55 -38 -120 -24q-26 2 -47 17.5t-31 39.5
q-21 -55 -73 -86q-38 -22 -79 -2q-28 15 -36 43t-7 69q6 465 61 916l17 -1q0 -119 -4 -238q-4 -126 -5 -193.5t0.5 -168t11 -155.5t27.5 -72q5 -5 12 -5q17 1 33 18.5t32 52.5t26 60.5t26 69.5q20 57 32 84q79 179 160 277q51 61 145.5 113.5t176.5 71.5l70 17l-64 -33
q-218 -111 -323 -290q-104 -171 -99 -371q3 -79 51 -83q23 -1 45 14q65 47 131 116t105.5 120t104.5 140q91 130 182 233q17 19 44 14q25 -5 35 -29q35 -93 55 -179q8 -37 -19 -62q-230 -223 -351 -524q-12 -28 -2 -40q11 -11 26 -4q21 9 30 20q204 188 308 283q18 17 42 8
q24 -8 27 -34q10 -87 25 -241q77 -11 147 23q10 6 15 10q16 14 40 16q17 -3 31 -17q3 -3 13 -9q53 -27 147 -17z" />
    <glyph glyph-name="W" unicode="w" horiz-adv-x="1738" 
d="M1676 423q21 3 28 -18t-10 -32q-38 -24 -438 -291l-11 13l19 18q18 18 47.5 46.5t63.5 61.5t71.5 70t65.5 65q-17 4 -31 17q-92 -49 -194 -43q-25 -22 -77.5 -69t-80.5 -72q-23 -21 -82 -74t-94 -84l-31 -28l17 38q15 33 70.5 110t95 127t63.5 80q-13 143 -23 211
q-15 -14 -72 -64.5t-87 -78.5q-115 -105 -211 -190q-24 -22 -56 -9q-18 8 -27 20.5t-10.5 21.5t-2.5 25v9q1 69 40 129l22 44q130 278 329 507q-9 25 -20 60q-12 38 -17 53q-252 -352 -429 -545l-3 -4q-46 -52 -99 -92q-55 -38 -120 -24q-26 2 -47 17.5t-31 39.5
q-21 -55 -73 -86q-38 -22 -79 -2q-28 15 -36 43t-7 69q6 465 61 916l17 -1q0 -119 -4 -238q-4 -126 -5 -193.5t0.5 -168t11 -155.5t27.5 -72q5 -5 12 -5q17 1 33 18.5t32 52.5t26 60.5t26 69.5q20 57 32 84q79 179 160 277q51 61 145.5 113.5t176.5 71.5l70 17l-64 -33
q-218 -111 -323 -290q-104 -171 -99 -371q3 -79 51 -83q23 -1 45 14q65 47 131 116t105.5 120t104.5 140q91 130 182 233q17 19 44 14q25 -5 35 -29q35 -93 55 -179q8 -37 -19 -62q-230 -223 -351 -524q-12 -28 -2 -40q11 -11 26 -4q21 9 30 20q204 188 308 283q18 17 42 8
q24 -8 27 -34q10 -87 25 -241q77 -11 147 23q10 6 15 10q16 14 40 16q17 -3 31 -17q3 -3 13 -9q53 -27 147 -17z" />
    <glyph glyph-name="X" unicode="X" horiz-adv-x="1140" 
d="M131 945l-6 -8l-29 19l26 47q44 80 70 124.5t70 103.5t92 103q25 23 62 40t69 16q172 -7 525 -512l31 -44l-51 16q-9 2 -27 4q-135 11 -211 79q-25 22 -90 129q-29 48 -45 72t-43.5 62.5t-51.5 59.5t-47 28q-18 6 -37.5 0.5t-40 -23t-32 -29t-31.5 -33.5l-10 -12
q-136 -167 -193 -242zM131 517l-6 -7l-29 18l26 47q44 80 70 124.5t70 103.5t92 103q25 23 61.5 40t69.5 16q172 -7 525 -512l47 -67l-71 41q-48 28 -102 31q-75 2 -129 57q-59 65 -103 137q-26 40 -42 63t-40 51.5t-46.5 43t-44.5 15.5q-93 6 -154 -61l-1 -2
q-136 -167 -193 -242zM1044 34l24 -34l-42 6q-15 2 -52 7q-48 6 -70.5 11t-55 20t-63.5 43q-39 34 -122 159q-28 43 -46 68t-43 55.5t-47.5 46t-43.5 16.5q-93 5 -158 -65q-97 -118 -194 -245l-6 -7l-29 19l26 47q44 80 70 124.5t70 103.5t92 103q66 60 131 56
q39 -2 91.5 -33t99 -71t106 -105t95 -107t84.5 -106t56 -74.5t27 -37.5z" />
    <glyph glyph-name="X" unicode="x" horiz-adv-x="1140" 
d="M131 945l-6 -8l-29 19l26 47q44 80 70 124.5t70 103.5t92 103q25 23 62 40t69 16q172 -7 525 -512l31 -44l-51 16q-9 2 -27 4q-135 11 -211 79q-25 22 -90 129q-29 48 -45 72t-43.5 62.5t-51.5 59.5t-47 28q-18 6 -37.5 0.5t-40 -23t-32 -29t-31.5 -33.5l-10 -12
q-136 -167 -193 -242zM131 517l-6 -7l-29 18l26 47q44 80 70 124.5t70 103.5t92 103q25 23 61.5 40t69.5 16q172 -7 525 -512l47 -67l-71 41q-48 28 -102 31q-75 2 -129 57q-59 65 -103 137q-26 40 -42 63t-40 51.5t-46.5 43t-44.5 15.5q-93 6 -154 -61l-1 -2
q-136 -167 -193 -242zM1044 34l24 -34l-42 6q-15 2 -52 7q-48 6 -70.5 11t-55 20t-63.5 43q-39 34 -122 159q-28 43 -46 68t-43 55.5t-47.5 46t-43.5 16.5q-93 5 -158 -65q-97 -118 -194 -245l-6 -7l-29 19l26 47q44 80 70 124.5t70 103.5t92 103q66 60 131 56
q39 -2 91.5 -33t99 -71t106 -105t95 -107t84.5 -106t56 -74.5t27 -37.5z" />
    <glyph glyph-name="Y" unicode="Y" horiz-adv-x="1142" 
d="M133 945l-6 -8l-29 19l26 47q44 80 70 124.5t70 103.5t92 103q25 23 62 40t69 16q172 -7 525 -512l31 -44l-52 16q-10 2 -26 4q-135 11 -211 79q-25 22 -90 129q-29 48 -45 72t-43.5 62.5t-51.5 59.5t-47 28q-18 6 -37.5 0.5t-40 -23t-32 -29t-31.5 -33.5l-10 -12
q-136 -167 -193 -242zM133 517l-6 -7l-29 19l26 47q43 79 70 124.5t70.5 103.5t91.5 102q25 23 61.5 40t69.5 16q172 -7 525 -512l47 -67l-71 41q-48 28 -102 31q-75 2 -129 57q-59 65 -103 137q-26 40 -42 63t-40 51.5t-46.5 43t-44.5 15.5q-93 6 -154 -61l-1 -2
q-136 -167 -193 -242zM1046 34l24 -34l-42 6q-15 2 -52 7q-48 6 -70.5 11t-55 20t-63.5 43q-39 34 -122 159q-28 43 -46 68t-43 55.5t-47.5 46t-43.5 16.5q-93 5 -158 -65q-97 -118 -194 -245l-6 -7l-29 19l26 47q44 80 70 124.5t70 103.5t92 103q66 60 131 56
q39 -2 91.5 -33t99.5 -71.5t105.5 -104.5t95 -107t84.5 -106t56.5 -74.5t26.5 -37.5z" />
    <glyph glyph-name="Y" unicode="&#x178;" horiz-adv-x="1142" 
d="M133 945l-6 -8l-29 19l26 47q44 80 70 124.5t70 103.5t92 103q25 23 62 40t69 16q172 -7 525 -512l31 -44l-52 16q-10 2 -26 4q-135 11 -211 79q-25 22 -90 129q-29 48 -45 72t-43.5 62.5t-51.5 59.5t-47 28q-18 6 -37.5 0.5t-40 -23t-32 -29t-31.5 -33.5l-10 -12
q-136 -167 -193 -242zM133 517l-6 -7l-29 19l26 47q43 79 70 124.5t70.5 103.5t91.5 102q25 23 61.5 40t69.5 16q172 -7 525 -512l47 -67l-71 41q-48 28 -102 31q-75 2 -129 57q-59 65 -103 137q-26 40 -42 63t-40 51.5t-46.5 43t-44.5 15.5q-93 6 -154 -61l-1 -2
q-136 -167 -193 -242zM1046 34l24 -34l-42 6q-15 2 -52 7q-48 6 -70.5 11t-55 20t-63.5 43q-39 34 -122 159q-28 43 -46 68t-43 55.5t-47.5 46t-43.5 16.5q-93 5 -158 -65q-97 -118 -194 -245l-6 -7l-29 19l26 47q44 80 70 124.5t70 103.5t92 103q66 60 131 56
q39 -2 91.5 -33t99.5 -71.5t105.5 -104.5t95 -107t84.5 -106t56.5 -74.5t26.5 -37.5z" />
    <glyph glyph-name="Y" unicode="&#xff;" horiz-adv-x="1142" 
d="M133 945l-6 -8l-29 19l26 47q44 80 70 124.5t70 103.5t92 103q25 23 62 40t69 16q172 -7 525 -512l31 -44l-52 16q-10 2 -26 4q-135 11 -211 79q-25 22 -90 129q-29 48 -45 72t-43.5 62.5t-51.5 59.5t-47 28q-18 6 -37.5 0.5t-40 -23t-32 -29t-31.5 -33.5l-10 -12
q-136 -167 -193 -242zM133 517l-6 -7l-29 19l26 47q43 79 70 124.5t70.5 103.5t91.5 102q25 23 61.5 40t69.5 16q172 -7 525 -512l47 -67l-71 41q-48 28 -102 31q-75 2 -129 57q-59 65 -103 137q-26 40 -42 63t-40 51.5t-46.5 43t-44.5 15.5q-93 6 -154 -61l-1 -2
q-136 -167 -193 -242zM1046 34l24 -34l-42 6q-15 2 -52 7q-48 6 -70.5 11t-55 20t-63.5 43q-39 34 -122 159q-28 43 -46 68t-43 55.5t-47.5 46t-43.5 16.5q-93 5 -158 -65q-97 -118 -194 -245l-6 -7l-29 19l26 47q44 80 70 124.5t70 103.5t92 103q66 60 131 56
q39 -2 91.5 -33t99.5 -71.5t105.5 -104.5t95 -107t84.5 -106t56.5 -74.5t26.5 -37.5z" />
    <glyph glyph-name="Y" unicode="&#xfd;" horiz-adv-x="1142" 
d="M133 945l-6 -8l-29 19l26 47q44 80 70 124.5t70 103.5t92 103q25 23 62 40t69 16q172 -7 525 -512l31 -44l-52 16q-10 2 -26 4q-135 11 -211 79q-25 22 -90 129q-29 48 -45 72t-43.5 62.5t-51.5 59.5t-47 28q-18 6 -37.5 0.5t-40 -23t-32 -29t-31.5 -33.5l-10 -12
q-136 -167 -193 -242zM133 517l-6 -7l-29 19l26 47q43 79 70 124.5t70.5 103.5t91.5 102q25 23 61.5 40t69.5 16q172 -7 525 -512l47 -67l-71 41q-48 28 -102 31q-75 2 -129 57q-59 65 -103 137q-26 40 -42 63t-40 51.5t-46.5 43t-44.5 15.5q-93 6 -154 -61l-1 -2
q-136 -167 -193 -242zM1046 34l24 -34l-42 6q-15 2 -52 7q-48 6 -70.5 11t-55 20t-63.5 43q-39 34 -122 159q-28 43 -46 68t-43 55.5t-47.5 46t-43.5 16.5q-93 5 -158 -65q-97 -118 -194 -245l-6 -7l-29 19l26 47q44 80 70 124.5t70 103.5t92 103q66 60 131 56
q39 -2 91.5 -33t99.5 -71.5t105.5 -104.5t95 -107t84.5 -106t56.5 -74.5t26.5 -37.5z" />
    <glyph glyph-name="Y" unicode="&#xdd;" horiz-adv-x="1142" 
d="M133 945l-6 -8l-29 19l26 47q44 80 70 124.5t70 103.5t92 103q25 23 62 40t69 16q172 -7 525 -512l31 -44l-52 16q-10 2 -26 4q-135 11 -211 79q-25 22 -90 129q-29 48 -45 72t-43.5 62.5t-51.5 59.5t-47 28q-18 6 -37.5 0.5t-40 -23t-32 -29t-31.5 -33.5l-10 -12
q-136 -167 -193 -242zM133 517l-6 -7l-29 19l26 47q43 79 70 124.5t70.5 103.5t91.5 102q25 23 61.5 40t69.5 16q172 -7 525 -512l47 -67l-71 41q-48 28 -102 31q-75 2 -129 57q-59 65 -103 137q-26 40 -42 63t-40 51.5t-46.5 43t-44.5 15.5q-93 6 -154 -61l-1 -2
q-136 -167 -193 -242zM1046 34l24 -34l-42 6q-15 2 -52 7q-48 6 -70.5 11t-55 20t-63.5 43q-39 34 -122 159q-28 43 -46 68t-43 55.5t-47.5 46t-43.5 16.5q-93 5 -158 -65q-97 -118 -194 -245l-6 -7l-29 19l26 47q44 80 70 124.5t70 103.5t92 103q66 60 131 56
q39 -2 91.5 -33t99.5 -71.5t105.5 -104.5t95 -107t84.5 -106t56.5 -74.5t26.5 -37.5z" />
    <glyph glyph-name="Y" unicode="y" horiz-adv-x="1142" 
d="M133 945l-6 -8l-29 19l26 47q44 80 70 124.5t70 103.5t92 103q25 23 62 40t69 16q172 -7 525 -512l31 -44l-52 16q-10 2 -26 4q-135 11 -211 79q-25 22 -90 129q-29 48 -45 72t-43.5 62.5t-51.5 59.5t-47 28q-18 6 -37.5 0.5t-40 -23t-32 -29t-31.5 -33.5l-10 -12
q-136 -167 -193 -242zM133 517l-6 -7l-29 19l26 47q43 79 70 124.5t70.5 103.5t91.5 102q25 23 61.5 40t69.5 16q172 -7 525 -512l47 -67l-71 41q-48 28 -102 31q-75 2 -129 57q-59 65 -103 137q-26 40 -42 63t-40 51.5t-46.5 43t-44.5 15.5q-93 6 -154 -61l-1 -2
q-136 -167 -193 -242zM1046 34l24 -34l-42 6q-15 2 -52 7q-48 6 -70.5 11t-55 20t-63.5 43q-39 34 -122 159q-28 43 -46 68t-43 55.5t-47.5 46t-43.5 16.5q-93 5 -158 -65q-97 -118 -194 -245l-6 -7l-29 19l26 47q44 80 70 124.5t70 103.5t92 103q66 60 131 56
q39 -2 91.5 -33t99.5 -71.5t105.5 -104.5t95 -107t84.5 -106t56.5 -74.5t26.5 -37.5z" />
    <glyph glyph-name="Z" unicode="Z" horiz-adv-x="1142" 
d="M133 945l-6 -8l-29 19l26 47q44 80 70 124.5t70 103.5t92 103q25 23 62 40t69 16q172 -7 525 -512l31 -44l-52 16q-10 2 -26 4q-135 11 -211 79q-25 22 -90 129q-29 48 -45 72t-43.5 62.5t-51.5 59.5t-47 28q-18 6 -37.5 0.5t-40 -23t-32 -29t-31.5 -33.5l-10 -12
q-136 -167 -193 -242zM133 517l-6 -7l-29 19l26 47q43 79 70 124.5t70.5 103.5t91.5 102q25 23 61.5 40t69.5 16q172 -7 525 -512l47 -67l-71 41q-48 28 -102 31q-75 2 -129 57q-59 65 -103 137q-26 40 -42 63t-40 51.5t-46.5 43t-44.5 15.5q-93 6 -154 -61l-1 -2
q-136 -167 -193 -242zM1046 34l24 -34l-42 6q-15 2 -52 7q-48 6 -70.5 11t-55 20t-63.5 43q-39 34 -122 159q-28 43 -46 68t-43 55.5t-47.5 46t-43.5 16.5q-93 5 -158 -65q-97 -118 -194 -245l-6 -7l-29 19l26 47q44 80 70 124.5t70 103.5t92 103q66 60 131 56
q39 -2 91.5 -33t99.5 -71.5t105.5 -104.5t95 -107t84.5 -106t56.5 -74.5t26.5 -37.5z" />
    <glyph glyph-name="Z" unicode="z" horiz-adv-x="1142" 
d="M133 945l-6 -8l-29 19l26 47q44 80 70 124.5t70 103.5t92 103q25 23 62 40t69 16q172 -7 525 -512l31 -44l-52 16q-10 2 -26 4q-135 11 -211 79q-25 22 -90 129q-29 48 -45 72t-43.5 62.5t-51.5 59.5t-47 28q-18 6 -37.5 0.5t-40 -23t-32 -29t-31.5 -33.5l-10 -12
q-136 -167 -193 -242zM133 517l-6 -7l-29 19l26 47q43 79 70 124.5t70.5 103.5t91.5 102q25 23 61.5 40t69.5 16q172 -7 525 -512l47 -67l-71 41q-48 28 -102 31q-75 2 -129 57q-59 65 -103 137q-26 40 -42 63t-40 51.5t-46.5 43t-44.5 15.5q-93 6 -154 -61l-1 -2
q-136 -167 -193 -242zM1046 34l24 -34l-42 6q-15 2 -52 7q-48 6 -70.5 11t-55 20t-63.5 43q-39 34 -122 159q-28 43 -46 68t-43 55.5t-47.5 46t-43.5 16.5q-93 5 -158 -65q-97 -118 -194 -245l-6 -7l-29 19l26 47q44 80 70 124.5t70 103.5t92 103q66 60 131 56
q39 -2 91.5 -33t99.5 -71.5t105.5 -104.5t95 -107t84.5 -106t56.5 -74.5t26.5 -37.5z" />
    <glyph glyph-name="nonbreakingspace" unicode="&#xa0;" horiz-adv-x="729" 
 />
    <glyph glyph-name="softhyphen" unicode="&#xad;" 
 />
    </font>
</defs>
</svg>
